/* XPM */
static char *_eabe73a98e342a9f354b485643b09edoJbT6TmpWJfhvzIC[] = {
/* columns rows colors chars-per-pixel */
"32 32 10 1 ",
"  c #151B1E",
". c #222C31",
"X c #30393E",
"o c #47555C",
"O c #566369",
"+ c #696A6A",
"@ c #8299A4",
"# c #A2BFCD",
"$ c #CFE1EA",
"% c #E4EEF3",
/* pixels */
"                         @#$$$%+",
"       o  o  XX XXXXXXXo @#$$$%+",
"      oo..oo XX oXXXXXXo @#$$$%+",
"       o..o  XX oXXXXXXo @#$$$%+",
"      oo..oo XX oXo    o @#$$$%+",
"       o..o  XX oXo    o @#$$$%+",
"      oo..oo XX oXXXXXXo @#$$$%+",
"       o..o  XX oXoooooo @#$$$%+",
"      oo..oo XX oXXXXXXo @#$$$%+",
"       o..o  XX oXoooooo @#$$$%+",
"      oo..oo XXXoXo XXXo @#$$$%+",
"      OO..o  oXXoXo XXXo @#$$$%+",
" .....OO..o   oooXo  XXo @#$$$%+",
" .........o     XXoooooo @#$$$%+",
" ooooooooo      XXXXXXXo @#$$$%+",
"                 XXXX  o @#$$$%+",
" XXXXXXXXXXXXXXX      Oo @#$$$%+",
" XX XX XX XX XXXoo  o Oo @#$$$%+",
" XooXooXooXooXXXXo  o Oo @#$$$%+",
" XXXXXXXXXXXXXXXXo    Oo @#$$$%+",
" XooXooXooXooXXXXo XXXOo @#$$$%+",
" X  X  X  X  XXXXXoOOOOo @#$$$%+",
" X  X  X  X  XXXXXXooooo @#$$$%+",
" XXXXXXXXXXXXXXXXXXXXXXo @#$$$%+",
" ooooooooooooooooooooooo @#$$$%+",
"                        @@#$$$%+",
"@@@@@@@@@@@@@@@@@@@@@@@@@#$$$$%+",
"#########################$$$$$%+",
"$$$$$$$$$$$$$$$$$$$$$$$$$$$$$$%+",
"$$$$$$$$$$$$$$$$$$$$$$$$$$$$$$%+",
"$$$$$$$$$$$$$$$$$$$$$$$$$$$$$%++",
"%%%%%%%%%%%%%%%%%%%%%%%%%%%%%+++"
};
