/* XPM */
static char *_a15f7f72f074d5de8bc407139edaa72Ms0ouCuytkYKaACD[] = {
/* columns rows colors chars-per-pixel */
"32 32 10 1 ",
"  c #151B1E",
". c #222C31",
"X c #30393E",
"o c #47555C",
"O c #566369",
"+ c #696A6A",
"@ c #8299A4",
"# c #A2BFCD",
"$ c #CFE1EA",
"% c #E4EEF3",
/* pixels */
"%$$$#@ oXXXXXXXXX XX            ",
"%$$$#@ oXXXXXXXXX XX o o        ",
"%$$$#@ oXXXXXXXXo XX o.o        ",
"%$$$#@ oXXXXXXXXo XX o.o        ",
"%$$$#@ o    oXXXo XX o.o        ",
"%$$$#@ o    oXXXo XX o.o        ",
"%$$$#@ oXXXXXXXXo XX o.o        ",
"%$$$#@ ooooooXXXo XX o.o        ",
"%$$$#@ oXoX o XXo XX o.o        ",
"%$$$#@ ooooooooXo XX o.o        ",
"%$$$#@ oXoX o oXoXXX o.o        ",
"%$$$#@ oXoXX oXoXXo  o..O       ",
"%$$$#@ oXoXX oXooo    o..OOOOoo ",
"%$$$#@ oooooooXX   o   o....... ",
"%$$$#@ oXXXXXXXX o o o  oOOOOoo ",
"%$$$#@ oOOOOOOOo                ",
"%$$$#@ oO     OoXXXXXXXXXXXXXXX ",
"%$$$#@ oO ooo OoXXX XX XX XX XX ",
"%$$$#@ oO ooo OXXXXooXooXooXooX ",
"%$$$#@ oO ooo OoXXXXXXXXXXXXXXX ",
"%$$$#@ oO     OoXXXooXooXooXooX ",
"%$$$#@ oOOOOOOOoXXX  X  X  X  X ",
"%$$$#@ ooooXXXXXXXX  X  X  X  X ",
"%$$$#@ oXXXXXXXXXXXXXXXXXXXXXXX ",
"%$$$#@ oooooooooooooooooooooooo ",
"%$$$#@@                         ",
"%$$$$#@@@@@@@@@@@@@@@@@@@@@@@@@@",
"%$$$$$##########################",
"%$$$$$$$$$$$$$$$$$$$$$$$$$$$$$$$",
"%$$$$$$$$$$$$$$$$$$$$$$$$$$$$$$$",
"+%$$$$$$$$$$$$$$$$$$$$$$$$$$$$$$",
"++%%%%%%%%%%%%%%%%%%%%%%%%%%%%%%"
};
