/* XPM */
static char *Horm00_png1670536206[] = {
/* columns rows colors chars-per-pixel */
"32 32 11 1 ",
"  c #696A6A",
". c #E3EEF3",
"X c #CEE0E9",
"o c #A1BECC",
"O c #8198A3",
"+ c #1C2123",
"@ c #49565C",
"# c #333C40",
"$ c #576369",
"% c #273034",
"& c white",
/* pixels */
"  ..............................",
" .XXXXXXXXXXXXXXXXXXXXXXXXXXXXXX",
".XXXXXXXXXXXXXXXXXXXXXXXXXXXXXXX",
".XXXXXXXXXXXXXXXXXXXXXXXXXXXXXXX",
".XXXXXoooooooooooooooooooooooooo",
".XXXXoOOOOOOOOOOOOOOOOOOOOOOOOOO",
".XXXoOO+++++++++++++++++++++++++",
".XXXoO+@@@@@@@@@@@@@@@@@@@@@@@@+",
".XXXoO+@#######################+",
".XXXoO+@@@@########++#++#++#++#+",
".XXXoO+@$$$$$$$@###++#++#++#++#+",
".XXXoO+@$+++++$@###@@#@@#@@#@@#+",
".XXXoO+@$+@@@+$@###############+",
".XXXoO+@$+@@@+$####@@#@@#@@#@@#+",
".XXXoO+@$+@@@+$@###+##+##+##+##+",
".XXXoO+@$+++++$@###############+",
".XXXoO+@$$$$$$$@++++++++++++++++",
".XXXoO+@########+@+@+@++@$$$$@@+",
".XXXoO+@@@@@@@##+++@+++@%%%%%%%+",
".XXXoO+@#@##+@#@@@++++@%%$$$$@@+",
".XXXoO+@#@##+@#@##@++@%%$+++++++",
".XXXoO+@#@#+@+@#@###+@%@++++++++",
".XXXoO+@@@@@@@@#@+##+@%@++++++++",
".XXXoO+@#@#+@+##@+##+@%@++++++++",
".XXXoO+@@@@@@###@+##+@%@++++++++",
".XXXoO+@########@+##+@%@++++++++",
".XXXoO+@++++@###@+##+@%@++++++++",
".XXXoO+@++++@###@+##+@%@++++++++",
".XXXoO+@########@+##+@%@++++++++",
".XXXoO+@########@+##+@%@++++++++",
".XXXoO+@#########+##+@+@++++++++",
".XXXoO+@#########+##++++++++++++"
};
