/* XPM */
static char *e1a92de6006643e3e458c5711149cd38UdH5F0AwEqY8mJC9[] = {
/* columns rows colors chars-per-pixel */
"32 32 11 1 ",
"  c #E3EEF3",
". c #696A6A",
"X c #CEE0E9",
"o c #A1BECC",
"O c #8198A3",
"+ c #1C2123",
"@ c #49565C",
"# c #333C40",
"$ c #576369",
"% c #273034",
"& c white",
/* pixels */
"                             ...",
"XXXXXXXXXXXXXXXXXXXXXXXXXXXXX ..",
"XXXXXXXXXXXXXXXXXXXXXXXXXXXXXX .",
"XXXXXXXXXXXXXXXXXXXXXXXXXXXXXX .",
"oooooooooooooooooooooooooXXXXX .",
"OOOOOOOOOOOOOOOOOOOOOOOOOoXXXX .",
"++++++++++++++++++++++++OOoXXX .",
"+@@@@@@@@@@@@@@@@@@@@@@@+OoXXX .",
"+######################@+OoXXX .",
"+#++#++#++#++######@@@@@+OoXXX .",
"+#++#++#++#++#####@$$$$@+OoXXX .",
"+#@@#@@#@@#@@####@+###$@+OoXXX .",
"+################@++++$@+OoXXX .",
"+#@@#@@#@@#@@####@++@+$@+OoXXX .",
"+##+##+##+##+###@@++@+$@+OoXXX .",
"+###############++++++$@+OoXXX .",
"+++++++++++++++++####++@+OoXXX .",
"+@@@@@@@@@++++++#######@+OoXXX .",
"+%%%%%%%%%@+++++##@@@@@@+OoXXX .",
"+%%%%%$$%%@+++@@@#@++##@+OoXXX .",
"++++++$$%%@++@##@#@+###@+OoXXX .",
"++++++@@%%@@+###@#@+###@+OoXXX .",
"+++++++@%%@++##+@#@@@@@@+OoXXX .",
"++++++@@%%@@+##+@######@+OoXXX .",
"+++++++@%%@++##+@#@@@@@@+OoXXX .",
"++++++@@%%@@+##+@######@+OoXXX .",
"+++++++@%%@++##+@#@++++@+OoXXX .",
"++++++@@%%@@+##+@#@++++@+OoXXX .",
"+++++++@%%@++##+@######@+OoXXX .",
"++++++@@%%@@+##+@######@+OoXXX .",
"+++++++@++@++##+#######@+OoXXX .",
"+++++++++++++++++++++++++OoXXX ."
};
