/* XPM */
static char *e26daef5751e42db98f7b880ac6fad0cjQX6EEsvdspFBdsl[] = {
/* columns rows colors chars-per-pixel */
"32 32 9 1 ",
"  c #151B1E",
". c #222C31",
"X c #30393E",
"o c #47555C",
"O c #566369",
"+ c #8299A4",
"@ c #A2BFCD",
"# c #CFE1EA",
"$ c #E4EEF3",
/* pixels */
"                XXXXXXXXo +@###$",
"       oooooo   XXXXXXXXo +@###$",
"       ......o  o XXXX  o +@###$",
"       ......o  XXXXXXXXo +@###$",
"       ...O..o  XXo XXXXo +@###$",
"       .. o..o  XXo XXXoo +@###$",
"       .. ...o  XXo XXXo  +@###$",
"       .. o..o  XXo XXXo  +@###$",
"       .. ...o  XXXXXXXo  +@###$",
"       .. o..o  ooooooooo +@###$",
"       .. o..o  XXXXo XXo +@###$",
"       .. o..o  XXXXo XXo +@###$",
"       .. o..o  XXXXo XXo +@###$",
"       .. o..o  XXXXo X o +@###$",
"       .. o..o  XXXXo XXo +@###$",
"       .. o..o  XXXXo X o +@###$",
"       .. o..o  XXXoo X o +@###$",
"       .. o..o  XXXo XX o +@###$",
"          o..o  XXXooXooo +@###$",
"       ......o  XXXXoXo   +@###$",
"       ......o  XXXXoXo   +@###$",
"       ..o  .o  XXXXoXo   +@###$",
"       ..o  .o  XXXXoXooo +@###$",
"       ..o  .o  X XXoXXXo +@###$",
"       ......o  X XXoXXXo +@###$",
"          XX              +@###$",
"         OXXXX            +@###$",
"         OXX..X  oXXXXXXX +@###$",
"         o....X  oXX X X  +@###$",
"         o....X  oX       +@###$",
"          ....   XXXXXXXo +@###$",
"                XXXXXXXXo +@###$"
};
