/* XPM */
static char *a819f1c15ad24b97d5345027a9c2d91aSA9LOH4OXyLGfwAi[] = {
/* columns rows colors chars-per-pixel */
"31 31 11 1 ",
"  c #151B1E",
". c #222C31",
"X c #30393E",
"o c #47555C",
"O c #687B83",
"+ c #8299A4",
"@ c #A2BFCD",
"# c #B0CEDC",
"$ c #B6D7E7",
"% c #CFE1EA",
"& c #E4EEF3",
/* pixels */
"                               ",
"                               ",
"                               ",
"                               ",
"                               ",
"                               ",
"                               ",
"                               ",
"                               ",
"                               ",
"  .....o oo  oO  oO  oO  o.....",
"  XXXXXo OO  Oo  Oo  Oo  oXXXXX",
"                               ",
"  .....o  o o o O O O O  o.....",
"  XXXXXo o o o  o o o o  oXXXXX",
"                               ",
"XXXXXXXXXXXX XXXXXXXXXXXXXXXXXX",
"XXXXXXXXXXXX      XXXXXXXXXXXXX",
"oooX oXX XXX XXXXX   XXXXXXXXXo",
"   XXXX o oX XX   XXXXXXooXoXX ",
"oooX oX o oX XXXXXXXXX X  XXXXX",
"   XXXX o    XXX    XX X  XoXXX",
"XXXX oXXXXXX XXXooooXX X  XoXX ",
"XXXXXXXXXXXX XXXXXXXXX X  XoXX ",
"oooooooooooo ooooooooooo  ooooo",
"                               ",
"++++++++++++++++++++++++++++++#",
"@@@@@@@@@@@@@@@@@@@@@@@@@@@@@@$",
"%%%%%%%%%%%%%%%%%%%%%%%%%%%%%%&",
"%%%%%%%%%%%%%%%%%%%%%%%%%%%%%%%",
"%%%%%%%%%%%%%%%%%%%%%%%%%%%%%%%"
};
