/* XPM */
static char *f4b63e065990406fa371c5045f54c26efByKzOfzCjWEWcTY[] = {
/* columns rows colors chars-per-pixel */
"32 32 10 1 ",
"  c #E3EEF3",
". c #CEE0E9",
"X c #A1BECC",
"o c #8198A3",
"O c #1C2123",
"+ c #49565C",
"@ c #333C40",
"# c #273034",
"$ c #576369",
"% c white",
/* pixels */
" ...XoO+@@@@@@@@OOOOOOOOOOOOOOOO",
" ...XoO+@@@@@@@@OOO++++++OOOOOOO",
" ...XoO+OO@@@@O+OO+######OOOOOOO",
" ...XoO+@@@@@@@@OO+######OOOOOOO",
" ...XoO+@@@@O+@@OO+##$###OOOOOOO",
" ...XoO++@@@O+@@OO+##+O##OOOOOOO",
" ...XoOO+@@@O+@@OO+###O##OOOOOOO",
" ...XoOO+@@@O+@@OO+##+O##OOOOOOO",
" ...XoOO+@@@@@@@OO+###O##OOOOOOO",
" ...XoO+++++++++OO+##+O##OOOOOOO",
" ...XoO+@@O+@@@@OO+##+O##OOOOOOO",
" ...XoO+@@O+@@@@OO+##+O##OOOOOOO",
" ...XoO+@@O+@@@@OO+##+O##OOOOOOO",
" ...XoO+O@O+@@@@OO+##+O##OOOOOOO",
" ...XoO+@@O+@@@@OO+##+O##OOOOOOO",
" ...XoO+O@O+@@@@OO+##+O##OOOOOOO",
" ...XoO+O@O++@@@OO+##+O##OOOOOOO",
" ...XoO+O@@O+@@@OO+##+O##OOOOOOO",
" ...XoO+++@++@@@OO+##+OOOOOOOOOO",
" ...XoOOO+@+@@@@OO+######OOOOOOO",
" ...XoOOO+@+@@@@OO+######OOOOOOO",
" ...XoOOO+@+@@@@OO+#OO+##OOOOOOO",
" ...XoO+++@+@@@@OO+#OO+##OOOOOOO",
" ...XoO+@@@+@@O@OO+#OO+##OOOOOOO",
" ...XoO+@@@+@@O@OO+######OOOOOOO",
" ...XoOOOOOOOOOOOOOO@@OOOOOOOOOO",
" ...XoOOOOOOOOOOOO@@@@$OOOOOOOOO",
" ...XoO@@@@@@@+OO@##@@$OOOOOOOOO",
" ...XoOO@O@O@@+OO@####+OOOOOOOOO",
" ...XoOOOOOOO@+OO@####+OOOOOOOOO",
" ...XoO+@@@@@@@OOO####OOOOOOOOOO",
" ...XoO+@@@@@@@@OOOOOOOOOOOOOOOO"
};
