/* XPM */
static char *Horm01_png1670536207[] = {
/* columns rows colors chars-per-pixel */
"32 32 15 1 ",
"  c #CEE0E9",
". c #65757D",
"X c #E3EEF3",
"o c #A1BECC",
"O c #B5D6E6",
"+ c #424F54",
"@ c #8198A3",
"# c #AFCDDB",
"$ c #2F373B",
"% c #1C2123",
"& c #49565C",
"* c #333C40",
"= c #273034",
"- c #687A82",
"; c white",
/* pixels */
"                               .",
"                               .",
"                               .",
"                              X.",
"ooooooooooooooooooooooooooooooO+",
"@@@@@@@@@@@@@@@@@@@@@@@@@@@@@@#$",
"%%%%%%%%%%%%%%%%%%%%%%%%%%%%%%%%",
"&&&&&&&&&&&&%&&&&&&&&&&&%%&&&&&%",
"************%*********%*%%*&**%%",
"****%&******%***&&&&**%*%%*&**%%",
"%%%****%&%%%%***%%%%**%*%%*&***%",
"&&&*%&*%&%&*%*********%*%%*****%",
"%%%****%&%&*%**%%%******&&*&**%%",
"&&&*%&**%***%*****%%%*********&%",
"************%%%%%%*************%",
"************%******************%",
"%%%%%%%%%%%%%%%%%%%%%%%%%%%%%%%%",
"%%*****&%&%&%&%%&%&%&%&%%&*****%",
"%%=====&%%&%&%&%-%-%-%-%%&=====%",
"%%%%%%%%%%%%%%%%%%%%%%%%%%%%%%%%",
"%%*****&%--%%-&%%-&%%-&%%&*****%",
"%%=====&%&&%%&-%%&-%%&-%%&=====%",
"%%%%%%%%%%%%%%%%%%%%%%%%%%%%%%%%",
"%%%%%%%%%%%%%%%%%%%%%%%%%%%%%%%%",
"%%%%%%%%%%%%%%%%%%%%%%%%%%%%%%%%",
"%%%%%%%%%%%%%%%%%%%%%%%%%%%%%%%%",
"%%%%%%%%%%%%%%%%%%%%%%%%%%%%%%%%",
"%%%%%%%%%%%%%%%%%%%%%%%%%%%%%%%%",
"%%%%%%%%%%%%%%%%%%%%%%%%%%%%%%%%",
"%%%%%%%%%%%%%%%%%%%%%%%%%%%%%%%%",
"%%%%%%%%%%%%%%%%%%%%%%%%%%%%%%%%",
"%%%%%%%%%%%%%%%%%%%%%%%%%%%%%%%%"
};
