/* XPM */
static char *_7f79d7f41784eefabd9a21d726cbdfc0fl1WyDIPh5c8ZaJ[] = {
/* columns rows colors chars-per-pixel */
"64 64 194 2 ",
"   c None",
".  c black",
"X  c #010100",
"o  c #020100",
"O  c #030200",
"+  c #030201",
"@  c #140C00",
"#  c #150D00",
"$  c #150D02",
"%  c #150E02",
"&  c #151105",
"*  c #161105",
"=  c #171205",
"-  c #161206",
";  c #171306",
":  c #171307",
">  c #181306",
",  c #1B1404",
"<  c #1E1706",
"1  c #211603",
"2  c #221703",
"3  c #211704",
"4  c #2A1A02",
"5  c #2C1C03",
"6  c #2E1F04",
"7  c #201908",
"8  c #201A08",
"9  c #221B08",
"0  c #231C08",
"q  c #231C09",
"w  c #241C09",
"e  c #241D09",
"r  c #251E09",
"t  c #2D250C",
"y  c #382505",
"u  c #392605",
"i  c #3F2803",
"p  c #30270D",
"a  c #32280C",
"s  c #33290D",
"d  c #3A2B0A",
"f  c #3C2C0A",
"g  c #3C300F",
"h  c #3D310F",
"j  c #422B05",
"k  c #432B05",
"l  c #432C05",
"z  c #442E06",
"x  c #462F06",
"c  c #4F3306",
"v  c #543807",
"b  c #543808",
"n  c #553A09",
"m  c #573A08",
"M  c #553D0D",
"N  c #5D3D08",
"B  c #423410",
"V  c #423510",
"C  c #433610",
"Z  c #433712",
"A  c #453711",
"S  c #443712",
"D  c #463811",
"F  c #473912",
"G  c #483A12",
"H  c #493A12",
"J  c #4C3D13",
"K  c #5E410B",
"L  c #544315",
"P  c #554415",
"I  c #564515",
"U  c #5A4411",
"Y  c #584717",
"T  c #5A4816",
"R  c #5B4917",
"E  c #5F4A15",
"W  c #5C4A17",
"Q  c #5D4B18",
"!  c #5E4B18",
"~  c #624109",
"^  c #624209",
"/  c #644209",
"(  c #63450C",
")  c #6D4708",
"_  c #6E4909",
"`  c #714A09",
"'  c #714B0A",
"]  c #754E0A",
"[  c #7E5209",
"{  c #634C15",
"}  c #604D18",
"|  c #614D18",
" . c #634F18",
".. c #624F19",
"X. c #6A5217",
"o. c #645019",
"O. c #655019",
"+. c #6D571B",
"@. c #735413",
"#. c #745513",
"$. c #715B1C",
"%. c #735C1C",
"&. c #725C1D",
"*. c #745D1D",
"=. c #775F1D",
"-. c #745D1E",
";. c #77601E",
":. c #78601D",
">. c #7A601C",
",. c #7C641F",
"<. c #86580B",
"1. c #86590C",
"2. c #885A0B",
"3. c #8A5B0B",
"4. c #8A5C0C",
"5. c #8B5C0C",
"6. c #8E5E0D",
"7. c #845C11",
"8. c #8E600E",
"9. c #91600D",
"0. c #93620D",
"q. c #91620F",
"w. c #94640F",
"e. c #87671C",
"r. c #9B6E16",
"t. c #A0781E",
"y. c #B17510",
"u. c #B17610",
"i. c #B27610",
"p. c #B27710",
"a. c #B37710",
"s. c #B47810",
"d. c #8D7023",
"f. c #8D7123",
"g. c #8E7123",
"h. c #8F7223",
"j. c #937422",
"k. c #957825",
"l. c #967825",
"z. c #977925",
"x. c #967826",
"c. c #9C7B25",
"v. c #A37E23",
"b. c #9F8027",
"n. c #9F8028",
"m. c #A48025",
"M. c #A18128",
"N. c #A68529",
"B. c #A78529",
"V. c #AA882A",
"C. c #AB882A",
"Z. c #AB892A",
"A. c #AA892B",
"S. c #AB892B",
"D. c #AB8A2B",
"F. c #AD8A2B",
"G. c #B08D2B",
"H. c #B78F2A",
"J. c #B18F2D",
"K. c #B38F2C",
"L. c #CC8C17",
"P. c #EAA31E",
"I. c #C09A2F",
"U. c #C19A2F",
"Y. c #CF9D29",
"T. c #D79A20",
"R. c #C09A30",
"E. c #C29B30",
"W. c #D9A329",
"Q. c #CEA533",
"!. c #CFA533",
"~. c #D9AA31",
"^. c #DFAE33",
"/. c #D9AE36",
"(. c #DAAF36",
"). c #DBAF36",
"_. c #DCB036",
"`. c #DFB237",
"'. c #DFB438",
"]. c #EFAD26",
"[. c #E7AA28",
"{. c #E8AF2D",
"}. c #E0B438",
"|. c #E1B538",
" X c #E1B539",
".X c #E6B839",
"XX c #E7B839",
"oX c #E8B939",
"OX c #E8BA39",
"+X c #E8BA3A",
"@X c #F0C03B",
"#X c #F8C73D",
"$X c #F8C73E",
"%X c #FCC93E",
/* pixels */
"                                                                                                                                ",
"                                                                                                                                ",
"                                                                                                                                ",
"                                                                                                                                ",
"                                                                                                                                ",
"                                                                                                                                ",
"                                                                                                                                ",
"                                                                                                                                ",
"                                                                                                                                ",
"                                                                                                                                ",
"                                                                                                                                ",
"                                                                                                                                ",
"                                                                                                                                ",
"                                                                                                                                ",
"                                                                                                                                ",
"                                                                                                                                ",
"                                                                                  . .                                           ",
"                                                                                . O . .                                         ",
"                                                                                9 e e <                                         ",
"                                                                              a H L P H a                                       ",
"                                                                          . * F %.f.f.%.F * .                                   ",
"                                                                        . . e Q z.I.I.z.W 0 + .                                 ",
"                                                                        * e V =.K.`.`.K.;.C e -                                 ",
"                                                                      t A R =.M.!.@X@X!.b.;.W Z a                               ",
"                                                                  . : V %.z.K.!.OX$X$XOX!.K.b.;.H 9 O                           ",
"                                                                . . e P f.R.`.@X$X%X%X#X@X`.H.f.L 9 O .                         ",
"                                                                % 2 d { j.R.`.@X$X%X%X$X@X`.H.f.L 9 . .                         ",
"                                                              5 x v ^ @.e.c.K.!.+X$X$X+X!.K.b.;.H 9 .                           ",
"                                                          . % j _ 5.q.7.@.X.:.n.!.@X@X!.M.=.R H p                               ",
"                                                        . . 2 v 5.y.y.8.K f V =.J. X XK.=.V e >                                 ",
"                                                        % 2 u ^ q.p.y.1.v 2 e Y z.H.I.z.W e . .                                 ",
"                                                      6 x b ^ ] <.q.2.) i % * V %.f.f.%.F * .                                   ",
"                                  . . . . . . . . . % x ' 3.q.<.] ^ v j 4     p H L L H p                                       ",
"                                O O . . . . . . . . 2 m 6.p.p.q.^ u 2 %         9 0 9 <                                         ",
"                                9 e e e e e 9 < < 2 y / 9.a.y.6.v 2 . .         . O O .                                         ",
"                              a J Y | o.o.| { U M b N ` <.0.6.' l % .             . .                                           ",
"                          . : F =.l.N.V.V.N.m.t.r.w.3.[ ' / b x 6                                                               ",
"                        . . e P f.I.). X'.).~.W.T.L.s.3.N u 2 %                                                                 ",
"                        : e h o.z.R.). X X_.^.{.].P.L.w.b 2 + .                                                                 ",
"                      s F P o.-.f.b.V.V.V.V.H.Y.[.].T.r.M < . .                                                                 ",
"                  O 9 J =.f.z.f.,.+.o.! ! o.:.m.Y.{.W.t.U < . .                                                                 ",
"                . . 0 Y l.I.R.v.+.h e - - e C >.H.).~.v.{ 9 . .                                                                 ",
"                . O e | N.).).C.o.e . . . . e  .V._.).N.| e . .                                                                 ",
"                . O e  .F..XXXG.| * . . . . > Q D.'.`.D.| e . .                                                                 ",
"                . . e  .F..X.XG.| > . . . . > Q D. X XD.o.e . .                                                                 ",
"                . O e | N.).).C.o.e . . . . e o.V._.).N.| e O .                                                                 ",
"                . . 0 Y l.I.R.M.+.h e > > e h +.n.E.R.z.R e O .                                                                 ",
"                  . 9 J =.f.l.f.,.+.o.| |  .+.,.f.z.f.-.J < .                                                                   ",
"                      s F P o.:.f.n.V.K.F.V.n.f.;.o.P F a                                                                       ",
"                        * e h o.z.E.).XXOX).E.z.o.g e *                                                                         ",
"                        . . 9 P f.R._.XX.X).H.h.P e . .                                                                         ",
"                          . : F %.z.N.F.F.N.c.;.F : .                                                                           ",
"                              s J Y { |  .| Y J a                                                                               ",
"                                9 e e e e e e 9                                                                                 ",
"                                . O O O O . O .                                                                                 ",
"                                  . . . . . .                                                                                   ",
"                                                                                                                                ",
"                                                                                                                                ",
"                                                                                                                                ",
"                                                                                                                                ",
"                                                                                                                                ",
"                                                                                                                                ",
"                                                                                                                                ",
"                                                                                                                                "
};
