/* XPM */
static char *fa93adcbd5bc4d8eeef7db9291a85babLxIbttg8VtKX5vot[] = {
/* columns rows colors chars-per-pixel */
"32 32 119 2 ",
"   c None",
".  c black",
"X  c #32280C",
"o  c #32280D",
"O  c #33290D",
"+  c #34290D",
"@  c #372C0D",
"#  c #372C0E",
"$  c #372D0E",
"%  c #382D0E",
"&  c #382D0F",
"*  c #382E0F",
"=  c #3A2E0E",
"-  c #3A2E0F",
";  c #3A2F0F",
":  c #3C300F",
">  c #3D300F",
",  c #3C310F",
"<  c #3D310F",
"1  c #3D3110",
"2  c #6A5318",
"3  c #6B5318",
"4  c #6B5419",
"5  c #6B561A",
"6  c #6B561B",
"7  c #6C561B",
"8  c #977825",
"9  c #977926",
"0  c #987A26",
"q  c #997A26",
"w  c #997B26",
"e  c #BF982F",
"r  c #BF992F",
"t  c #BF9A30",
"y  c #EFA61D",
"u  c #F0A61D",
"i  c #F0A71E",
"p  c #F4A91E",
"a  c #F5AA1E",
"s  c #F4AA1F",
"d  c #F5AB1F",
"f  c #CB9C2B",
"g  c #CC9E2C",
"h  c #CF9F2C",
"j  c #C09A30",
"k  c #C19A30",
"l  c #C19B30",
"z  c #C09B31",
"x  c #C19B31",
"c  c #C29B30",
"v  c #C29C30",
"b  c #C29C31",
"n  c #C39C31",
"m  c #D0A02C",
"M  c #CFA633",
"N  c #CFA634",
"B  c #D2A834",
"V  c #D2A935",
"C  c #D4A934",
"Z  c #D4AA35",
"A  c #E7A522",
"S  c #E7A623",
"D  c #E9A824",
"F  c #F2AC23",
"G  c #F5AF23",
"H  c #F3AF25",
"J  c #F4AE24",
"K  c #F5AF24",
"L  c #F4B026",
"P  c #F5B126",
"I  c #F8B427",
"U  c #F9B427",
"Y  c #F9B528",
"T  c #F7B92E",
"R  c #F8BA2F",
"E  c #F9BB2F",
"W  c #FCBD30",
"Q  c #FCBE30",
"!  c #FABF34",
"~  c #FAC034",
"^  c #FAC035",
"/  c #FBC337",
"(  c #FFC435",
")  c #FCC437",
"_  c #FFC536",
"`  c #FFC736",
"'  c #FFC837",
"]  c #FFC937",
"[  c #F2C23C",
"{  c #F2C33D",
"}  c #F4C33C",
"|  c #F5C53E",
" . c #FCC438",
".. c #FFC638",
"X. c #FFC738",
"o. c #FFC839",
"O. c #FFCA39",
"+. c #FFCB39",
"@. c #FFCB3A",
"#. c #FFCC3A",
"$. c #FEC93C",
"%. c #FECA3D",
"&. c #FFCC3E",
"*. c #FFCC3F",
"=. c #FFCD3F",
"-. c #FFD03E",
";. c #FFD13F",
":. c #FFD23F",
">. c #FFCD40",
",. c #FFCE40",
"<. c #FFCF40",
"1. c #FFCE41",
"2. c #FFD040",
"3. c #FFD140",
"4. c #FFD041",
"5. c #FFD141",
"6. c #FFD340",
"7. c #FFD341",
"8. c #FFD542",
/* pixels */
"                                                                ",
"                                                                ",
"                        . . . . . . . .                         ",
"                        % 1 1 : : 1 1 $                         ",
"                . . . X 8 v c t t v v q + . . .                 ",
"                % % % 7 Z ;.O.( ( ' ' m 4 % * $                 ",
"            . X 8 c t N { O.U p F d d S g v c 8 X .             ",
"            X 5 V 8.2.2.2.^ L u u i i G Q O.2.V 6 X             ",
"        . $ 8 B { 2.2.>.=.*.^ ! ^ ^ ! W G I O.| V 8 % .         ",
"        . : c 8.=.=.=.=.*.*.=.>.>.>.>.^ K F T O.8.v * .         ",
"        . % t 2.>.*.=.*.*.*.=.>.>.>.>.*. .T J L O.t * .         ",
"        X 5 M ;.>.*.*.*.*.*.*.*.=.>.>.>.>. .L J W g 5 +         ",
"    . % q C { =.=.=.*.*.*.*.*.*.*.*.*.*.>.*.^ W K S m q % .     ",
"    . : c 8.>.=.=.=.*.*.*.*.*.*.*.*.*.*.*.>.>.^ u p O.v 1 .     ",
"    . : c 2.2.=.=.*.*.*.*.*.*.*.*.*.*.*.=.>.>.^ i G ' v 1 .     ",
"    . : e 2.2.>.*.*.*.*.*.*.*.*.*.*.*.*.=.>.>.! u p ( t : .     ",
"    . : e ;.>.*.*.*.*.*.*.*.*.*.*.*.*.*.*.>.>.^ y i ( t 1 .     ",
"    . : c 8.2.*.*.*.*.*.*.*.*.*.*.*.*.*.*.>.>.^ u G ' v 1 .     ",
"    . : c 8.;.=.*.*.*.*.*.*.*.*.*.*.*.*.*.>.>.~ i p ' v 1 .     ",
"    . + q V { =.=.*.*.*.*.*.*.*.*.*.*.*.*.*.( E G S m w $ .     ",
"        + 4 V =.>.*.*.*.*.*.*.*.*.*.=.=.>./ L P Q g 4 +         ",
"        . % e 8.2.=.*.*.*.*.*.*.*.*.=.>.=.^ i d O.v * .         ",
"        . % c 8.>.=.*.*.*.*.=.=.*.*.*.>.>.^ y i ' c * .         ",
"        . $ 8 B { 2.2.>.=.*.*.=.*.*.^ / =.( Y D h 8 $ .         ",
"            + 4 B 8.2.2.=.=.>.=.>. .L L ..2.#.g 5 o             ",
"            . X q c e M { 2.2.2.2.( U S g c v q X .             ",
"                % % % 7 C 8.2.2.2.2.O.m 2 $ * %                 ",
"                . . . X q c v e t v v q + . . .                 ",
"                        % : : : : : : $                         ",
"                        . . . . . . . .                         ",
"                                                                ",
"                                                                "
};
