/* XPM */
static char *result[] = {
/* columns rows colors chars-per-pixel */
"48 32 114 2 ",
"   c #2C2512",
".  c #3A3219",
"X  c #4A3E1D",
"o  c #413920",
"O  c #4E4427",
"+  c #5B4F27",
"@  c #655627",
"#  c #615328",
"$  c #74602A",
"%  c #79642B",
"&  c #7E6B2C",
"*  c #7A6C41",
"=  c #7E7350",
"-  c #957E2F",
";  c #857131",
":  c #8B7331",
">  c #947D31",
",  c #937D3B",
"<  c #978031",
"1  c #9B8331",
"2  c #99843B",
"3  c #A48737",
"4  c #A48B32",
"5  c #AA8E35",
"6  c #A0873A",
"7  c #AB8D39",
"8  c #AE9333",
"9  c #B19633",
"0  c #B59A33",
"q  c #BB9E33",
"w  c #B4943B",
"e  c #B9973F",
"r  c #B7993A",
"t  c #BC9C3A",
"y  c #BCA034",
"u  c #BFA23A",
"i  c #C19F3E",
"p  c #C1A23D",
"a  c #988244",
"s  c #9E8B4B",
"d  c #8E8154",
"f  c #998950",
"g  c #A28B42",
"h  c #AC9245",
"j  c #A6904F",
"k  c #AB944C",
"l  c #B29643",
"z  c #BB9A42",
"x  c #B1984F",
"c  c #A08E53",
"v  c #A29053",
"b  c #A9975A",
"n  c #B89F50",
"m  c #B69F59",
"M  c #BDA242",
"N  c #BCA257",
"B  c #B9A259",
"V  c #BEAD70",
"C  c #B0A579",
"Z  c #C5A444",
"A  c #C9A646",
"S  c #C2A843",
"D  c #C5A64B",
"F  c #C8A74B",
"G  c #C4AA4C",
"H  c #CCAB4D",
"J  c #C4A451",
"K  c #C9A750",
"L  c #C4A854",
"P  c #CDAC51",
"I  c #C4AA5D",
"U  c #CCAE5B",
"Y  c #D1AF52",
"T  c #CFB055",
"R  c #CEB15C",
"E  c #D2B155",
"W  c #D3B45B",
"Q  c #C3AD66",
"!  c #CCB363",
"~  c #CFB960",
"^  c #C7B26D",
"/  c #CFB66A",
"(  c #D2B662",
")  c #D4B964",
"_  c #D9BB64",
"`  c #D5BB6B",
"'  c #D9BE6B",
"]  c #CDB976",
"[  c #D4BD72",
"{  c #D5C16E",
"}  c #DCC06C",
"|  c #D7C274",
" . c #DAC273",
".. c #DEC67A",
"X. c #DFC87C",
"o. c #E0C676",
"O. c #E0C779",
"+. c #E1CA7D",
"@. c #E4CD82",
"#. c #E7D085",
"$. c #E8D185",
"%. c #E6D28E",
"&. c #EBD58C",
"*. c #EDD88F",
"=. c #E7D697",
"-. c #EFDB94",
";. c #EFDD9A",
":. c #EBDEA2",
">. c #EEE3AD",
",. c #F2E3A4",
"<. c #F3E6AB",
"1. c #F0E4B0",
"2. c #F6EBB3",
"3. c None",
/* pixels */
"3.3.3.3.3.3.3.3.3.3.3.3.3.3.3.3.3.3.3.3.3.3.3.3.3.3.3.3.3.3.3.3.3.3.3.3.3.3.3.3.3.3.3.3.3.3.3.3.",
"3.3.3.3.3.3.3.3.3.3.3.3.3.3.3.3.3.3.3.3.3.3.3.3.3.3.3.3.3.3.3.3.3.3.3.3.3.3.3.3.3.3.3.3.3.3.3.3.",
"3.3.3.3.3.3.3.3.3.3.3.3.3.3.3.3.3.3.3.3.- - 1 1 1 1 > > 3.3.3.3.3.3.3.3.3.3.3.3.3.3.3.3.3.3.3.3.",
"3.3.3.3.3.3.3.3.3.3.3.3.3.3.3.3.3.3.< 4 8 9 q q q q 0 8 4 1 3.3.3.3.3.3.3.3.3.3.3.3.3.3.3.3.3.3.",
"3.3.3.3.3.3.3.3.3.3.3.3.3.3.3.3.< 4 0 p q q q q q q q q q 8 4 > 3.3.3.3.3.3.3.3.3.3.3.3.3.3.3.3.",
"3.3.3.3.3.3.3.3.3.3.3.3.3.3.3.1 8 y y G z q q q q q q q t 5 8 9 1 3.3.3.3.3.3.3.3.3.3.3.3.3.3.3.",
"3.3.3.3.3.3.3.3.3.3.3.3.3.3.1 0 y y q D e r q q q q q r z 7 1 y 0 1 3.3.3.3.3.3.3.3.3.3.3.3.3.3.",
"3.3.3.3.3.3.3.3.3.3.3.3.3.1 0 q y y 0 S F Z Z p i t 9 3 > & < q y 0 1 3.3.3.3.3.3.3.3.3.3.3.3.3.",
"3.3.3.3.3.3.3.3.3.3.3.3.< 9 y q q t F W _ H Z F H A 7 > ; # - q q y 9 1 3.3.3.3.3.3.3.3.3.3.3.3.",
"3.3.3.3.3.3.3.3.3.3.3.3.1 y y q M ) ' o.o.A F Y E H Z 3 $ : 5 q y q y 4 3.3.3.3.3.3.3.3.3.3.3.3.",
"3.3.3.3.3.3.3.3.3.3.3.< 9 y y u ` [ Q ' W i W _ Y Y Y D 6 8 e q y q y 0 1 3.3.3.3.3.3.3.3.3.3.3.",
"3.3.3.3.3.3.3.3.3.3.3.4 y y y M =.[ * m E K R m z H E E H 7 3 t q q y q 4 3.3.3.3.3.3.3.3.3.3.3.",
"3.3.3.3.3.3.3.3.3.3.- 8 y q y [ 1.[ j ` ' K a = # F _ _ _ D w t q q q y 8 > 3.3.3.3.3.3.3.3.3.3.",
"3.3.3.3.3.3.3.3.3.3.- 0 q q M ,.>.^ `  .o.R x c k ' @.@.@._ p i q q q q 0 1 3.3.3.3.3.3.3.3.3.3.",
"3.3.3.3.3.3.3.3.3.3.1 0 y q ( 2.C o O b ..' ' ' o.@.@.@.@. .A Z q q q y q 1 3.3.3.3.3.3.3.3.3.3.",
"3.3.3.3.3.3.3.3.3.3.1 q y q { <.d   . f .. .+.@.@.@.@.@.@.O.A A q q y y y 1 3.3.3.3.3.3.3.3.3.3.",
"3.3.3.3.3.3.3.3.3.3.1 q y y { ,.f X + Q [ ) O.@.@.@.@.@.@.o.Z A p q q q q 1 3.3.3.3.3.3.3.3.3.3.",
"3.3.3.3.3.3.3.3.3.3.1 0 y y ~ <.V @ # c I h / @.@.@.&.&.@.W i Z p q q q q 1 3.3.3.3.3.3.3.3.3.3.",
"3.3.3.3.3.3.3.3.3.3.< 0 y y G ;.%.s ; , , , ! @.%.&.&.#.o.Z i i Z i q q q 1 3.3.3.3.3.3.3.3.3.3.",
"3.3.3.3.3.3.3.3.3.3.< 8 y y y +.-.X.! ( ` [ @.@.%.*.&.@.W t w r p p q q 9 - 3.3.3.3.3.3.3.3.3.3.",
"3.3.3.3.3.3.3.3.3.3.3.4 q q q W #.&.$.+.@.@.#.&.*.%.@.+.F 7 7 t A p q q 4 3.3.3.3.3.3.3.3.3.3.3.",
"3.3.3.3.3.3.3.3.3.3.3.1 0 y y } _ o.&.&.*.*.&.&.+.` O.@.R 5 z E U t q q 1 3.3.3.3.3.3.3.3.3.3.3.",
"3.3.3.3.3.3.3.3.3.3.3.3.4 q p  .o.) _  .o.[ _ U W ' +.+.! L ` | ! t y 4 3.3.3.3.3.3.3.3.3.3.3.3.",
"3.3.3.3.3.3.3.3.3.3.3.3.< 0 p  .+.O._ P F D U )  .[ | | } X.+...U q 9 1 3.3.3.3.3.3.3.3.3.3.3.3.",
"3.3.3.3.3.3.3.3.3.3.3.3.3.1 G +.+.@.' K F R  .|  .[ [  .+.@.@.| K w 4 3.3.3.3.3.3.3.3.3.3.3.3.3.",
"3.3.3.3.3.3.3.3.3.3.3.3.3.3.k  .+.+.' D R  . .|  . ...X.@.@.@.U l 1 3.3.3.3.3.3.3.3.3.3.3.3.3.3.",
"3.3.3.3.3.3.3.3.3.3.3.3.3.3.3.k [ o.) ( | | | | +.+.@.@.@.@.! w 1 3.3.3.3.3.3.3.3.3.3.3.3.3.3.3.",
"3.3.3.3.3.3.3.3.3.3.3.3.3.3.3.3.g n P ) '  .| X.@.@.@.@.@.` h > 3.3.3.3.3.3.3.3.3.3.3.3.3.3.3.3.",
"3.3.3.3.3.3.3.3.3.3.3.3.3.3.3.3.3.3.6 l U | X.@.+.+.[ ! m g 3.3.3.3.3.3.3.3.3.3.3.3.3.3.3.3.3.3.",
"3.3.3.3.3.3.3.3.3.3.3.3.3.3.3.3.3.3.3.3.2 g j x x k a 2 3.3.3.3.3.3.3.3.3.3.3.3.3.3.3.3.3.3.3.3.",
"3.3.3.3.3.3.3.3.3.3.3.3.3.3.3.3.3.3.3.3.3.3.3.3.3.3.3.3.3.3.3.3.3.3.3.3.3.3.3.3.3.3.3.3.3.3.3.3.",
"3.3.3.3.3.3.3.3.3.3.3.3.3.3.3.3.3.3.3.3.3.3.3.3.3.3.3.3.3.3.3.3.3.3.3.3.3.3.3.3.3.3.3.3.3.3.3.3."
};
