/* XPM */
static char *result[] = {
/* columns rows colors chars-per-pixel */
"16 28 9 1 ",
"  c #222222",
". c #3D734F",
"X c #DA4E38",
"o c #4BA747",
"O c #EE8E2E",
"+ c #FACB3E",
"@ c #5698CC",
"# c #FCCBA3",
"$ c None",
/* pixels */
"$$$$$$$$$$$$$$$$",
"$$$$$$$$$$$$$$$$",
"$$$$$$$$$$$$$$$$",
"$$$$$$$$$$$$$$$$",
"$$$$$$$$$$$$$$$$",
"$$$$$$$$$$$$$$$$",
"$$$$$$$$$$$$$$$$",
"$$$$$$$$$$$$$$$$",
"$$$$$$$$$$$$$$$$",
"$$$$$$$$$$$$$$$$",
"$$$$$$$$$$$$$$$$",
"$$$$$       $$$$",
"$$$$ OOOOO++  $$",
"$$$ O+++++++++ $",
"$$ O++++++++O+ $",
"$ XXXO######O$ $",
"$ XXX#@@###@ $$$",
"$ XXX#@@###@ $$$",
"$$ O+####### $$$",
"$$ O++###### $$$",
"$ OO+++..#..O $$",
" OO++o+oooooOO $",
"     ooooooo   $",
"$$$ ooooooo $$$$",
"$$$ ooooooo $$$$",
"$$ oooooooo $$$$",
"$ ......... $$$$",
"$          $$$$$"
};
