/* XPM */
static char *_f7ce4c7fcfe4d5c9c4818c9c8a40a17oltCL9TKXuaMs3IR[] = {
/* columns rows colors chars-per-pixel */
"64 64 106 2 ",
"   c black",
".  c #0D0C09",
"X  c #28251D",
"o  c #373227",
"O  c #363227",
"+  c #353126",
"@  c #7E755B",
"#  c #ADA07D",
"$  c #AB9F7C",
"%  c #A99C7A",
"&  c #EDDBAB",
"*  c #EBD9A9",
"=  c #E7D6A7",
"-  c #E9D7A8",
";  c #E5D4A5",
":  c #E2D1A3",
">  c #E2D2A4",
",  c #E3D2A4",
"<  c #E3D3A5",
"1  c #E3D3A4",
"2  c #DFCC9F",
"3  c #DAC296",
"4  c #D7BD91",
"5  c #D7BE92",
"6  c #D7BD92",
"7  c #D8BF93",
"8  c #DBC497",
"9  c #DCC699",
"0  c #DEC99C",
"q  c #E1CEA1",
"w  c #DAC396",
"e  c #C9A37A",
"r  c #C0946C",
"t  c #C1956D",
"y  c #C49B73",
"u  c #CCA97F",
"i  c #D0AF85",
"p  c #D4B88D",
"a  c #D8C094",
"s  c #C49B72",
"d  c #BA8861",
"f  c #BA8862",
"g  c #BB8963",
"h  c #BA8963",
"j  c #BB8A63",
"k  c #BC8D65",
"l  c #BD8E66",
"z  c #BD8D65",
"x  c #C1946C",
"c  c #C8A278",
"v  c #CBA87E",
"b  c #CAA57C",
"n  c #DBC498",
"m  c #C49A72",
"M  c #C59C73",
"N  c #C59B73",
"B  c #C69F76",
"V  c #CAA67B",
"C  c #CCAA7D",
"Z  c #CEAC7F",
"A  c #D0B184",
"S  c #CFAF83",
"D  c #DCC79A",
"F  c #D0B086",
"G  c #CAA67D",
"H  c #CAA57D",
"J  c #CBA67D",
"K  c #CFAE82",
"L  c #D3B688",
"P  c #D5BA8A",
"I  c #D5B98A",
"U  c #CAA47C",
"Y  c #CAA67C",
"T  c #D0B084",
"R  c #D3B587",
"E  c #D4B889",
"W  c #D4B98A",
"Q  c #DCC69A",
"!  c #D0B085",
"~  c #C9A47B",
"^  c #CAA47B",
"/  c #CCA87E",
"(  c #CEAD82",
")  c #D2B587",
"_  c #D4B989",
"`  c #D0B083",
"'  c #D4B789",
"]  c #CBA77E",
"[  c #CBA77D",
"{  c #CFAF85",
"}  c #D1B385",
"|  c #DDC79A",
" . c #D1B388",
".. c #CEAC81",
"X. c #D2B486",
"o. c #DECA9C",
"O. c #D5BA8D",
"+. c #DFCB9D",
"@. c #D7BE8F",
"#. c #D4B788",
"$. c #D3B788",
"%. c #DFCC9E",
"&. c #DAC394",
"*. c #D8BE90",
"=. c #E1D0A1",
"-. c white",
/* pixels */
"                                                                                                                                ",
"  . X o O + + + + + + + + + + + + + + + + + + + + + + + + + + + + + + + + + + + + + + + + + + + + + + + + + + + + + + O o X .   ",
"  X @ # $ % % % % % % % % % % % % % % % % % % % % % % % % % % % % % % % % % % % % % % % % % % % % % % % % % % % % % % $ # @ X   ",
"  o # & * = = = = = = = = = = = = = = = = = = = = = = = = = = = = = = = = = = = = = = = = = = = = = = = = = = = = = = * & # o   ",
"  O $ * - ; ; ; ; ; ; ; ; ; ; ; ; ; ; ; ; ; ; ; ; ; ; ; ; ; ; ; ; ; ; ; ; ; ; ; ; ; ; ; ; ; ; ; ; ; ; ; ; ; ; ; ; ; ; - * $ O   ",
"  + % = ; : : : : : : : : : : : : : : : : : : : : : : : : : : : : : : : : : : : : : : : : : : : : : : : : : : : : : : ; = % +   ",
"  + % = ; : : : : : : : : : : : : : : : : : : : : : : : : : : : : : : : : : : : : : : : : : : : : : : : : : : : : : : ; = % +   ",
"  + % = ; : : : : : > , , , , , , , , , , , , , , , , , , , , , , , , , , , , , , , , , , , , , , , > > > : : : : : : ; = % +   ",
"  + % = ; : : : : : , < < < < < < < < < < < < < < < < < < < < < < < < < < < < < < < < < < < < < < 1 , , , > : : : : : ; = % +   ",
"  + % = ; : : : : 2 3 4 4 5 5 5 5 5 5 5 5 5 5 5 5 5 5 5 5 5 5 5 5 5 5 5 5 5 5 5 5 5 5 5 5 5 6 4 4 7 8 9 9 0 q : : : : ; = % +   ",
"  + % = ; : : > , w e r r t t t t t t t t t t t t t t t t t t t t t t t t t t t t t t t t t t r r y u i i p 0 > : : : ; = % +   ",
"  + % = ; : : , < a s d f g g g g g g g g g g g g g g g g g g g g g g g g g g g g g g g h j k l z x c v b i 9 , > : : ; = % +   ",
"  + % = ; : : > , n u m y M M M M M M M M M M M M M M M M M M M M M M M M M M M M M M N y B V C C Z A S v i 9 , > : : ; = % +   ",
"  + % = ; : : > , D F b b G G G G G G G G G G G G G G G G G G G G G G G G G G G G G H J u K L P I I I A c u 8 , > : : ; = % +   ",
"  + % = ; : : > , D F U b Y Y Y Y Y Y Y Y Y Y Y Y Y Y Y Y Y Y Y Y Y Y Y Y Y Y Y Y b b u T R E W W I I Z x y 7 1 , : : ; = % +   ",
"  + % = ; : : > , Q ! ~ ^ b b b b b b b b b b b b b b b b b b b b b b b b b b b b Y / ( ) _ E E E W I C z r 4 < , : : ; = % +   ",
"  + % = ; : : > , Q ! ~ ^ b b b b b b b b b b b b b b b b b b b b b b b b b b b U / ` ) ' E E E E W P C l r 4 < , : : ; = % +   ",
"  + % = ; : : > , Q ! ~ ^ b b b b b b b b b b b b b b b b b b b b b b b b b b Y / ( ) _ E E E E E E L V k t 6 < , : : ; = % +   ",
"  + % = ; : : > , Q ! ~ ^ b b b b b b b b b b b b b b b b b b b b b b b b b U / ` ) ' E E E E E _ R K B j t 5 < , : : ; = % +   ",
"  + % = ; : : > , Q ! ~ ^ b b b b b b b b b b b b b b b b b b b b b b b b Y / ( ) _ E E E E E ' ) T u y h t 5 < , : : ; = % +   ",
"  + % = ; : : > , Q ! ~ ^ b b b b b b b b b b b b b b b b b b b b b b b U / ` ) ' E E E E E _ ) ( u J N g t 5 < , : : ; = % +   ",
"  + % = ; : : > , Q ! ~ ^ b b b b b b b b b b b b b b b b b b b b b b Y / ( ) _ E E E E E ' ) ` / b H M g t 5 < , : : ; = % +   ",
"  + % = ; : : > , Q ! ~ ^ b b b b b b b b b b b b b b b b b b b b b U / ` ) ' E E E E E _ ) ( / Y b G M g t 5 < , : : ; = % +   ",
"  + % = ; : : > , Q ! ~ ^ b b b b b b b b b b b b b b b b b b b b Y / ( ) _ E E E E E ' ) ` / U b Y G M g t 5 < , : : ; = % +   ",
"  + % = ; : : > , Q ! ~ ^ b b b b b b b b b b b b b b b b b b b U / ` ) ' E E E E E _ ) ( / Y b b Y G M g t 5 < , : : ; = % +   ",
"  + % = ; : : > , Q ! ~ ^ b b b b b b b b b b b b b b b b b b Y / ( ) _ E E E E E ' ) ` / U b b b Y G M g t 5 < , : : ; = % +   ",
"  + % = ; : : > , Q ! ~ ^ b b b b b b b b b b b b b b b b b U / ` ) ' E E E E E _ ) ( / Y b b b b Y G M g t 5 < , : : ; = % +   ",
"  + % = ; : : > , Q ! ~ ^ b b b b b b b b b b b b b b b b Y / ( ) _ E E E E E ' ) ` / U b b b b b Y G M g t 5 < , : : ; = % +   ",
"  + % = ; : : > , Q ! ~ ^ b b b b b b b b b b b b b b b U / ` ) ' E E E E E _ ) ( / Y b b b b b b Y G M g t 5 < , : : ; = % +   ",
"  + % = ; : : > , Q ! ~ ^ b b b b b b b b b b b b b b Y / ( ) _ E E E E E ' ) ` / U b b b b b b b Y G M g t 5 < , : : ; = % +   ",
"  + % = ; : : > , Q ! ~ ^ b b b b b b b b b b b b b U / ` ) ' E E E E E _ ) ( / Y b b b b b b b b Y G M g t 5 < , : : ; = % +   ",
"  + % = ; : : > , Q ! ~ ^ b b b b b b b b b b b b Y / ( ) _ E E E E E ' ) ` / U b b b b b b b b b Y G M g t 5 < , : : ; = % +   ",
"  + % = ; : : > , Q ! ~ ^ b b b b b b b b b b b U / ` ) ' E E E E E _ ) ( / Y b b b b b b b b b b Y G M g t 5 < , : : ; = % +   ",
"  + % = ; : : > , Q ! ~ ^ b b b b b b b b b b Y / ( ) _ E E E E E ' ) ` / U b b b b b b b b b b b Y G M g t 5 < , : : ; = % +   ",
"  + % = ; : : > , Q ! ~ ^ b b b b b b b b b U / ` ) ' E E E E E _ ) ( / Y b b b b b b b b b b b b Y G M g t 5 < , : : ; = % +   ",
"  + % = ; : : > , Q ! ~ ^ b b b b b b b b Y / ( ) _ E E E E E ' ) ` / U b b b b b b b b b b b b b Y G M g t 5 < , : : ; = % +   ",
"  + % = ; : : > , Q ! ~ ^ b b b b b b b U / ` ) ' E E E E E _ ) ( / Y b b b b b b b b b b b b b b Y G M g t 5 < , : : ; = % +   ",
"  + % = ; : : > , Q ! ~ ^ b b b b b b Y / ( ) _ E E E E E ' ) ` / U b b b b b b b b b b b b b b b Y G M g t 5 < , : : ; = % +   ",
"  + % = ; : : > , Q ! ~ ^ b b b b b U / ` ) ' E E E E E _ ) ( / Y b b b b b b b b b b b b b b b b Y G M g t 5 < , : : ; = % +   ",
"  + % = ; : : > , Q ! ~ ^ b b b b Y / ( ) _ E E E E E ' ) ` / U b b b b b b b b b b b b b b b b b Y G M g t 5 < , : : ; = % +   ",
"  + % = ; : : > , Q ! ~ ^ b b b U / ` ) ' E E E E E _ ) ( / Y b b b b b b b b b b b b b b b b b b Y G M g t 5 < , : : ; = % +   ",
"  + % = ; : : > , Q ! ~ ^ b b Y / ( ) _ E E E E E ' ) ` / U b b b b b b b b b b b b b b b b b b b Y G M g t 5 < , : : ; = % +   ",
"  + % = ; : : > , Q ! ~ ^ b U / ` ) ' E E E E E _ ) ( / Y b b b b b b b b b b b b b b b b b b b b Y G M g t 5 < , : : ; = % +   ",
"  + % = ; : : > , Q ! ~ ~ Y / ( ) _ E E E E E ' ) ` / U b b b b b b b b b b b b b b b b b b b b b Y G M g t 5 < , : : ; = % +   ",
"  + % = ; : : > , Q ! ~ ~ / ` ) ' E E E E E _ ) ( / Y b b b b b b b b b b b b b b b b b b b b b b Y G M g t 5 < , : : ; = % +   ",
"  + % = ; : : > , Q ! b ] ( ) _ E E E E E ' ) ` / U b b b b b b b b b b b b b b b b b b b b b b b Y G M g t 5 < , : : ; = % +   ",
"  + % = ; : : > , 9 i [ S ) ' E E E E E _ ) ( / Y b b b b b b b b b b b b b b b b b b b b b b b b Y G M g t 5 < , : : ; = % +   ",
"  + % = ; : : > , 9 { / } W E E E E E ' ) ` / U b b b b b b b b b b b b b b b b b b b b b b b b b Y G M g t 5 < , : : ; = % +   ",
"  + % = ; : : > , 9 { / } _ E E E E _ ) ( / Y b b b b b b b b b b b b b b b b b b b b b b b b b b Y G M g t 5 < , : : ; = % +   ",
"  + % = ; : : > , |  ...X.E E E E ' ) ` / U b b b b b b b b b b b b b b b b b b b b b b b b b b b Y G M g t 5 < , : : ; = % +   ",
"  + % = ; : : : > o.O.X.L E E E _ ) ( / Y b b b b b b b b b b b b b b b b b b b b b b b b b b b b Y G M g t 5 < , : : ; = % +   ",
"  + % = ; : : : > +.@.#.#.E E $.X.S ] ~ ~ ^ ^ ^ ^ ^ ^ ^ ^ ^ ^ ^ ^ ^ ^ ^ ^ ^ ^ ^ ^ ^ ^ ^ ^ ^ ^ ^ ^ b b y f r 4 < , : : ; = % +   ",
"  + % = ; : : : > +.@.$.$.E E X...[ b ~ ~ ~ ~ ~ ~ ~ ~ ~ ~ ~ ~ ~ ~ ~ ~ ~ ~ ~ ~ ~ ~ ~ ~ ~ ~ ~ ~ ~ ~ U b m d r 4 < , : : ; = % +   ",
"  + % = ; : : : : %.&.@.@.@.*.O. .{ i ! ! ! ! ! ! ! ! ! ! ! ! ! ! ! ! ! ! ! ! ! ! ! ! ! ! ! ! ! ! F F u s e 3 , > : : ; = % +   ",
"  + % = ; : : : : =.%.+.+.+.+.o.| 9 9 Q Q Q Q Q Q Q Q Q Q Q Q Q Q Q Q Q Q Q Q Q Q Q Q Q Q Q Q Q Q D D n a w 2 : : : : ; = % +   ",
"  + % = ; : : : : : : > > > > > , , , , , , , , , , , , , , , , , , , , , , , , , , , , , , , , , , , , < , : : : : : ; = % +   ",
"  + % = ; : : : : : : : : : : : > > > > > > > > > > > > > > > > > > > > > > > > > > > > > > > > > > > > , > : : : : : ; = % +   ",
"  + % = ; : : : : : : : : : : : : : : : : : : : : : : : : : : : : : : : : : : : : : : : : : : : : : : : : : : : : : : ; = % +   ",
"  + % = ; : : : : : : : : : : : : : : : : : : : : : : : : : : : : : : : : : : : : : : : : : : : : : : : : : : : : : : ; = % +   ",
"  O $ * - ; ; ; ; ; ; ; ; ; ; ; ; ; ; ; ; ; ; ; ; ; ; ; ; ; ; ; ; ; ; ; ; ; ; ; ; ; ; ; ; ; ; ; ; ; ; ; ; ; ; ; ; ; ; - * $ O   ",
"  o # & * = = = = = = = = = = = = = = = = = = = = = = = = = = = = = = = = = = = = = = = = = = = = = = = = = = = = = = * & # o   ",
"  X @ # $ % % % % % % % % % % % % % % % % % % % % % % % % % % % % % % % % % % % % % % % % % % % % % % % % % % % % % % $ # @ X   ",
"  . X o O + + + + + + + + + + + + + + + + + + + + + + + + + + + + + + + + + + + + + + + + + + + + + + + + + + + + + + O o X .   ",
"                                                                                                                                "
};
