/* XPM */
static char *result[] = {
/* columns rows colors chars-per-pixel */
"64 64 256 2 ",
"   c #020202",
".  c #0B0B0C",
"X  c #070507",
"o  c #0E0D12",
"O  c #0E1116",
"+  c #131215",
"@  c #15151A",
"#  c #18171C",
"$  c #1A191D",
"%  c #1B1515",
"&  c #13100F",
"*  c #221C1D",
"=  c #2C251C",
"-  c #1B1B21",
";  c #111631",
":  c #222223",
">  c #2B2B2B",
",  c #232229",
"<  c #373737",
"1  c #2F2D33",
"2  c #1D202D",
"3  c #493C2F",
"4  c #574836",
"5  c #55432D",
"6  c #61513F",
"7  c #2A334A",
"8  c #293567",
"9  c #101163",
"0  c #41385E",
"q  c #24486E",
"w  c #494849",
"e  c #575758",
"r  c #504E50",
"t  c #6A5745",
"y  c #725E4C",
"u  c #715D53",
"i  c #77624E",
"p  c #7C6553",
"a  c #686057",
"s  c #51546A",
"d  c #686869",
"f  c #777777",
"g  c #6C6C74",
"h  c #6A5E6D",
"j  c #846B57",
"k  c #8B735C",
"l  c #8C7155",
"z  c #947C64",
"x  c #8C7768",
"c  c #ED7555",
"v  c #E15E69",
"b  c #FF7E3C",
"n  c #FC8F12",
"m  c #FDA812",
"M  c #FCB715",
"N  c #FCAB0D",
"B  c #FB952D",
"V  c #FCB334",
"C  c #FACC16",
"Z  c #FBD031",
"A  c #FCF03A",
"S  c #FDEC1A",
"D  c #9C836A",
"F  c #89867D",
"G  c #A4896D",
"H  c #A88D73",
"J  c #AD9277",
"K  c #B69A7C",
"L  c #AC916F",
"P  c #9C805E",
"I  c #F58B4B",
"U  c #F9AF4C",
"Y  c #E7926F",
"T  c #E19367",
"R  c #FDD152",
"E  c #FBEF50",
"W  c #FCF66D",
"Q  c #FECC6E",
"!  c #070689",
"~  c #110D89",
"^  c #131284",
"/  c #13118B",
"(  c #070997",
")  c #120C9A",
"_  c #091699",
"`  c #13149D",
"'  c #121897",
"]  c #0B1882",
"[  c #14279B",
"{  c #363297",
"}  c #0B06A8",
"|  c #110BA9",
" . c #0E15A9",
".. c #1315A2",
"X. c #141AA7",
"o. c #0C0AB6",
"O. c #120DB3",
"+. c #1108B7",
"@. c #0D16BA",
"#. c #1213B4",
"$. c #1114BC",
"%. c #121BBD",
"&. c #161BB7",
"*. c #1728A7",
"=. c #1836AA",
"-. c #0C29B7",
";. c #1528B7",
":. c #1737B9",
">. c #0B2DAB",
",. c #2D2FB6",
"<. c #231AB8",
"1. c #5232A3",
"2. c #304F8D",
"3. c #1847B9",
"4. c #1547B4",
"5. c #2146B8",
"6. c #2B50B3",
"7. c #2C66AF",
"8. c #534C91",
"9. c #6F7286",
"0. c #4E4DB5",
"q. c #4F78B1",
"w. c #6D5CA7",
"e. c #0B19C5",
"r. c #111AC4",
"t. c #0D25C8",
"y. c #122CCA",
"u. c #1327C5",
"i. c #0D38C9",
"p. c #1736C8",
"a. c #0C39D4",
"s. c #1133D2",
"d. c #113CD3",
"f. c #193BD5",
"g. c #0F2BD2",
"h. c #233AC8",
"j. c #2D37C9",
"k. c #163AE8",
"l. c #1647C9",
"z. c #0C44D9",
"x. c #1243D4",
"c. c #164AD8",
"v. c #1555D9",
"b. c #1554CA",
"n. c #2648C9",
"m. c #2656C8",
"M. c #3558CB",
"N. c #2448D4",
"B. c #2858D8",
"V. c #354FD2",
"C. c #1764DC",
"Z. c #1E6DD7",
"A. c #2A66CB",
"S. c #2B65D6",
"D. c #3468D8",
"F. c #3776DB",
"G. c #316FD2",
"H. c #1959E3",
"J. c #124FE9",
"K. c #275CE4",
"L. c #3058E9",
"P. c #1668E4",
"I. c #1878E7",
"U. c #1968ED",
"Y. c #2864E6",
"T. c #3368E8",
"R. c #2876E5",
"E. c #3674EA",
"W. c #4C53C7",
"Q. c #4478DC",
"!. c #5677D8",
"~. c #4E6BD5",
"^. c #6E72CE",
"/. c #5172E5",
"(. c #6162DE",
"). c #9066AC",
"_. c #A570AE",
"`. c #A55A95",
"'. c #9278C5",
"]. c #B0568F",
"[. c #76828D",
"{. c #3281DA",
"}. c #1C85EC",
"|. c #3B86E4",
" X c #3393EE",
".X c #38A6F7",
"XX c #5287DB",
"oX c #708DDC",
"OX c #4388E5",
"+X c #4696EA",
"@X c #5897E8",
"#X c #4E8AE9",
"$X c #6D97E4",
"%X c #56A9F1",
"&X c #4FA9F1",
"*X c #76B6EC",
"=X c #6AB3F1",
"-X c #7AC4F3",
";X c #2885BE",
":X c #868688",
">X c #99999A",
",X c #908A95",
"<X c #B99C82",
"1X c #A6958F",
"2X c #BBA38B",
"3X c #A4A4A4",
"4X c #ABABAB",
"5X c #B6B6B7",
"6X c #AFAEB3",
"7X c #A398AA",
"8X c #D58F8F",
"9X c #C7A888",
"0X c #D8B796",
"qX c #CFAE90",
"wX c #E7BA95",
"eX c #C9B6A8",
"rX c #DC9CB3",
"tX c #F0C997",
"yX c #FAF78C",
"uX c #EAC7A5",
"iX c #F8D7B3",
"pX c #F3D1AB",
"aX c #FEE9B6",
"sX c #CEC5BC",
"dX c #8991D8",
"fX c #A9AAD7",
"gX c #ABB5D9",
"hX c #B4B5C6",
"jX c #869BE7",
"kX c #85A5E7",
"lX c #8FB4EA",
"zX c #ADB9E3",
"xX c #B0B3EB",
"cX c #A896DE",
"vX c #D7ADE2",
"bX c #BAC2C9",
"nX c #90CCF6",
"mX c #B4C8E9",
"MX c #B9C6F6",
"NX c #B1D2F2",
"BX c #A2E4FC",
"VX c #C9C8C9",
"CX c #D8D8D8",
"ZX c #CECBD2",
"AX c #E7D5CB",
"SX c #FEF1CB",
"DX c #C9CBE6",
"FX c #C6CAFC",
"GX c #D6DAF7",
"HX c #CED7F0",
"JX c #D9E7F7",
"KX c #E6E6E7",
"LX c #FFFFFF",
"PX c #F5F5F6",
"IX c #EEEEF7",
"UX c #F0D5E5",
/* pixels */
"LXfX! ` ..` ` ` ` ` ` ` ( ` >.` ........| ` *.*.` X.*.` ` ..*.,.*.` ` X.` ` ....` *.,.' X.X.` ` X...) ` ;.=.*.[ X.X.&.*.X.X.[ ` ",
"LXmX_ ' ;. .;.&.&.-.| ) :.P.x.r.r.u.t.r.p.p.+XOXF.B.E.l.O.u.%X@X=XQ.#.c.u.u.t.t.t.n.D.p.p.p.p.p.h.h.S. X+X XT.L.D.T.T.Y.T.T.D.` ",
"LXNX4.! >.#. .@.@.-.>.v.H.r.r.r.r.r.r.B.&XD.D.f.E.B.OXv.$.p.%X=X%XD.$.l.y.u.y.t.y.t.t.y.y.u.u.l.R..X XE.L.H.K.Y.L.T.Y.T.L./.L.` ",
"LXmX3.' >.%. . . .v.P.p.@.e.r.e.u.p.e.S.S.y.E.l.F.B.F.S.@.N.%XV.$.o.@.d.i.%.u.y.t.y.u.%.p.B. X.X|.Y.H.K.H.Y.Y.K.Y.H.Y.T.T.T.T.` ",
"LXfXb.[ _ ;.} :.C.l.-.@.%.@.u.u.p.F.e.f.S.l.|.&X+XS.D.R.u.&.$.o.$.%.@.p.l.r.u.t.u.t.l.R. X XU.c.c.v.H.K.H.K.Y.U.W.).Q.Y.T.T.L.` ",
"LXfX( ' ! :.v.b.' ! p.%.%.@.p.B.N. Xe.u.+XOX|.B.|.F.B.R.i.+.$.$.%.r.$.y.l.$.@.u.v.}. XI.v.x.c.v.H.H.H.H.H.H.H.w.T Q gXT.Y.T.T...",
"LXfX9 _ 4.C.[ ! ) ' ;.%.r.e.m.q.8.q.,.%.B.S.+XN.F.|.D.T.i.o.$.$.r.%.r.$.l.p.I.}.}.H.a.z.z.J.v.J.J.v.H.H. X*X_.c E R hXOXB.E.L.' ",
"LXfX .v.i.;.' ' ) ) *.u.o.{ z P l l J 1X,.f.OXS.S.F.&XN.x.#.$.$.+.+.-.v.}.}.P.x.a.x.z.J.z.v.z.J.v.OXJ.I.gX8XU W yXQ hX+XY.T.L.' ",
"PXmXl.&.) &.*.) *.' ' -.{ K L D z J qX0XqX0.S.OX+Xy.l.t.c.#.+.o.i.P.}.P.P.d.s.x.z.z.z.a.z.z.v.J.S.*XJ.^.Y I E W yXR 5XE.L.T.L...",
"LXfX( | | #.>.! 6.6.! 4.<X<XJ H z 9XwXuXtX5XB.y.f.t.u.t.d.i.l.I.I.v.s.g.v.x.a.d.x.z.x.#XOXz.J.v.=X*X).c R E W R yXW 7XU.Y.T.K...",
"LXfX}  .;.| >.~ 4. X/ _.qX<XJ J H qXuXiXpXtX0.e.r.r.t.z.I.}.P.d.t.y.d.s.v.c.a.d.z.a.D.nXnXY.a.I.lX8Xc E W yXyXE W W eX+XK.T.L.' ",
"LXgX>.m.:...-.` 4. Xq.uXqX<X<XH H 0XuXiXuXtX3Xr.s.v.P.C.i.z.r.s.g.s.s.s.x.c.a.d.d.a.@XF.#X#Xz.0.v V E E W E W E W R 8X=XK.T.B.' ",
"LXNXZ.A.:.| ;._ 4..XsXpX0X9X<XG J 0XuXiXuXuX0XG.P.l.-.+.O.c.y.y.s.y.s.s.d.v.a.d.d.a.@XOXF.%Xj.v V E R A W Z E W W Z 8X=XY.T.B.` ",
"LXmX3.G.m.*. .*.=.A.pXpXuX0X<XD K 0X0XiX0XuXiXw.o.} O.O.O.x.i.t.s.S.y.s.d.v.d.a.a.g.#X@XD.=Xw.U Z E Z Z E Z E E E Z 8X=XK.Y.B.` ",
"LXgXb.A.m.G...-.! 8.SXSXiXuX9Xz J 0X0XaX0XwXaXw.o.O.O.&. .i.d.y.p.%Xc.g.s.v.d.d.z.g.F.$XB.=XM.c V A Z Z E C A A E E 8XOXH.Y.B...",
"LXfXb.A.=.A.;.&._ 7XSXSXSXiX<Xz K 0XqX2X0X0XaX7X} :. . XF.u.d.t.f.%XOXy.s.c.d.s.a.a.D.=XN.*Xc.0.v R Z M A A E Z Z A T K.Y.T.B.` ",
"LXgX .3.3.m.n.| >.eXSXSXSXuX<Xx H wXD 3 p tXuX`.5.+XA.S.n.;.x.e.B.&X%XB.t.c.x.a.d.i.N.*Xb.$XF.+X0.v V M C A Z M M C T U.H.K.K.` ",
"LXmX3.G.:.*...} =.uXiXSXiXqXJ k H qXL K i 0XD , A.n.F.A.;.;.x.e.S.&X&X@Xs.c.x.g.a.d.d.*XXX=XE.*Xa.w.c M m N N M M C v K.H.Y.S.` ",
"LXNX;.&.| }  .i.A.iXuXwX0X<XH k z wX1Xf 2X0XL d A.D.A.{.&Xl.l.t.F.%X+X+Xc.s.c.i.d.d.g.F.BXOXz.B.a.`.B N m m m m m M T |..X&X XX.",
"LXfX( | >.b.b.>.{ uX0X9X9XJ z k k pXeX>XaX0XJ g 7.R.F.F.m.S.i.y.Y.S.f.t.g.d.v.g.d.a.d.a.f.d.z.a.p.v m N m N M C S S T OXR.B.j.' ",
"LXgX-.b.3.*.~ ! { tX9X<X8XJ z j f 0XaXaXpXqXqX0X0.b.B.|.p.S.p.i.r.r.g.y.a.g.v.s.s.d.d.d.a.s.a.z.0.c C C C C Z C m M I j.f.h.h...",
"LXzX>.' ~ ! ~ ( 8.wXK K L z z j p qXpXpXuXqX0X0X{ m.:.|.A.G.:.d.t.y.y.g.t.a.v.g.g.g.g.d.v.P.I.}._.B N m m n c B m m I V.N.N.h...",
"LXfX9 ( ' [ 4.>.8.K H J G z k j p K 0XuXuXqX0XqX6.A.|.m.G.S. .z.t.t.y.y.t.t.l.z.v.C.I.}.P.B.s.r.v n n n n n v v V M I j.N.f.h...",
"LXfX! [ 3.Z.6.=.8.K z G z z j j j L 2X2X0X0XqX<XOXl.m.&.O.| O.x.e.t.y.d.v.P.}.I.C.c.i.%.e.$.o.1.c n n n n b 1.1.v V U W.f.h.h.` ",
"LXNX>.4.6.4.7.3.2.G z z k j j u p G K 9X9X0XqXz X.| } | | | -.v.H.P.P.C.v.y.p.u.+.+.+.$.r.r.e.`.B n n n n v oXG.1.c I lXN.h.h.` ",
"LXmX4.[ 4.[ 6.l.q.z l l j j j t p G 2XK <XuX0Xh } X.-.p.v.P.H.P.l.-.#.O.+.} ;.p.+.r.+.e.$.r.r.v B n V C B 7X%X-XD.cX].-XD.p.h.) ",
"PXgX4.[ =.4.[ ' 7.k j j j t y t i D K K L y p 9.v.v.v.c.g.u.r.s.&.| O.$.$.O.-.p.O.o.M.u.$.e.1.Y V V R M c kXp.M.M.OX,.*X~.p.p.` ",
"LXhX=.4.=.3.6.=.{ p p p j t t t i D K 9Xz = j 9.t.r.$.r.r.r.r.f.l.<.&.O.+.+.@.l.o.X.*Xh.@.@.`.Q Q U U I ].=XA.A.u.e.D.=Xp.p.h.` ",
"LXgX_ Z.4.=.5.[ / a j y t 6 t t y P K 2XD p qX{ e.@.@.@.r.r.n.n.W.,.,.;.;.h.&.l.+.!.nX6.+.j.8XQ tXtXyXwX).=X*XnXD.t.@X-XN.p.h.) ",
"LXgX( [ ~ ^ ! _ >.h j u 6 6 6 t y p K P P <Xz { @.p.n.h.OXn.%X$X!.W.@X@X&X+XO.l.;.O.@X~.+.1.Y tXSXSXaXuX$X*XD.!.$X-.u.$X@Xy.h.` ",
"LXfX ._ *.4.l.l.i.s j u 6 4 6 6 t p J G 5 5 a 7.o.F.|.F.Q.@XoXdXlXdXjX=X%XQ.<.n.j.O./.$X$.`.tXaX4X:XrXUXlX*X~.Q.*XXXh.Q.=Xy.p.) ",
"LXzX4.l.:.;. . .} 8 l j 6 3 3 4 t i D 9Xf P ,XA.:.m.~.@X!.$XlXNXGXHXjXlX*X!.0.W.V.,.(.jX0.8XpXiXw w r HXnXlXXX!.lXnXXX$X@Xu.p.` ",
"PXfX! &.} |  ...@.8.j j 6 3 3 3 6 t k K uXaXw.l.M.,.oXjXlXnXNXJX9.).DXkXnXdX^.^.^.(.oXnX7XrXSXsX6XLXe JXNXkXNXNXlXjXBXnXV.y.p.` ",
"LXfX! *.*.X.m.m.b.7.j j y 3 3 3 5 6 i L 0XtX{ m.W.W.kXnXFXHXIXe w 4 DXxXFXzXxXfXlXcXfXHXvXSXSXsX7XPXd PXFXxXmXDXxXxXkX(.j.p.p.` ",
"LXgX! ' l.:.=.5.m.6.x l j 3 4 = = 4 6 z qXqX*.A.W.dXHXJXDXPXKXf LXd KXJXJXDXDXGXHXFXJXIXPXAXLXZX3XPXe LXIXJXJXGXmXGXFXoXV.y.;.) ",
"LXmX4.' *.:.;.A.3.=.k z j 6 6 3 & = 4 p K ,XX.{.$XMX5X< > w r f LX< e LXf 1 1 e PX6X< r w = f CX3XPXa ).< r 7X4 1 > 3XlXQ.R.S.` ",
"LXhX4.[ X.:.*.:.m.;.h G k t t 4 =   % 5 i { X.W.lXmXw 6XPX:X< KXLXVXe d h CXKXw [.>X3Xg F PXe f 5XLX< e ZXe & 6XPX>Xh BX@XR.P.` ",
"LXfX! ' _ >.5.A.m.:.h L z y t t 5 3 - 9 ^ } ..,.cX,X3XLXLXVXg LXPXLXf < LXLXLXLXr :XLXPXLXLXVX< 4XLX= 5XLX< >XLXLXKXg MX/.c.d.` ",
"LXgX! ^ ' *.X.X.X.| h L z p u p t 4 1 r.:.:.:.~.MX[.CXCX> r > 5XLX3X: 3XLXf :XLX:X4 PXPXd KXPX< 3XLXw LX5X. KXCX> r d MX/.H.x.` ",
"LXgX] ' [ -.*.;.:.[ 4 J z j p p y 5 7 p.=.>.=.6.zXf CXKX2 X 4 f PX4 : CXKX> < PXbX: LX5X. 4XLX> 3XPX>XLXe e CXPX<   >XFXXXB.x.` ",
"LXzX-.4.:.4.>.[ *.; % x D j j p y 5 8 ..! ~ / 1.gX9.5XLXPXr F 3XLXf :XKX5X,X4XVXCX> LX>Xd 3XLX< >XLXPXZXr 3X3XLXPXe :XIXnXE.x.' ",
"LXfX( ` } X._ ~ ; X   3 J k j j y 5 s *.~ ~ ..6.fXVXr KXLXKX1 >XLXg :XCX5X>X5XCXCX> LX3Xf 3XLX> >XLXKXKXe CXw KXLXKXr HXnXE.x.` ",
"LXfX( >.| ' 9 O . X     j G k k y 6 3X5.( ~ f.(.fXbX. : bXLX< :XLXe w CXCXr g KXbX* LX3Xg 3XLX1 >XPXF PXg f * % 5XLXe mXlXK.x.` ",
"LXzX( X.*.1 &     .     : J D z y z AXs 9 } U.+XxX[.r . F LX< :XLX:XO 5XLXe d LX:X< LX3Xg 3XLX> >XLXw PXCX% d & f LXe HXlXc.x.` ",
"PXmX ...7 = $     X X     :X9XD i 9XPXe - 8 R.+XxX[.KXIXLXKX< f LXLXd w LXLXLXLXr d LX4Xg 3XLX< 3XLX* 6XLXe KXKXLXJXw JX$XJ.f.` ",
"LXmX] 7 = - $ .           s AXG x pXLXe - : 1 ~.BX9.6XLXPX< >Xf 5XLXg > :XLXLXd e 3XCX,Xf ,XKX> :XKX< e PX:X4XLXPXe g JX#XL.d.` ",
"LX5X$ = $ $ $ %           . KXsX9XPXLXr $ 2 : w hX7X+ 1 + < PXhX% : < CX1 : * , PX1X. * 4X< o w < . d d & : $ > % < HXNX/.c.x.` ",
"LX6X% : $ $ % $ . X         [.LXiXVXLXe $ : : < f VX5X:X3XGXDXJX6X[.hXIXHX>X,XHXPXUXVXVXPXZXhXJXHXbXCXHXbXmXbX,X3XHXMXlXD.x.d.` ",
"LX4X  : $ # + % @ . X       > NX.X7.mXd $ : # > e >XVXCXHXgXfXfXDXGXFXxXMXFXFXFXAXvXUXUXFXxXFXxXMXFXxXFXFXMXFXGXGXxXjX/.N.x.x...",
"LX3X  @ $ $ # + O + . .     X 2..X X7.a # , # : w g ,X>X>XoXoX$X$XkXkXkXkXlXkXxXrXvXUXxXkXjXkXkXkX$XjXjXjXjXjXjXjX$X/.V.f.a.s.` ",
"LX3X    + # # # . O O . .   X 2 .X.X4.7 : 2 # : , w d g d e ,.0.W.W.W.W.~.w.(.cXrXrXrX'./.~.!.!.!.!.XX#X#XoX@X@X@X#X XR.I.I.C.` ",
"LX3X      o + # . . + X O   X X 2. XoX7 $ : $ # @ , 4 7 w 5 { :.,.0.,.j.n.,.L._.`.].'.j.<.j.<.,.j.<.j.,.,.j.j.j.j.j.j.g.p.p.p.` ",
"LX4X  . X o o - O X O # O X   X 2 }.BXr + : $ . o $ > : 1 > q B.5.n.A.n.h.r.(.`.).].(.g.X.&.<.&.#.#.&.&.&.+.r.<.&.$.r.$.$.@.@.` ",
"LX3X  o o . o @ O   X $ $ .     O ;XBXe o : $ O o $ : $ , * 2.A.n.n.A.A.u.k.(._._._.L.r.#.#.O.;.|.D.O.+.:.D.;.O.&.h.$.r.@.r.%.` ",
"LX4X  X X X o o O     + - @ . X   q -Xs . , - + & $ $ O 2 * q R.5.3.n.A.r.k.).'.vX(.g.u. .#.} n.G.G.h.} Q.OXF.+.n.%X%.O.OXD.o.` ",
"LX4X  . o . o o +     X - $ o X X @ =X9.& , $ + O $ $ O : $ 8 G.A.:.m.F.k.L.).vXvXL.+.y.@.O.O.&.#.A.m.+.n.#.|.%.D.&Xu.;.%XF.o.` ",
"LX4X  o O + o O + o     # $ + o .   7.[.& = - # + # @ O $ $ 7 n.F.3.b.F.U.(.'.vXcXU.#.i.#. .#.+.X. Xp.O.} S.|.;.F.OX;.V.&XF.O.` ",
"LX4X  . o + + + o o     + $ @ o X X 7 ;X& : $ # o - @ O $ # > ;.;.;.:.-.K.oX(.'./.B.;.;.;.O.#.} S.M.} O.O.:.F.A.m.F.p.D.m.E.+.` ",
"LX4X    X o @ # O +     o @ @ @ o X @ 8 + : - $ + - + o @ # * 5.t.X. .e.L.^.^.^.k.} | ;.;.| #.| {.G.:.5.D.:.m.+X+X+XOX+XF.+X;...",
"LX6X      X . O . . X   X $ + @ O . O - + $ $ $ + @ O . # @ # 2.J.=.3.J./.dX^.~.g._ )  .;.} O.| p.F.S.D.n.F. Xn.;.|.F.V.OX&Xh.) ",
"LX4X  . . . O o o X X X   + @ o - o o @ # - # - + - o o @ @ * 8 L.| ) J./.oXoXL.z.b.l.l.b.-.;. .| } } } | ;.h.#.} n.p.} u.@X#.` ",
"LX4X  X . o o @ O X   X   . - + + @ O @ # $ # $ + - O o O + * 7  Xf.e.L./.(.#Xk.O.$.-.y.v.x.c.c.v.b.l.p.-.%.o.O.+.+.o.@.$.u.$.) ",
"LX5X  X   . O O - o X X   . + , @ @ - @ - @ # # @ - o o O O - ; +X#XU./.!.oXT.g. .$.#.%.y.#.$.e.r.y.a.x.c.v.v.v.l.x.:.%.o.+.$.` ",
"LXfX9 ^ ~ ~ ^ ^ / ~ 9 ~ ^ ^ ^ / ^ ^ ^ ^ ^ ^ ^ ^ / ^ ^ ~ ^ ^ / / &.;.X.*.,.*...| ` ..` _ .... .......) ) ) ` _ *.*.>.*.X.....) ' "
};
