/* XPM */
static char *result[] = {
/* columns rows colors chars-per-pixel */
"32 32 4 1 ",
"  c #3B2346",
". c #40264D",
"X c #563767",
"o c #644574",
/* pixels */
"................................",
"...oooooooooooooooooooooooooo...",
"..oXXXXXXXXXXXXXXXXXXXXXXXXXXo..",
".oXXXXXXXXXXXXXXXXXXXXXXXXXXXXo.",
".oXXXoXXXXXXXXXXXXXXXXXXXXXXXXo.",
".oXXXXXXXXXXXXXXXXXXXXXXXoXXXXo.",
".oXXXXXXXXXXXXXXXXXXXXXXoooXXXo.",
".oXXXXXXXXXXXXXXXXXXXXXXXoXXXXo.",
".oXXXXXXXXXXXXXXXXXXXXXXXXXXXXo.",
".oXXXXXXXXXXXXXXXXXXXXXXXXXXXXo.",
".oXXXXXXXXXXXXXXXXXXXXXXXXXXXXo.",
".oXXXXXXXXXXXXXXXXXXXXXXXXXXXXo.",
".oXXXXXXXXXXXXXXXXXXXXXXXXXXXXo.",
".oXXXXXXXXXXXXXXXXXXXXXXXXXXXXo.",
".oXXXXXXXXXXXXXXXXXXXXXXXXXXXXo.",
".oXXXXXXXXXXXXXXXXXXXXXXXXXXXXo.",
".oXXXXXXXXXXXXXXXXXXXXXXXXXXXXo.",
".oXXXXXXXXXXXXXXXXXXXXXXXXXXXXo.",
".oXXXXXXXXXoXXXXXXXXXXXXXXXXXXo.",
".oXXXXXXXXo oXXXXXXXXXXXXoXXXXo.",
".oXXXXXXXo   oXXXXXXXXXXooXXXXo.",
".oXXXXXXXXo oXXXXXXXXXXXXXXXXXo.",
".oXXXXXXXXXoXXXXXXXXXXXXXXXXXXo.",
".oXXXXXXXXXXXXXXXXXXXXXXXXXXXXo.",
".oXXXXXXXXXXXXXXXXXXXXXXXXXXXXo.",
".oXXXXXXXXXXXXXXXXXXXXXXXXXXXXo.",
".oXXXXXXXXXXXXXXXXXXXXXXXXXXXXo.",
".oXXXXXXXXXXXXXXXXXXXXXXXXXXXXo.",
".ooXXXXXXXXXXXXXXXXXXXXXXXXXXXo.",
"..ooXXXXXXXXXXXXXXXXXXXXXXXXXo..",
"...oooooooooooooooooooooooooo...",
"................................"
};
