/* XPM */
static char *result[] = {
/* columns rows colors chars-per-pixel */
"64 64 256 2 ",
"   c black",
".  c #010101",
"X  c #020202",
"o  c gray1",
"O  c #040404",
"+  c gray2",
"@  c #060606",
"#  c #070707",
"$  c gray3",
"%  c #090909",
"&  c gray4",
"*  c #0B0B0B",
"=  c #0C0C0C",
"-  c gray5",
";  c #0E0E0E",
":  c gray6",
">  c #101010",
",  c #111111",
"<  c gray7",
"1  c #131313",
"2  c gray8",
"3  c #151515",
"4  c #161616",
"5  c gray9",
"6  c #181818",
"7  c #191919",
"8  c gray10",
"9  c #1B1B1B",
"0  c gray11",
"q  c #1D1D1D",
"w  c #1E1E1E",
"e  c gray12",
"r  c #202020",
"t  c gray13",
"y  c #222222",
"u  c #232323",
"i  c gray14",
"p  c #252525",
"a  c gray15",
"s  c #272727",
"d  c #282828",
"f  c gray16",
"g  c #2A2A2A",
"h  c gray17",
"j  c #2C2C2C",
"k  c #2D2D2D",
"l  c gray18",
"z  c #2F2F2F",
"x  c gray19",
"c  c #313131",
"v  c #323232",
"b  c gray20",
"n  c #343434",
"m  c #353535",
"M  c gray21",
"N  c #373737",
"B  c gray22",
"V  c #393939",
"C  c #3A3A3A",
"Z  c gray23",
"A  c #3C3C3C",
"S  c gray24",
"D  c #3E3E3E",
"F  c #3F3F3F",
"G  c gray25",
"H  c #414141",
"J  c gray26",
"K  c #434343",
"L  c #444444",
"P  c gray27",
"I  c #464646",
"U  c gray28",
"Y  c #484848",
"T  c #494949",
"R  c gray29",
"E  c #4B4B4B",
"W  c #4C4C4C",
"Q  c gray30",
"!  c #4E4E4E",
"~  c gray31",
"^  c #505050",
"/  c #515151",
"(  c gray32",
")  c #535353",
"_  c gray33",
"`  c #555555",
"'  c #565656",
"]  c gray34",
"[  c #585858",
"{  c gray35",
"}  c #5A5A5A",
"|  c #5B5B5B",
" . c gray36",
".. c #5D5D5D",
"X. c gray37",
"o. c #5F5F5F",
"O. c #606060",
"+. c gray38",
"@. c #626262",
"#. c gray39",
"$. c #646464",
"%. c #656565",
"&. c gray40",
"*. c #676767",
"=. c #686868",
"-. c DimGray",
";. c #6A6A6A",
":. c gray42",
">. c #6C6C6C",
",. c #6D6D6D",
"<. c gray43",
"1. c #6F6F6F",
"2. c gray44",
"3. c #717171",
"4. c #727272",
"5. c gray45",
"6. c #747474",
"7. c gray46",
"8. c #767676",
"9. c #777777",
"0. c gray47",
"q. c #797979",
"w. c gray48",
"e. c #7B7B7B",
"r. c #7C7C7C",
"t. c gray49",
"y. c #7E7E7E",
"u. c gray50",
"i. c #808080",
"p. c #818181",
"a. c gray51",
"s. c #838383",
"d. c #848484",
"f. c gray52",
"g. c #868686",
"h. c gray53",
"j. c #888888",
"k. c #898989",
"l. c gray54",
"z. c #8B8B8B",
"x. c gray55",
"c. c #8D8D8D",
"v. c #8E8E8E",
"b. c gray56",
"n. c #909090",
"m. c gray57",
"M. c #929292",
"N. c #939393",
"B. c gray58",
"V. c #959595",
"C. c gray59",
"Z. c #979797",
"A. c #989898",
"S. c gray60",
"D. c #9A9A9A",
"F. c #9B9B9B",
"G. c gray61",
"H. c #9D9D9D",
"J. c gray62",
"K. c #9F9F9F",
"L. c #A0A0A0",
"P. c gray63",
"I. c #A2A2A2",
"U. c gray64",
"Y. c #A4A4A4",
"T. c #A5A5A5",
"R. c gray65",
"E. c #A7A7A7",
"W. c gray66",
"Q. c #A9A9A9",
"!. c #AAAAAA",
"~. c gray67",
"^. c #ACACAC",
"/. c gray68",
"(. c #AEAEAE",
"). c #AFAFAF",
"_. c gray69",
"`. c #B1B1B1",
"'. c #B2B2B2",
"]. c gray70",
"[. c #B4B4B4",
"{. c gray71",
"}. c #B6B6B6",
"|. c #B7B7B7",
" X c gray72",
".X c #B9B9B9",
"XX c gray73",
"oX c #BBBBBB",
"OX c #BCBCBC",
"+X c gray74",
"@X c gray",
"#X c gray75",
"$X c #C0C0C0",
"%X c #C1C1C1",
"&X c gray76",
"*X c #C3C3C3",
"=X c gray77",
"-X c #C5C5C5",
";X c #C6C6C6",
":X c gray78",
">X c #C8C8C8",
",X c gray79",
"<X c #CACACA",
"1X c #CBCBCB",
"2X c gray80",
"3X c #CDCDCD",
"4X c #CECECE",
"5X c gray81",
"6X c #D0D0D0",
"7X c gray82",
"8X c #D2D2D2",
"9X c LightGray",
"0X c gray83",
"qX c #D5D5D5",
"wX c gray84",
"eX c #D7D7D7",
"rX c #D8D8D8",
"tX c gray85",
"yX c #DADADA",
"uX c gray86",
"iX c gainsboro",
"pX c #DDDDDD",
"aX c gray87",
"sX c #DFDFDF",
"dX c gray88",
"fX c #E1E1E1",
"gX c #E2E2E2",
"hX c gray89",
"jX c #E4E4E4",
"kX c gray90",
"lX c #E6E6E6",
"zX c #E7E7E7",
"xX c gray91",
"cX c #E9E9E9",
"vX c #EAEAEA",
"bX c gray92",
"nX c #ECECEC",
"mX c gray93",
"MX c #EEEEEE",
"NX c #EFEFEF",
"BX c gray94",
"VX c #F1F1F1",
"CX c gray95",
"ZX c #F3F3F3",
"AX c #F4F4F4",
"SX c gray96",
"DX c #F6F6F6",
"FX c gray97",
"GX c #F8F8F8",
"HX c #F9F9F9",
"JX c gray98",
"KX c #FBFBFB",
"LX c gray99",
"PX c #FDFDFD",
"IX c #FEFEFE",
"UX c white",
/* pixels */
"d.m.N.<.%.6.6.6.6.6.5.5.6.5.6.6.6.6.6.5.3.2.2.1.1.2.2.3.3.4.3.3.4.4.5.5.4.4.4.4.3.4.5.5.4.4.4.3.3.4.3.3.2.2.3.4.4.6.:.d.A.B.g.z.",
"T h.B.7.0.z.z.z.z.z.l.l.l.z.z.z.x.x.z.l.j.j.j.h.h.h.h.j.j.k.j.j.j.j.j.k.k.k.k.l.l.z.z.z.l.j.k.j.j.j.j.j.k.j.h.j.k.z.i.f.S.m.) <.",
"I g.C.6.( { { } { { [ [ [ [ [ { { { [ ] $.u.f.f.f.d.d.d.f.g.f.f.f.f.f.f.g.h.g.h.j.j.h.k.i.O.` ] ] ' ] [ ] ] [ [ [ { _ u.S.n.~ ;.",
"P h.A.q.v.!.W.W.E.E.R.T.T.T.R.W.W.E.I.n.9.a.f.f.f.f.f.f.f.f.g.g.g.g.f.f.g.g.g.g.g.h.h.x.s.e.H.W.Y.U.T.E.Y.T.E.E.E.W.A.h.Z.n.^ :.",
"P h.Z.e.Y.-X*X&X%X&X%X$X&X%X*X=X*X%X|.V.f.%.,.<.<.,.,.,.<.<.<.<.<.<.<.<.<.<.<.,.<.,.5.2.:.R.qX2X$X$X&X*X%X*X*X*X*X*X_.x.S.m.^ ;.",
"P f.B.q.k.I.J.H.G.G.D.G.H.J.J.L.J.G.A.x.s.a.4.2.2.2.1.1.2.2.3.4.3.3.3.2.1.2.2.2.4.4.5.0.I.0X<XY.D.G.H.K.J.K.H.J.H.H.b.j.D.n.~ ;.",
"I g.V.0.a.A.B.B.B.V.N.B.V.B.B.B.B.B.m.v.k.B.I.I.I.L.L.L.L.P.U.Y.T.U.U.U.I.U.Y.T.E.T.T._.4X-XK.b.b.M.N.N.B.V.N.B.B.M.f.g.S.b.~ ;.",
"P g.C.0.a.A.C.Z.C.V.V.V.V.B.V.B.V.V.N.b.m.F.L.L.K.K.J.K.K.K.P.I.U.I.I.U.U.U.U.T.Y.U.U.^.[.H.n.m.m.N.B.B.B.V.V.V.N.N.g.h.A.c.~ :.",
"I g.C.0.a.S.C.Z.C.V.C.C.C.V.V.V.B.B.N.n.b.v.c.c.c.x.z.z.z.z.v.m.M.m.m.m.m.m.m.m.m.M.M.N.V.N.N.M.M.M.B.C.B.V.B.B.N.N.h.g.C.z.! -.",
"P f.B.9.a.S.C.C.Z.C.C.C.Z.Z.V.N.N.m.m.m.b.b.c.z.c.x.z.x.z.x.v.m.N.M.n.m.m.n.b.n.m.M.M.M.M.N.B.V.B.N.B.B.N.B.M.M.M.N.g.f.C.z.! ;.",
"L d.N.8.p.Z.C.C.V.B.C.C.C.Z.C.V.N.m.n.m.n.b.v.c.x.c.v.b.b.b.m.N.N.N.M.M.m.n.b.n.M.M.B.V.B.B.B.C.V.N.B.B.B.M.m.M.N.M.g.f.C.x.! -.",
"L d.N.7.u.B.B.B.C.B.V.Z.C.C.C.C.B.M.m.m.n.b.n.v.v.b.m.M.m.n.M.N.N.N.N.N.m.n.b.v.b.n.N.V.B.B.B.V.B.N.N.V.N.m.M.N.B.N.h.g.A.b.~ -.",
"P f.B.7.u.B.N.B.C.C.Z.C.V.B.V.C.B.m.n.n.n.b.n.n.m.n.M.M.N.M.M.M.N.B.B.B.N.M.n.v.v.b.M.N.N.N.V.V.B.N.N.B.N.N.N.N.B.V.j.g.A.m.~ :.",
"P g.V.9.i.B.N.C.C.C.Z.A.C.B.B.B.N.m.n.n.n.m.M.M.M.M.N.m.N.M.M.M.M.B.V.V.B.N.m.n.n.n.m.M.B.V.C.C.B.N.N.M.M.B.N.B.B.B.h.f.Z.b.~ :.",
"I h.N.1.p.A.C.V.B.V.C.S.Z.B.N.M.M.m.m.m.m.M.M.B.B.C.N.m.M.B.B.N.B.B.B.N.N.M.m.n.n.n.M.N.N.C.V.C.V.N.N.M.B.B.N.N.B.V.j.s.S.b.~ :.",
"P s.6.| x.Z.C.B.B.C.Z.Z.C.V.N.M.M.M.m.N.N.N.N.B.B.V.M.n.n.m.N.N.V.V.B.N.M.m.M.M.M.M.N.B.V.B.B.C.V.M.M.N.N.N.N.N.N.N.b.0.M.N.~ ;.",
"P w...p.C.V.Z.V.Z.A.Z.Z.V.B.N.M.M.M.N.B.N.N.N.B.B.N.N.m.n.n.m.N.B.N.B.N.M.m.M.M.N.N.V.C.V.B.N.V.N.M.M.N.N.N.N.M.M.N.B.c.t.M.~ ;.",
"P 0.&.b.V.V.V.V.C.C.C.C.B.N.N.M.m.m.N.V.B.N.N.B.N.N.m.M.n.m.M.N.B.N.B.N.N.M.m.m.m.n.M.C.V.B.V.C.B.M.N.N.N.B.M.M.M.N.B.N.a.m.~ :.",
"I q.&.v.N.B.B.N.M.M.N.B.B.N.M.m.n.n.N.V.B.N.M.M.M.N.m.N.B.B.N.B.B.N.N.N.B.M.n.n.n.n.N.N.B.V.Z.Z.C.B.M.N.N.N.m.m.N.B.B.N.p.m.^ ,.",
"I 0.&.n.B.B.B.M.m.n.M.N.M.M.m.m.m.m.N.B.N.N.N.M.n.M.M.B.C.B.N.B.V.B.N.N.N.m.n.n.m.N.B.B.V.Z.Z.V.B.B.N.N.N.M.M.N.M.M.N.B.s.m.^ >.",
"I q.*.v.N.V.N.M.m.b.m.m.m.M.n.b.n.m.M.N.M.M.N.M.m.m.M.B.B.B.N.B.V.V.N.N.N.M.M.m.M.B.C.C.C.C.Z.V.B.B.N.N.B.N.N.M.M.M.N.B.a.n.~ :.",
"U w.&.x.N.B.B.N.m.n.M.m.n.n.n.b.m.m.m.N.M.m.N.N.M.N.V.V.B.B.B.C.C.V.N.M.M.M.N.M.m.B.C.C.V.V.V.B.N.B.V.N.N.B.N.m.M.M.N.N.a.m.^ :.",
"Y w.%.c.M.N.N.N.M.M.M.n.n.m.m.b.n.M.m.M.M.m.N.N.B.N.C.C.B.V.V.C.C.V.N.M.m.M.N.N.M.N.B.V.V.N.N.N.B.B.M.m.N.B.N.m.M.M.M.M.p.n.~ >.",
"Y r.&.c.M.M.m.M.N.M.m.n.b.n.n.b.n.n.m.M.M.M.M.B.B.B.C.C.B.B.V.V.V.V.N.M.m.m.M.N.M.M.N.V.V.B.N.N.B.N.M.M.N.N.N.N.M.M.M.M.p.v.! >.",
"U r.*.v.M.m.m.M.N.m.n.b.v.m.n.v.v.b.m.m.N.N.m.M.N.B.V.C.C.N.V.C.B.B.N.M.n.m.B.C.V.B.N.B.B.B.B.N.N.N.M.M.N.N.N.N.m.m.M.M.p.n.~ :.",
"I r.-.b.N.M.M.N.N.n.b.b.m.m.b.v.b.M.m.M.N.N.m.m.N.N.N.N.B.B.Z.A.V.V.B.B.m.N.V.C.Z.V.N.B.M.N.N.N.N.N.N.M.N.V.B.N.m.m.m.m.u.n.^ >.",
"I e.=.b.B.N.N.N.V.B.n.n.M.m.n.n.m.m.m.N.B.B.N.N.B.N.M.M.N.B.C.A.C.B.B.Z.V.V.V.C.V.B.B.C.B.N.N.N.N.B.B.M.N.V.B.N.m.m.m.b.y.b.~ -.",
"P q.*.b.V.B.B.V.C.B.n.b.N.N.M.m.M.m.M.N.M.M.N.B.M.n.m.M.V.B.Z.Z.B.B.B.B.B.B.C.V.Z.C.V.B.N.N.M.M.N.B.B.M.m.N.C.V.N.M.n.c.t.c.! =.",
"P q.&.b.B.V.V.V.N.m.n.n.M.N.M.m.m.n.n.m.m.N.M.B.M.n.n.M.B.C.S.S.B.N.N.B.M.N.V.C.A.Z.V.B.M.m.M.N.M.N.N.M.m.N.V.B.M.m.n.v.t.l.W %.",
"L 9.&.x.n.M.V.V.N.N.m.n.n.n.m.n.b.v.b.b.b.n.n.m.n.n.m.M.B.Z.A.S.C.N.C.B.m.N.N.V.Z.Z.V.V.M.M.M.N.m.M.M.M.M.M.m.m.n.m.m.v.r.z.W %.",
"L 0.O.k.m.m.M.N.B.B.m.n.m.m.n.b.c.c.b.b.b.b.v.n.n.m.M.B.C.C.C.Z.A.Z.B.m.b.n.M.N.C.C.V.V.N.N.B.N.M.M.m.m.m.m.b.v.c.b.b.z.q.z.E %.",
"L y.#.@.c.n.N.N.B.B.n.n.m.n.c.v.c.c.c.c.c.x.b.n.M.M.N.C.Z.C.V.V.Z.C.M.n.b.b.m.N.V.C.C.N.N.M.N.N.N.M.m.m.m.n.v.x.l.x.z.8.s.v.E $.",
"P s.h...w.m.m.n.M.M.b.c.v.v.z.c.c.c.c.z.z.x.c.b.M.M.N.V.V.V.B.B.B.B.N.m.m.M.N.B.C.V.B.N.B.N.B.B.N.M.M.M.m.v.z.x.l.z.u.9.C.k.R $.",
"K p.n.3.q.n.n.b.b.M.m.n.c.c.c.c.v.c.v.x.x.z.c.n.M.N.N.B.V.C.V.C.Z.V.N.N.M.N.N.B.V.B.N.M.M.N.N.N.N.N.B.B.M.c.x.z.l.z.y.u.m.g.R $.",
"H u.c.3.e.b.n.m.m.m.n.b.v.b.b.b.n.b.b.b.v.c.b.m.M.B.B.B.C.Z.C.V.V.B.B.B.N.M.N.C.V.N.N.M.M.N.B.B.V.V.V.B.n.v.c.z.z.z.y.u.b.f.R $.",
"H t.x.2.w.c.v.m.M.n.b.v.b.n.n.b.v.n.M.M.n.M.N.N.N.B.N.B.V.Z.Z.B.N.B.V.Z.V.B.C.B.C.V.N.M.M.M.M.B.C.V.V.M.n.b.c.x.z.z.y.y.c.f.R #.",
"H t.z.<.8.x.c.v.b.v.v.b.n.m.m.b.v.b.M.M.M.M.B.B.B.V.B.B.C.S.Z.B.B.B.C.A.C.C.C.V.B.B.N.m.m.m.M.V.V.B.M.b.b.c.c.x.z.x.u.y.v.f.R #.",
"J y.l.<.9.x.x.b.n.n.v.v.v.b.b.n.n.m.B.N.B.N.B.N.N.N.B.V.C.Z.C.C.V.B.V.A.Z.Z.C.B.N.N.M.m.m.N.N.V.C.N.m.m.b.c.x.x.x.c.i.y.v.f.R %.",
"K u.c.1.q.v.c.n.m.n.b.b.b.b.v.n.m.N.B.B.B.B.N.V.B.M.B.V.Z.V.V.B.B.B.B.B.Z.A.V.B.N.N.N.m.M.B.B.V.V.N.M.m.b.v.c.c.x.c.u.y.v.d.R &.",
"J i.b.3.e.n.n.n.n.b.m.m.n.n.b.n.M.B.N.B.V.V.B.B.N.M.M.V.C.C.C.B.B.V.V.V.Z.Z.C.V.V.C.V.B.B.B.B.B.B.V.B.n.v.b.c.c.c.x.y.y.v.f.R %.",
"K p.b.5.t.n.n.n.b.n.M.N.m.m.n.m.M.B.V.B.V.V.V.B.N.N.N.B.N.V.C.V.V.V.V.C.Z.Z.C.Z.C.V.V.C.C.B.V.V.V.V.B.m.n.b.c.x.x.x.u.t.c.s.T $.",
"L a.b.5.r.n.n.n.m.m.M.N.N.N.M.N.M.N.V.B.B.B.N.N.N.N.B.N.m.N.B.B.C.B.B.B.Z.Z.Z.Z.Z.V.C.V.C.C.C.V.B.B.N.M.m.b.v.x.x.c.i.y.c.d.T $.",
"L a.n.5.r.n.n.n.M.N.N.N.B.B.B.N.N.N.N.B.N.M.M.M.M.M.M.M.M.N.B.B.N.N.N.B.V.Z.Z.Z.Z.C.V.C.C.C.C.V.B.N.n.m.m.n.b.c.x.c.p.u.n.h.E *.",
"L s.M.6.t.m.b.n.m.M.B.B.B.B.V.B.N.N.N.N.N.m.M.M.N.N.M.N.N.B.N.N.M.M.N.B.N.N.V.V.C.V.N.C.C.C.C.V.B.N.M.M.M.n.b.v.c.b.s.a.N.k.E =.",
"P f.B.7.y.n.c.c.b.m.V.B.B.B.V.B.N.B.B.N.M.M.N.B.N.N.N.B.C.V.B.B.N.M.N.N.N.N.M.N.C.C.B.V.V.V.V.C.C.V.N.m.n.b.b.b.v.n.g.d.V.l.Q =.",
"P g.V.8.y.m.b.b.b.m.M.N.B.V.V.B.B.B.N.M.M.N.B.V.V.B.M.N.C.C.C.C.V.B.N.N.N.N.N.B.C.C.C.C.V.B.B.V.V.B.m.b.b.b.n.n.n.m.g.d.V.z.Q =.",
"P g.V.7.u.N.m.b.n.m.M.B.V.V.V.V.B.B.B.N.N.N.B.V.V.B.M.N.B.V.V.C.C.V.C.C.C.C.B.V.C.C.V.A.Z.V.B.N.N.M.n.n.n.n.M.N.N.B.k.g.V.x.Q =.",
"I g.x.@.y.M.m.n.n.m.N.B.V.V.V.V.N.M.M.N.B.M.M.B.B.B.N.N.B.C.V.B.V.V.V.C.Z.Z.A.C.V.V.V.Z.C.V.B.M.M.M.m.M.m.M.M.M.N.C.l.y.S.x.Q =.",
"I a.&.O.v.M.m.M.M.N.B.B.B.B.V.V.M.M.M.M.N.N.M.N.N.N.N.N.N.C.B.B.B.B.N.B.B.V.C.C.B.V.Z.Z.Z.V.B.N.M.M.M.N.N.N.N.N.N.B.N.e.h.b.Q =.",
"I w.O.k.M.m.M.M.M.B.V.B.B.B.V.V.N.M.M.N.N.B.M.N.B.M.N.N.B.V.C.B.V.N.M.N.B.V.V.V.C.A.A.Z.C.B.N.N.M.M.m.B.B.N.N.B.B.N.N.m.t.c.W =.",
"I q.*.v.M.M.m.m.m.M.B.V.C.C.C.C.B.N.M.M.N.M.m.M.N.M.N.B.V.V.Z.Z.B.N.M.M.N.B.B.V.B.B.B.V.V.N.N.M.n.m.m.B.V.V.N.M.N.N.M.m.p.v.! -.",
"P w.&.v.M.m.m.b.n.N.N.V.C.Z.Z.C.B.N.M.M.N.m.m.m.N.N.N.N.B.C.A.A.V.B.M.M.B.B.V.V.M.m.m.N.N.B.M.m.m.m.m.B.B.B.N.M.m.M.M.m.a.m.! ;.",
"P w.*.v.M.m.n.n.M.V.B.C.C.Z.C.C.N.N.N.N.N.M.M.M.M.N.N.N.B.V.Z.A.C.B.M.N.B.B.B.B.M.m.n.M.M.M.M.m.n.n.m.N.M.M.M.N.m.m.m.M.a.m.! ;.",
"I w.*.v.N.M.m.m.B.Z.C.V.V.C.C.V.B.N.N.N.N.N.N.N.M.N.B.B.B.V.C.C.Z.V.M.M.m.N.B.N.M.m.m.N.m.m.M.m.m.m.M.M.M.m.M.B.N.M.M.B.s.m.~ ;.",
"I w.*.c.N.M.M.M.N.C.V.V.B.B.B.N.B.N.M.M.B.N.M.M.N.N.N.N.V.C.Z.A.A.V.M.M.n.M.N.N.M.m.M.M.b.n.m.b.b.m.m.m.N.m.M.N.N.N.B.C.d.n.~ ;.",
"I w.&.c.M.M.N.M.M.N.B.V.N.N.N.N.B.N.m.m.M.N.N.N.N.N.N.N.N.B.C.S.D.Z.M.n.m.M.M.N.N.N.N.m.n.n.m.n.n.m.m.M.N.m.M.N.N.B.V.Z.d.n.~ ;.",
"U w.&.x.m.m.B.N.M.M.N.V.B.N.B.N.N.N.N.M.N.N.N.N.M.M.N.B.M.N.V.A.S.S.V.m.M.M.m.M.N.M.m.m.b.n.m.n.b.n.n.M.M.M.M.N.B.B.V.C.d.n.! ;.",
"I w.*.x.n.B.V.C.C.N.N.B.V.B.V.B.N.N.N.N.b.l.j.h.g.h.h.h.j.l.z.z.l.z.k.j.j.h.g.h.h.h.f.f.z.b.m.n.c.b.n.n.m.N.M.m.M.N.B.B.s.m.! :.",
"I w.=.v.M.C.V.Z.V.N.B.V.B.B.N.B.B.N.N.l.-.@.1.<.,.,.,.,.1.3.4.2.2.3.3.3.2.1.<.1.2.2.<.4.l.M.n.b.b.m.m.m.M.N.N.M.M.N.N.M.p.b.~ ,.",
"I w.*.n.M.B.N.B.B.N.N.V.N.M.M.N.N.M.h...T ,.2.;.;.-.*.*.;.>.:.;.>.>.>.>.,.,.:.:.>.>.:.4.z.Z.N.v.b.n.n.n.m.M.M.M.M.n.n.n.p.n.~ >.",
"I w. .=.>.<.<.<.,.,.>.:.:.:.:.:.>.>.[ H *.>.p.B.N.m.n.n.m.N.M.M.M.N.N.N.B.N.N.B.B.N.M.8.,.l.h.<.;.;.;.;.:.:.:.>.,.;.=.-.3.M.~ >.",
"I q.] / _ ' ' ] ] ' ' ` ` _ ` ` _ ` ) $.*.>.l.m.n.n.n.b.b.n.v.b.n.m.m.m.m.m.M.M.m.m.n.f.%.>.1.' ) ) ( ) ) ) _ _ ` _ ) ( &.M.^ ,.",
"I r.} {  ...X.X.o.o....... . ... . ...| =.:.#.%.%.&.%.#.$.%.$.$.$.%.%.&.&.%.&.&.*.*.&.#.>.#.}  .| } | | } } | | | |  .| ;.M.^ >.",
"U r.( ] +.+.+.@.+.+.+.+.+.+.O.O.O.O.o.O.#.@.+.+.+.@.+.O.+.@.+.+.+.+.@.@.@.@.@.@.#.#.@.@.@.#.O.+.O.O.O.O.O.O.O.O.+.O.+.X.-.B.~ ;."
};
