/* XPM */
static char *result[] = {
/* columns rows colors chars-per-pixel */
"64 64 176 2 ",
"   c #23170F",
".  c #4D3C23",
"X  c #5F4A2C",
"o  c #56422B",
"O  c #554833",
"+  c #765523",
"@  c #5A4E40",
"#  c #716348",
"$  c #85612C",
"%  c #856943",
"&  c #88764B",
"*  c #8B7A4E",
"=  c #967943",
"-  c #9A7B44",
";  c #817350",
":  c #8D7651",
">  c #977753",
",  c #957E54",
"<  c #967E58",
"1  c #8A7D66",
"2  c #8D8259",
"3  c #9A8357",
"4  c #95835C",
"5  c #9C875F",
"6  c #9F885B",
"7  c #BA944E",
"8  c #A5875D",
"9  c #AD915C",
"0  c #B49557",
"q  c #BA9452",
"w  c #BB9957",
"e  c #B39559",
"r  c #B8975B",
"t  c #B79A5D",
"y  c #BB9B5E",
"u  c #9B8B63",
"i  c #9E9377",
"p  c #A39161",
"a  c #A4946D",
"s  c #A9946F",
"d  c #AF9969",
"f  c #B69B63",
"g  c #BC9E64",
"h  c #B59D6C",
"j  c #BA9E6A",
"k  c #B19563",
"l  c #AD9D70",
"z  c #AE9F7F",
"x  c #B39F71",
"c  c #B69F7A",
"v  c #B6A067",
"b  c #BDA164",
"n  c #B7A16A",
"m  c #BDA36B",
"M  c #BEA96E",
"N  c #AFA072",
"B  c #B6A373",
"V  c #BCA473",
"C  c #BDA974",
"Z  c #B5A57A",
"A  c #BBA67C",
"S  c #BDA97B",
"D  c #B4AB7D",
"F  c #C09E5D",
"G  c #C4A25F",
"H  c #C29E62",
"J  c #C3A365",
"K  c #CDAA66",
"L  c #C2A56B",
"P  c #C4A96C",
"I  c #C9AB6D",
"U  c #D3AC6B",
"Y  c #C2A672",
"T  c #C4AB74",
"R  c #C9AC74",
"E  c #C1A77A",
"W  c #C3AC7B",
"Q  c #CAAE7C",
"!  c #C6B277",
"~  c #CBB175",
"^  c #C6B17C",
"/  c #CBB27C",
"(  c #CDB97F",
")  c #D2B67D",
"_  c #D2B97E",
"`  c #A39880",
"'  c #AEA686",
"]  c #B2A283",
"[  c #B9A682",
"{  c #B5AA84",
"}  c #BCAD83",
"|  c #BBAB8B",
" . c #BDB085",
".. c #BEB48C",
"X. c #B5AA93",
"o. c #BDAF93",
"O. c #BFB395",
"+. c #B7B09E",
"@. c #BCB298",
"#. c #BDB898",
"$. c #C4AE82",
"%. c #CAAE82",
"&. c #C1AF8D",
"*. c #C6B184",
"=. c #CAB485",
"-. c #CDB984",
";. c #C5B48B",
":. c #CBB58A",
">. c #CDB98C",
",. c #D2B685",
"<. c #D3BA84",
"1. c #D4B788",
"2. c #D2BC8D",
"3. c #D9BE8D",
"4. c #C4B593",
"5. c #CEB590",
"6. c #C6BA94",
"7. c #CCBC93",
"8. c #C2B699",
"9. c #C6BB9C",
"0. c #CCBD9B",
"q. c #D2BD92",
"w. c #C4BBA4",
"e. c #CABEA5",
"r. c #C6BDAD",
"t. c #D9C086",
"y. c #D4C08D",
"u. c #DEC38A",
"i. c #CFC097",
"p. c #CEC29B",
"a. c #D5C194",
"s. c #DAC494",
"d. c #D3C39B",
"f. c #D9C59A",
"g. c #D6C99C",
"h. c #DDC99E",
"j. c #E1C189",
"k. c #E1CA96",
"l. c #E1C498",
"z. c #E4CC9C",
"x. c #CDC2A3",
"c. c #CDC5AC",
"v. c #CFCAA9",
"b. c #D2C3A3",
"n. c #D3C8A5",
"m. c #D9CBA3",
"M. c #D3C5A9",
"N. c #D5CBAD",
"B. c #DBCDAD",
"V. c #DDD2AF",
"C. c #C5C0B0",
"Z. c #CBC6B1",
"A. c #CEC8B1",
"S. c #CCCABC",
"D. c #D5CCB3",
"F. c #DACDB2",
"G. c #DCD2B5",
"H. c #DDD4BC",
"J. c #DED9BC",
"K. c #D3D1BB",
"L. c #E0CCA1",
"P. c #E1D2B4",
"I. c #E6DEB4",
"U. c #E3D7BD",
"Y. c #EAD7B9",
"T. c #E4D8BD",
"R. c #E9DAB4",
"E. c #EDE1BC",
"W. c #E2D7C0",
"Q. c #E3DCC2",
"!. c #E8E0C6",
"~. c #E8E2CD",
"^. c #FAE8CC",
"/. c #F2EDD7",
"(. c #F0E7D8",
"). c None",
/* pixels */
").).).).).).).).).).).).).).).).).).).).).).).).).).Z.).).).).).o.` ).).).).).).).).).).).).).).).).).).).).).).).).).).).).).).",
").).).).).).).).).).).).).).).).).).).).).).).).).).s d.).).).b., : ).).).).).).).).).).).).).).).).).).).).).).).).).).).).).).",
").).).).).).).).).).).).).).).).).).).).).).).).).).M g T *.M = + % ).).).).).).).).).).).).).).).).).).).).).).).).).).).).).).",
").).).).).).).).).).).).).).).).).).).).).).).).).f.j.H 0 g y q $ > ).).).).).).).).).).).).).).).).).).).).).).).).).).).).).).",
").).).).).).).).).).).).).).).).).).).).).).).).F.$.Q g / W k J R - } ).).).).).).).).).).).).).).).).).).).).).).).).).).).).).",
").).).).).).).).).).).).).).).).).).).).).).).(.Y.: 8 ,.8 X 3 / ~ b k ).).).).).).).).).).).).).).).).).).).).).).).).).).).).).",
").).).).).).).).).).).).).).).).).).).).).).)./.Y.d.a.y.9 4 } a.3._ g W ).).).).).).).).).).).).).).).).).).).).).).).).).).).).",
").).).).).).).).).).).).).).).).).).).).).).)./.c.O # g.i.m.g.d.>.R y e B.).).).).).).).).).).).).).).).).).).).).).).).).).).).",
").).).).).).).).).).).).).).).).).).).).).).).).X.  @ p.;.;.7.;.-.T f w h ).).).).).).).).).).).).).).).).).).).).).).).).).).).",
").).).).).).).).).).).).).).).).).).).).).).).).9.o . # * A ^ =.>.T R b e b.).).).).).).).).).).).).).).).).).).).).).).).).).).",
").).).).).).).).).).).).).).).).).).).).).).).).P.Z 3 5 n S ^ >.E W =.T H } ).).).).).).).).).).).).).).).).).).).).).).).).).).",
").).).).).).).).).).).).).).).).).).).).).).).).V.a.y.*.C V =.*.^ %.=.-.) S P.).).).).).).).).).).).).).).).).).).).).).).).).).",
").).).).).).).).).).).).).).).).).).).).).).).).R.<.~ C M C $.=.:.-.1.1.2.W $.).).).).).).).).).).).).).).).).).).).).).).).).).",
").).).).).).).).).).).).).).).).).).).).).).).).R.s.( C S ! ;.^ $.=.2.q.1.=.B F.).).).).).).).).).).).).).).).).).).).).).).).).",
").).).).).).).).).).).).).).).).).).).).).).).4.s.s.^ C W ! W *.$.:.=.2.a.Q L V T.).).).).).).).).).).).).).).).).).).).).).).).",
").).).).).).).).).).).).).).).).).).).).).B.V n y.s.y.S C S *.*.:.>.2.7.s.) L q 0 h $.D.).).).).).).).).).).).).).).).).).).).).",
").).).).).).).).).).).).~.F.x.6.:.$.S B V f H y ~ s.t.W M C S *.=.*.:.a.y.R J 7 7 K b f n C n n V E *.>.x.).).).).).).).).).).).",
").).).).).).).).).).Q.| A S T V H j g y t g y H m t.<.! M C ! ^ :.:.=.:.1.R I J w J K U K G G J I / / T C V 6.).).).).).).).).).",
").).).).).).).).).Q.B C R 2.2.>.=.E m T W R Y Y T ~ <.~ C ! ! *.=.:.-.-.-./ ~ ~ J P P J I P ~ / <.3.2.2.2./ B } ).).).).).).).).",
").).).).).).).).).D W -.W *.>.:.:.=.%.-.=.^ / -.=.T P R P C T ! W Q W R W R R / ~ ! ~ R ~ / ^ >.=.;.:.>.*.$.:.$.A ).).).).).).).",
").).).).).).).).D.^ 2.>.:.$.>.2.:.W Q =.;.:.*.*.:.=.m J R P P M P Y Y R M ~ ! T ^ *.=.=.^ ^ *.=.$.;.:.>.:.:.q.q.*.$.).).).).).).",
").).).).).).).)...-.i.;.>.:.:.2.1.S W =.$.*.;.;.*.=.W b J P P m m P J b J M M V W W ;.=.*.$.*.=.;.:.:.:.>.>.>.>.q.E W.).).).).).",
").).).).).).).). .-.y.>.>.:.:.2.%.V W %.*.;.=.;.;.$.$.W b J m b b b f m P M V ! *.$.W *.:.:.:.$.:.%.;.;.;.6.>.7.a.%.0.).).).).).",
").).).).).).).).S y.6.7.>.:.:.>.$.V W *.W *.=.W $.=.*.=.J L m T S W C W E C C ! *.=.*.$.*.$.:.:.:.:.;.;.;.;.>.>.2.-.$.).).).).).",
").).).).).).).D.W a.7.>.>.>.;.=.W V W :.:.$.W $.%.$.:.%.J b T W *.*.*.$.$.*.$.$.*.:.$.=.=.:.*.=.:.$.$.;.%.;.>.:.>.3.[ ).).).).).",
").).).).).).).V.*.q.>.>.>.;.*.=.S V %.%.:.*.S $.$.$.=.Q f b *.:.*.>.:.*.$.$.$.>.>.*.*.*.%.;.=.$.%.E $.:.;.;.:.>.>.2.S J.).).).).",
").).).).).).).N.E 2.>.q.>.:.=.:.W j E :.=.*.*.$.%.$.:.T t m -.:.*.:.*.*.$.$.} =.>.:.:.;.$.*.=.$.E V $.:.;.%.5.5.7.q.Q ;.).).).).",
").).).).).).).;.W 2.>.2.>.*.*.2.W V %.%.W $.$.$.$.$.:.T t J <.-.*.*.*.*.$.*.$.$.$.$.$.:.$.$.$.%.Y x W :.*.;.>.7.q.:.Q k G.).).).",
").).).).).).).Z C -.2.2.>.:.$.:.W E %.=.%.$.*.=.%.:.2.R r b <.-.*.;.$.$.:.*.$.:.$.$.$.} W *.*.T m m ^ :.:.:.:.>.>.>.~ g $.).).).",
").).).).).).).n T -.:.:.>.>.:.:.*.Y Y T W *.;.*.:.:.>.Y r g / >.;.*.=.;.>.*.=.=.$.$.%.$.=.-.*.V g n ! *.:.:.>.:.:.;.E L j ).).).",
").).).).).).Q.B T %.:.>.>.>.:.:./ Y m V C W *.$.:.:.>.L 0 g R *.=.;.>.;.=.:.2.>.:.:.%.=.$.*.E V b v C *.=.$.>.>.;.*.! L k ).).).",
").).).).).).).d T W =.:.>.%.$.:.W I J g V C W $.$.*.2.L 0 J / -.=.=.>.;.:.:.7.:.4.%.;.$.$.W V m T f V ! *.^ *.*.;.^ / J f ).).).",
").).).).).).).h Y W $.:.:.$.*.:.W m G r y V E Y T *.<.R 0 J <.-.=.>.=.:.>.>.>.>.-.=.$.$.W Y L Q R f H Y / :.^ ! ^ =./ L f ).).).",
").).).).).).).C Y %.=.=.*.*.*.$.W b b H r j L J L I I J f y ^ -.^ -.-.*.2.2.y.-.*.-.Q Y m b Y -.W Y f Y =.E S =.;.:.*.L n ).).).",
").).).).).).). .M *.=.$.$.:.-.W M y b I L g g F F J J y y y L R M T P P Q <.-.<.Q Y L g r P -.} G.E.E m Y V W :.=.:.%.V C ).).).",
").).).).).).).0.b *.:.=.$.S =.W f f ,.3.Q R I J I L b J b L m L v f f f g j L L H g g f J W ..Q.).).h.f E $.$.;.*.;.=.W A ).).).",
").).).).).).).H.V *.=.=.$.V Y T f 5.^.L.$.W j.) ) ) Y P L g b g L L Y L m L T T M b M R W } 9.).).). .S ^ ;.=.:.=.;.*.*.V ).).).",
").).).).).).).).V *.;.*.$.W Y j =.).).Q.$.E 3.T Q / R ) P P T Y j j L L J Y =.2.y.S ! =.-.Z H.).).g.C ^ ^ *.*.;.:.*.*.=.S x.).).",
").).).).).).).).S =.*.*.%.*.%.T W ).).).7.%.l.$.,.R Y R H ,.u._ R L Y V H j Q ,.=.*.^ =.$.;.).).).V W *.*.*.S *.;.$.*.;.$.4.).).",
").).).).).).).F.[ =.=.=.*.*.*.$.V e.).).N.=.z.=.^ <.1.I g R Y m j J H j V H Q 1.=.^ ^ ^ Z W.).).N.h ^ *.^ *.W *.=.$.$.*.W | ).).",
").).).).).).).D.E =.$.=.$.;.*.*.%.B H.).W.:.k.*./ ^ T g g / <.T m g J m m m P ~ ~ C M M  .).).). .g Q W $.$.$.$.$.$.*.*.T D ).).",
").).).).).).).D.$.*.$.$.$.$.*.*.W j 0.).G.:.k.W ^ 3.3./ m R 1.~ R R P J J b m P v t t b b.).).).W g W *.*.$.$.*.>.$.^ ^ C A ).).",
").).).).).).).D.Z %.$.$.$.$.$.*.W f [ ).M.Q k.~ W ,.T R b <.<.m b g g y M P / ( b G G t m.).).).$.j ^ *.*.*.$.:.:.$.*.*.C ;.).).",
").).).).).).).).V *.*.=.=.$.*.=.Q g c ).x.m t./ Y ,.Q Y f / 3.R P ~ L b ~ ( ( ~ J J J b m.).).).7.g ~ =.=.=.*.$.$.:.:.=.B b.).).",
").).).).).).).).Z *.*.:.$.$.*.$./ j &.).F.k L R L T ,.Q m / Q L L L b Y y.3.-.) K b H f F.).).).F.h %.>.>.>.:.*.$.>.>.=.N ).).).",
").).).).).).).). .*.=.=.*.=.=.;.Q h ).).).$.f P ) T Q / J =.,.L I L b <.y.:./ Y b b J f T.).).).).&.$.q.>.5.=.$.*.=.2.>...).).).",
").).).).).).).).8.^ :.$.*.>.>.1.E A ).).).).P P ( -.Y P L Q T b J y P t.:.=.:.,.~ I G L ).).).).).] Z :.2.>.:.%.*.-.y.;.).).).).",
").).).).).).).).).;.7.:.:.>.2.>.S Z ).).).).W b T E / V T %.W I M ! -.=.! W :.<.R y y Y ).).).).e.s $.%.;.:.:.:.=.:.;.v.).).).).",
").).).).).).).).).9.6.:.=.:.>.:.*.d @.).).).h Y Q Q =.Q h V W f L / *.%.%.W C T T ~ I h ).).).).u S :.:.>.>.:.:.>.$.| ).).).).).",
").).).).).).).).).).6.a.2.q.q.q.>.$.a X.).).S Q %.*.1.<.C B.).q.h *.W W W W W W W *.R h ).).).5 c *.2.2.q.2.2.5.q.4.).).).).).).",
").).).).).).).).).).H.a.s.q.q.a.q.>.E u ' ).e.%.-...>.7.} ).).).V E W =.*./ *.%.*.=.T D ).).i u *.>.>.>.>.>.2.d.i.).).).).).).).",
").).).).).).).).).).).p.a.2.q.q.q.5.>.x 2 ).).W -.*.=.*. .).).).V.B <.2.:.$.$.:.;.3.^ x.).).u *.>.7.>.q.2.>.7.0.H.).).).).).).).",
").).).).).).).).).).).D.d.2.a.a.q.q.q.%.u S.).Z ~ =.-.D ..).).).).n.;.q.:.:.$.*.>.3.A ).).).a h B i.>.a.a.>.0.M.).).).).).).).).",
").).).).).).).).).).).).0.y.a.s.s.f.c h a ).).4.C ^ :.W 9.).).).).).8.$.-.>.>.=.:.Y 4.).).w.& 3 ;.g.h.g.a.a.0.).).).).).).).).).",
").).).).).).).).).).).).F.d.L.h.h.m.$.4 1 ).).B.v ^ <.M V.).).).).).).] *.>.=.*.1.h ).).).).8.| -.g.6.g.g.i.H.).).).).).).).).).",
").).).).).).).).).).).).).O.0.a.$.0.>.{ ).).).n.9 ~ / k B.).).).).).).).Z ! ~ ~ R B ).).).).).' i.D D g.8.x.).).).).).).).).).).",
").).).).).).).).).).).).).).c.G...;.e.).).).).4.f Y *.T 4.).).).).).).).6.n ^ *.k $.).).).).).).K.#.v.J.+.).).).).).).).).).).).",
").).).).).).).).).).).).).).).).).).).).).).).).E 1.-.-.;.).).).).).).).8.*.>.-.^ b.).).).).).).).).).).).).).).).).).).).).).).",
").).).).).).).).).).).).).).).).).).).).).).).).8.1.:.2.9.).).).).).).).M.>.:.y.*.).).).).).).).).).).).).).).).).).).).).).).).",
").).).).).).).).).).).).).).).).).).).).).).).).).[ 1.*.o.).).).).).).).G.*.:.=.} ).).).).).).).).).).).).).).).).).).).).).).).",
").).).).).).).).).).).).).).).).).).).).).).).).).w.$.>.8.).).).).).).).).| <.W 8.).).).).).).).).).).).).).).).).).).).).).).).",
").).).).).).).).).).).).).).).).).).).).).).).).).).4.$.D.).).).).).).).).9.*.[ ).).).).).).).).).).).).).).).).).).).).).).).).",
").).).).).).).).).).).).).).).).).).).).).).).).).K.9.z A.).).).).).).).).i.} x.).).).).).).).).).).).).).).).).).).).).).).).).",
").).).).).).).).).).).).).).).).).).).).).).).).).).).).).).).).).).).).C...X.r.).).).).).).).).).).).).).).).).).).).).).).).)."
};
