/* XPM */
static char *result[] = {
/* columns rows colors chars-per-pixel */
"64 64 239 2 ",
"   c #000000",
".  c #191200",
"X  c #140700",
"o  c #271706",
"O  c #2C2309",
"+  c #3D280B",
"@  c #2B2417",
"#  c #382B18",
"$  c #432A09",
"%  c #432D12",
"&  c #492F16",
"*  c #4B3415",
"=  c #4B351A",
"-  c #47351A",
";  c #5C3515",
":  c #543D1D",
">  c #5B3C1C",
",  c #553718",
"<  c #403200",
"1  c #653C1C",
"2  c #493C26",
"3  c #583B21",
"4  c #6C3F21",
"5  c #57451A",
"6  c #4D4F07",
"7  c #68421D",
"8  c #6B591A",
"9  c #75631B",
"0  c #5C4323",
"q  c #5D4A2B",
"w  c #594527",
"e  c #594D37",
"r  c #534D38",
"t  c #6C4422",
"y  c #6C4A25",
"u  c #634B2B",
"i  c #6B4C2C",
"p  c #654626",
"a  c #724525",
"s  c #734925",
"d  c #734D2B",
"f  c #7A4D2B",
"g  c #784826",
"h  c #63522F",
"j  c #6B522C",
"k  c #69582C",
"l  c #74532D",
"z  c #7B522D",
"x  c #755A28",
"c  c #634E35",
"v  c #7B4F31",
"b  c #645434",
"n  c #6A5837",
"m  c #745432",
"M  c #7B5432",
"N  c #7C5A34",
"B  c #7B5B3A",
"V  c #715A38",
"C  c #6A6439",
"Z  c #746339",
"A  c #78672F",
"S  c #675947",
"D  c #745C45",
"F  c #746243",
"G  c #7A6847",
"H  c #7A734A",
"J  c #656153",
"K  c #796A58",
"L  c #7E7259",
"P  c #824D2A",
"I  c #8A4E2E",
"U  c #804826",
"Y  c #82552D",
"T  c #845A2D",
"R  c #8E522E",
"E  c #915B2F",
"W  c #835533",
"Q  c #8A5533",
"!  c #845A35",
"~  c #8C5C34",
"^  c #855D39",
"/  c #8B5D39",
"(  c #935B36",
")  c #86622C",
"_  c #846135",
"`  c #8C6135",
"'  c #84633B",
"]  c #8B633B",
"[  c #8C6B3D",
"{  c #826F3F",
"}  c #926435",
"|  c #93653B",
" . c #9B653C",
".. c #946B3E",
"X. c #9B6C3C",
"o. c #9B723E",
"O. c #8A703B",
"+. c #A1693D",
"@. c #8B6941",
"#. c #856B43",
"$. c #956C42",
"%. c #996B45",
"&. c #8B7549",
"*. c #947143",
"=. c #9C7443",
"-. c #98784A",
";. c #887956",
":. c #947D54",
">. c #927755",
",. c #A27544",
"<. c #A37B44",
"1. c #A37C4A",
"2. c #AA7648",
"3. c #B07C4C",
"4. c #A87E52",
"5. c #8A7D62",
"6. c #957E64",
"7. c #958154",
"8. c #9C8453",
"9. c #9C845B",
"0. c #9D895A",
"q. c #92845C",
"w. c #95834E",
"e. c #AA844E",
"r. c #AA834A",
"t. c #B4864D",
"y. c #A48253",
"u. c #AC8B54",
"i. c #A48A5A",
"p. c #A78657",
"a. c #B28552",
"s. c #B48D54",
"d. c #B38D5B",
"f. c #BB8C57",
"g. c #AC935E",
"h. c #AB9457",
"j. c #B4935B",
"k. c #B9965B",
"l. c #B1A058",
"z. c #8B8566",
"x. c #94896D",
"c. c #9B8C6D",
"v. c #978665",
"b. c #9E916C",
"n. c #9F9464",
"m. c #958976",
"M. c #9B947B",
"N. c #8A8670",
"B. c #AB8B62",
"V. c #A48C67",
"C. c #A49263",
"Z. c #AB9363",
"A. c #AB9669",
"S. c #AE996C",
"D. c #A99867",
"F. c #B49564",
"G. c #B39A62",
"H. c #BB9B65",
"J. c #B39C6B",
"K. c #BB9C6A",
"L. c #B89666",
"P. c #A49374",
"I. c #AC9B7B",
"U. c #A79877",
"Y. c #B49C74",
"T. c #B39E7F",
"R. c #BDA36C",
"E. c #B7A467",
"W. c #BCA473",
"Q. c #B8A479",
"!. c #C39A5C",
"~. c #C79B62",
"^. c #C3A46D",
"/. c #C9A567",
"(. c #C3AA74",
"). c #C4AD7B",
"_. c #CBAE7D",
"`. c #C5A872",
"'. c #CBB27C",
"]. c #CAB178",
"[. c #9C9284",
"{. c #A59886",
"}. c #AF9796",
"|. c #ACA38A",
" X c #B4A486",
".X c #BAAB84",
"XX c #B3A38C",
"oX c #BBAB8C",
"OX c #B7A78A",
"+X c #BBAB92",
"@X c #B7AB97",
"#X c #BDB39A",
"$X c #BBB499",
"%X c #AAAC8B",
"&X c #BCB5A3",
"*X c #B2AEA1",
"=X c #C4AD83",
"-X c #C0AC8E",
";X c #C5B586",
":X c #CAB382",
">X c #C2B28C",
",X c #CCB98D",
"<X c #CAB58B",
"1X c #D5BA8A",
"2X c #C0AE93",
"3X c #C4B493",
"4X c #CBBB93",
"5X c #C8B89B",
"6X c #D2BE93",
"7X c #C3BBA5",
"8X c #C9B9A2",
"9X c #CBB9B5",
"0X c #CCB6A5",
"qX c #D6C39A",
"wX c #DCD098",
"eX c #E2C79A",
"rX c #D5C3A4",
"tX c #D4CCB8",
"yX c #D5D0AA",
"uX c #E4D2A8",
"iX c #EDECB0",
"pX c #EEED90",
"aX c #CBB3C2",
"sX c #DEDDD3",
"dX c #D6CFC7",
"fX c #E4DCCD",
"gX c #E4DFD4",
"hX c #D9E1CD",
"jX c #E7E3CE",
"kX c #F1EDCA",
"lX c #E8E6D6",
"zX c #FCF6DC",
"xX c #F6F1D2",
"cX c #EEEBE3",
"vX c #FDFBEA",
"bX c #F9F6E7",
"nX c #FFFEF4",
"mX c #F3ECE7",
"MX c None",
/* pixels */
"MXMXMXMXMXMXMXMXMXMXMXMXMXMXMXMXMXMXMXMXMXMXMXMXMXMXMXMXMXMXMXMXMXMXMXMXMXMXMXMXMXMXMXMXMXMXMXMXMXMXMXMXMXMXMXMXMXMXMXMXMXMXMXMX",
"MXMXMXMXMXMXMXMXMXMXMXMXMXMXMXMXMXMXMXMXMXMXMXMXMXMXMXMXMXMXMXMXMXMXMXMXMXMXMXMXMXMXMXMXMXMXMXMXMXMXMXMXMXMXMXMXMXMXMXMXMXMXMXMX",
"MXMXMXMXMXMXMXMXMXMXMXMXMXMXMXMXMXMXMXMXMXMXMXMXMXMXMXMXMXMXMXMXMXMXMXMXMXMXMXMXMXMXMXMXMXMXMXMXMXMXMXMXMXMXMXMXMXMXMXMXMXMXMXMX",
"MXMXMXMXMXMXMXMXMXMXMXMXMXMXMXMXMXMXMXMXMXMXMXMXMXMXMXMXMXMXMXMXMXMXMXMXMXMXMXMXMXMXMXMXMXMXMXMXMXMXMXMXMXMXMXMXMXMXMXMXMXMXMXMX",
"MXMXMXMXMXMXMXMXMXMXMXMXMXMXMXMXMXMXMXMXMXMXMXMXMXMXMXMXMXMXMXMXMXMXMXMXMXMXMXMXMXMXMXMXMXMXMXMXMXMXMXMXMXMXMXMXMXMXMXMXMXMXMXMX",
"MXMXMXMXMXMXMXMXMXMXMXMXMXMXMXMXMXMXMXMXMXMXMX< 8 x A A 8 6 MXMXMXMXMXMXMXMXMXMXMXMXMXMXMXMXMXMXMXMXMXMXMXMXMXMXMXMXMXMXMXMXMXMX",
"MXMXMXMXMXMXMXMXMXMXMXMXMXMXMXMXMXMXMXMXMXMX+ w.o.O.O.*.{ l 5 V G . MXMXMXMXMXMXMXMXMXMXMXMXMXMXMXMXMXMXMXMXMXMXMXMXMXMXMXMXMXMX",
"MXMXMXMXMXMXMXMXMXMXMXMXMXMXMXMXMXMXMXMXMXMX) [ ..| [ [ ] z 1 B #.B b   MXMXMXMXMXMXMXMXMXMXMXMXMXMXMXMXMXMXMXMXMXMXMXMXMXMXMXMX",
"MXMXMXMXMXMXMXMXMXMXMXMXMXMXMXMXMXMXMXMXMX9 <.T ..$...| | ` / @.] 7 Z p w MXMXMXMXMXMXMXMXMXMXMXMXMXMXMXMXMXMXMXMXMXMXMXMXMXMXMX",
"MXMXMXMXMXMXMXMXMXMXMXMXMXMXMXMXMXMXMXMXMXu...) ,.1.o.}  .( ( $.$.^ -.j = D MXMXMXMXMXMXMXMXMXMXMXMXMXMXMXMXMXMXMXMXMXMXMXMXMXMX",
"MXMXMXMXMXMXMXMXMXMXMXMXMXMXMXMXMXMXMXMX5 K.o.r.p.d.L.2.( ( ( ( Y ~ >.t > p [.MXMXMXMXMXMXMXMXMXMXMXMXMXMXMXMXMXMXMXMXMXMXMXMXMX",
"MXMXMXMXMXMXMXMXMXMXMXMXMXMXMXMXMXMXMXMXq G.y.B.D c ^ ] ~ E R %.~ a t ; 1 m F MXMXMXMXMXMXMXMXMXMXMXMXMXMXMXMXMXMXMXMXMXMXMXMXMX",
"MXMXMXMXMXMXMXMXMXMXMXMXMXMXMXMXMXMXMXMXn *.@.n r # - >.K.4. .+...g f 1 s N i |.MXMXMXMXMXMXMXMXMXMXMXMXMXMXMXMXMXMXMXMXMXMXMXMX",
"MXMXMXMXMXMXMXMXMXMXMXMXMXMXMXMXMXMXMXMXu 7 1 V [.[.I.-XeX1Xd.,.} Y ~ z Y W i ;.mXMXMXMXMXMXMXMXMXMXMXMXMXMXMXMXMXMXMXMXMXMXMXMX",
"MXMXMXMXMXMXMXMXMXMXMXMXMXMXMXMXMXMXMX. > 7 N 6.{.#X8X6XuX6X^.e...` ~ / ~ | @.b [.MXMXMXMXMXMXMXMXMXMXMXMXMXMXMXMXMXMXMXMXMXMXMX",
"MXMXMXMXMXMXMXMXMXMXMXMXMXMXMXMXMXMX  O k &.p.V.M.XX9XtXuXqX].K.e.$.o.| | ..] N c XXMXMXMXMXMXMXMXMXMXMXMXMXMXMXMXMXMXMXMXMXMXMX",
"MXMXMXMXMXMXMXMXMXMXMXMXMXMXMXMXMX    # k 0.w.:.N.N.$XrXrXqX:XW.B.-.| / / / W W M n |.MXMXMXMXMXMXMXMXMXMXMXMXMXMXMXMXMXMXMXMXMX",
"MXMXMXMXMXMXMXMXMXMXMXMXMXMXMXMXMX    o n v.V.:.e b b.oX$X.X(.S.d.,.^ W ( ^ W ^ ^ #.V [.MXMXMXMXMXMXMXMXMXMXMXMXMXMXMXMXMXMXMXMX",
"MXMXMXMXMXMXMXMXMXMXMXMXMXMXMXMXMX    X F z.>.u + b b.4XqX'.W.h.4.%./ ( Q P W / ! ~ ' F C MXMXMXMXMXMXMXMXMXMXMXMXMXMXMXMXMXMXMX",
"MXMXMXMXMXMXMXMXMXMXMXMXMXMXMXMXMXMXMX  S b h w F z.Q.qXqX].E.u.-.$./ W I f ^ / ^ ] [ #.F MXMXMXMXMXMXMXMXMXMXMXMXMXMXMXMXMXMXMX",
"MXMXMXMXMXMXMXMXMXMXMXMXMXMXMXMXMXMXMXMXMX5.G ;.c.Q.4X4X<X(.j.r.=.~ W P U I W / [ ] ] { #.G MXMXMXMXMXMXMXMXMXMXMXMXMXMXMXMXMXMX",
"MXMXMXMXMXMXMXMXMXMXMXMXMXMXMXMXMXMXMXMXMX@XN.P..XoXoX;X_.K.s.<.( P Q P U Q / / ] ' ] ' i m G MXMXMXMXMXMXMXMXMXMXMXMXMXMXMXMXMX",
"MXMXMXMXMXMXMXMXMXMXMXMXMXMXMXMXMXMXMXMXMX7X{.oX+XoX.XW.H.a.+.E R I I P ( ( $.$.' [ @.M 4 i c MXMXMXMXMXMXMXMXMXMXMXMXMXMXMXMXMX",
"MXMXMXMXMXMXMXMXMXMXMXMXMXMXMXMXMXMXMXMXMX7XXX X+X+XQ.J.d.t.+.E R R R ( %.%.*.*.*.*._ t f i 3 6.MXMXMXMXMXMXMXMXMXMXMXMXMXMXMXMX",
"MXMXMXMXMXMXMXMXMXMXMXMXMXMXMXMXMXMXMXMXMX}.+XoX+X3X-XW.j.t.2. . .+.+.2.3.2.,.$.*.] 7 t v a y D MXMXMXMXMXMXMXMXMXMXMXMXMXMXMXMX",
"MXMXMXMXMXMXMXMXMXMXMXMXMXMXMXMXMXMXMXMXMXMX+X+X-X5X5X<XR.k.3.2.3.3.3.!.!.3.e.,.] s a v f t f B #XMXMXMXMXMXMXMXMXMXMXMXMXMXMXMX",
"MXMXMXMXMXMXMXMXMXMXMXMXMXMXMXMXMXMXMXMXMXMX+XOX+X5XrX4X).k.s.k.~.~.~.~.k.s.2.| g f v I 4 t W B c.MXMXMXMXMXMXMXMXMXMXMXMXMXMXMX",
"MXMXMXMXMXMXMXMXMXMXMXMXMXMXMXMXMXMXMXMXMXMX$X$X@X8XrX4X]./.!./.`././.~.t.<.o.` W W W 4 ; M ] B F &XMXMXMXMXMXMXMXMXMXMXMXMXMXMX",
"MXMXMXMXMXMXMXMXMXMXMXMXMXMXMXMXMXMXMXMXMXMX$X$X2X0X5X4X:X].].].]./.k.t.r.o.o.o.] ! W ; 1 ! ' ' c @XMXMXMXMXMXMXMXMXMXMXMXMXMXMX",
"MXMXMXMXMXMXMXMXMXMXMXMXMXMXMXMXMXMXMXMXMXMX&X&X#X2X3X4X1X:X].W.k.s.s.s.t.t.a.,.] ^ f ; d ^ ! ^ 3 D MXMXMXMXMXMXMXMXMXMXMXMXMXMX",
"MXMXMXMXMXMXMXMXMXMXMXMXMXMXMXMXMXMXMXMXMXMX#X&X5X+X3X4X4X:X(.R.R.^.H.k.k.!.L.,.Q W a 4 v ^ ^ l > 2 dXMXMXMXMXMXMXMXMXMXMXMXMXMX",
"MXMXMXMXMXMXMXMXMXMXMXMXMXMXMXMXMXMXMXMXMXMX@X#X5X@X3X>X;X).(.'.1X'.`.^.^.^.L.| W M 4 t M ! W t > # {.MXMXMXMXMXMXMXMXMXMXMXMXMX",
"MXMXMXMXMXMXMXMXMXMXMXMXMXMXMXMXMXMXMXMXMXMX X|.OX3X5X;X=X=X).)._.'.:X`.`.`.e.W Y f s d W W f t 1 = m.MXMXMXMXMXMXMXMXMXMXMXMXMX",
"MXMXMXMXMXMXMXMXMXMXMXMXMXMXMXMXMXMXMXMXMXMX XI.I.-X3X>X<X,X;X).).'._.`.`.a._ Q ! g a z ^ M s 4 t u m.MXMXMXMXMXMXMXMXMXMXMXMXMX",
"MXMXMXMXMXMXMXMXMXMXMXMXMXMXMXMXMXMXMXMXMXaXb.A.U.-X>XoX;X;X=X).`._._.`.H.=.T ` M g a N ^ f d 4 y i K MXMXMXMXMXMXMXMXMXMXMXMXMX",
"MXMXMXMXMXMXMXMXMXMXMXMXMXMXMXMXMXMXMXMXMX9X0.9.i.Y.oX.XQ.Q.E.K.K.^.^.H.e.} ! ! f a d ^ N d d y s p K MXMXMXMXMXMXMXMXMXMXMXMXMX",
"MXMXMXMXMXMXMXMXMXMXMXMXMXMXMXMXMXMXMXMXMX0X9.g.p.B..X=XY.S.Y.J.G.H.k.e.o.T T z f t l z m z l y M i L MXMXMXMXMXMXMXMXMXMXMXMXMX",
"MXMXMXMXMXMXMXMXMXMXMXMXMXMXMXMXMXMXMXMXMXXX8.G.A.Z.J.T.Q.J.J.Z.k.k.a.o.} E Y z y y m m l l l j l 3 D MXMXMXMXMXMXMXMXMXMXMXMXMX",
"MXMXMXMXMXMXMXMXMXMXMXMXMXMXMXMXMXMXMXMXMX X8.K.J.L.A.A.Y.W.J.G.j.u.<.) E ~ T z y y l l N y i 7 > = MXMXMXMXMXMXMXMXMXMXMXMXMXMX",
"MXMXMXMXMXMXMXMXMXMXMXMXMXMXMXMXMXMXMXMXnXOXi.L.R.Y.S.A.0.A.J.J.G.e.o.) ~ ~ l t 5 u m j j 7 i j u w MXMXMXMXMXMXMXMXMXMXMXMXMXMX",
"MXMXMXMXMXMXMXMXMXMXMXMXMXMXMXMXMXMXMXMXnXOXi.R.(.).v.7.0.C.C.i.g.d.<.} / / f , : p c p 5 p i V q 3 MXMXMXMXMXMXMXMXMXMXMXMXMXMX",
"MXMXMXMXMXMXMXMXMXMXMXMXMXMXMXMXMXMXMXMXvX.Xg.W._..X:.j #.7.&.-.8.L.r.X.} ~ f , * : 0 0 q u l j S MXMXMXMXMXMXMXMXMXMXMXMXMXMXMX",
"MXMXMXMXMXMXMXMXMXMXMXMXMXMXMXMXMXMXMXMXvX.Xg.(.:XQ.{ * p :.:.-.*.G.u.o.o./ M > $ * : q u u u - MXMXMXMXMXMXMXMXMXMXMXMXMXMXMXMX",
"MXMXMXMXMXMXMXMXMXMXMXMXMXMXMXMXMXMXbXjX3XA.G.R.).S.V q 5 Z q.7.-.k.f.o.*._ M 3 % = 5 0 5 h : @ MXMXMXMXMXMXMXMXMXMXMXMXMXMXMXMX",
"MXMXMXMXMXMXMXMXMXMXMXMXMXMXMXbXsXtX|.z.q.7.E.E.Q.C.b q * b &.7.:.j.d.1.../ B 0 % & 3 5 w w # MXMXMXMXMXMXMXMXMXMXMXMXMXMXMXMXMX",
"MXMXMXMXMXMXMXMXMXMXMXMXMXMXjX#X{.x.H C C &.R.G.W.w.h - q ;.z.c.p.Z.s.1...^ V 3 $ & 3 q % @ MXMXMXMXMXMXMXMXMXMXMXMXMXMXMXMXMXMX",
"MXMXMXMXMXMXMXMXMXMXMXMXMXlXm.x.5.H H ;.$X;XG.E.J.&.n F c.c.c.A.U.L.d.=.| z l 3 $ % = - # MXMXMXMXMXMXMXMXMXMXMXMXMXMXMXMXMXMXMX",
"MXMXMXMXMXMXMXMXMXMXMXMXMXlXJ J r &XlXbXbX5Xh.h.0.C V :.M.P.P.I.Y.L.d.1./ d m 0 & # O @ MXMXMXMXMXMXMXMXMXMXMXMXMXMXMXMXMXMXMXMX",
"MXMXMXMXMXMXMXMXMXMXMXMXMXnXcXsXlXMXMXMXlXV.k.h.#.C H c.I.XX X XQ.L.u.=.^ a c 2 o 2 MXMXMXMXMXMXMXMXMXMXMXMXMXMXMXMXMXMXMXMXMXMX",
"MXMXMXMXMXMXMXMXMXMXMXMXMXMXMXMXMXMXbXhXI.i.G.r.k k b. XXXOX XT.S.F.e...B B 3 o K MXMXMXMXMXMXMXMXMXMXMXMXMXMXMXMXMXMXMXMXMXMXMX",
"MXMXMXMXMXMXMXMXMXMXMXMXMXMXvXlXtX%Xv.H 8.G.Z.0.v.x.$X7X7X@X|.m.Z 9.e.| M c S MXMXMXMXMXMXMXMXMXMXMXMXMXMXMXMXMXMXMXMXMXMXMXMXMX",
"MXMXMXMXMXMXMXMXMXMXMXMXMXbXm.x.z.w.A 8.j.G.v.rXvXbXbXbXvXmXmXlX|.p.4.| d e MXMXMXMXMXMXMXMXMXMXMXMXMXMXMXMXMXMXMXMXMXMXMXMXMXMX",
"MXMXMXMXMXMXMXMXMXMXMXMXMX*Xw ;.D.0.Z.W.E.l.,XvXMXMXMXMXMXMXMXMXzXY.<.] 3 6.MXMXMXMXMXMXMXMXMXMXMXMXMXMXMXMXMXMXMXMXMXMXMXMXMXMX",
"MXMXMXMXMXMXMXMXMXMXMXMXMXtXH n.n.S.W.W.l.].xXMXMXMXMXMXMXMXMXMXzXY.1.$.u MXMXMXMXMXMXMXMXMXMXMXMXMXMXMXMXMXMXMXMXMXMXMXMXMXMXMX",
"MXMXMXMXMXMXMXMXMXMXMXMXMXvXI.z.S.E.l.w.E.MXMXMXMXMXMXMXMXMXMXMXzXY.<.[ V MXMXMXMXMXMXMXMXMXMXMXMXMXMXMXMXMXMXMXMXMXMXMXMXMXMXMX",
"MXMXMXMXMXMXMXMXMXMXMXMXMXMXkXx.b.H ;.l.MXMXMXMXMXMXMXMXMXMXMXMXkXB.-.] c MXMXMXMXMXMXMXMXMXMXMXMXMXMXMXMXMXMXMXMXMXMXMXMXMXMXMX",
"MXMXMXMXMXMXMXMXMXMXMXMXMXMXMXkXyXuXpXMXMXMXMXMXMXMXMXMXMXMXMXMXiXB.-._ q MXMXMXMXMXMXMXMXMXMXMXMXMXMXMXMXMXMXMXMXMXMXMXMXMXMXMX",
"MXMXMXMXMXMXMXMXMXMXMXMXMXMXMXMXMXMXMXMXMXMXMXMXMXMXMXMXMXMXMXMXuX:.=.x w MXMXMXMXMXMXMXMXMXMXMXMXMXMXMXMXMXMXMXMXMXMXMXMXMXMXMX",
"MXMXMXMXMXMXMXMXMXMXMXMXMXMXMXMXMXMXMXMXMXMXMXMXMXMXMXMXMXMXMXMXeXB.4.x 5 MXMXMXMXMXMXMXMXMXMXMXMXMXMXMXMXMXMXMXMXMXMXMXMXMXMXMX",
"MXMXMXMXMXMXMXMXMXMXMXMXMXMXMXMXMXMXMXMXMXMXMXMXMXMXMXMXMXMXMXMX;XK.d.N 6 MXMXMXMXMXMXMXMXMXMXMXMXMXMXMXMXMXMXMXMXMXMXMXMXMXMXMX",
"MXMXMXMXMXMXMXMXMXMXMXMXMXMXMXMXMXMXMXMXMXMXMXMXMXMXMXMXMXMXMXiXV.K.G.x MXMXMXMXMXMXMXMXMXMXMXMXMXMXMXMXMXMXMXMXMXMXMXMXMXMXMXMX",
"MXMXMXMXMXMXMXMXMXMXMXMXMXMXMXMXMXMXMXMXMXMXMXMXMXMXMXMXMXMXMX{.P.S.&.C MXMXMXMXMXMXMXMXMXMXMXMXMXMXMXMXMXMXMXMXMXMXMXMXMXMXMXMX",
"MXMXMXMXMXMXMXMXMXMXMXMXMXMXMXMXMXMXMXMXMXMXMXMXMXMXMXMXMXMXMX{.L x.L MXMXMXMXMXMXMXMXMXMXMXMXMXMXMXMXMXMXMXMXMXMXMXMXMXMXMXMXMX",
"MXMXMXMXMXMXMXMXMXMXMXMXMXMXMXMXMXMXMXMXMXMXMXMXMXMXMXMXMXMXMXMXdXgXhXMXMXMXMXMXMXMXMXMXMXMXMXMXMXMXMXMXMXMXMXMXMXMXMXMXMXMXMXMX"
};
