/* XPM */
static char *result[] = {
/* columns rows colors chars-per-pixel */
"64 64 224 2 ",
"   c #050203",
".  c #0B0606",
"X  c #0A0409",
"o  c #0E090B",
"O  c #110B0E",
"+  c #110E10",
"@  c #1D191A",
"#  c #181516",
"$  c #1A100C",
"%  c #21120C",
"&  c #241A17",
"*  c #301915",
"=  c #322116",
"-  c #2A2527",
";  c #363335",
":  c #352E2E",
">  c #47260A",
",  c #4D2D11",
"<  c #523013",
"1  c #5D3C1C",
"2  c #5A3818",
"3  c #522C11",
"4  c #69381C",
"5  c #413F3F",
"6  c #5B3C2C",
"7  c #723A23",
"8  c #793F22",
"9  c #733522",
"0  c #693C22",
"q  c #66421E",
"w  c #5A4321",
"e  c #634323",
"r  c #6A4422",
"t  c #654C2B",
"y  c #6D4D2C",
"u  c #6B4926",
"i  c #754524",
"p  c #7B4325",
"a  c #754C26",
"s  c #7E4329",
"d  c #744D29",
"f  c #7C4C29",
"g  c #7D4C25",
"h  c #7B522A",
"j  c #775029",
"k  c #664B34",
"l  c #7B5736",
"z  c #6D5136",
"x  c #7E613A",
"c  c #7A6337",
"v  c #413E40",
"b  c #434142",
"n  c #47454B",
"m  c #5B5657",
"M  c #5E5146",
"N  c #7C6447",
"B  c #656467",
"V  c #777372",
"C  c #82452A",
"Z  c #844C2B",
"A  c #8B4B2C",
"S  c #84522B",
"D  c #8B532C",
"F  c #88572B",
"G  c #964D31",
"H  c #8D5431",
"J  c #8D5B31",
"K  c #855B36",
"L  c #945532",
"P  c #935C33",
"I  c #9B5D35",
"U  c #995433",
"Y  c #92572E",
"T  c #A35A37",
"R  c #A55C3A",
"E  c #8A633D",
"W  c #8D6739",
"Q  c #946235",
"!  c #9C6235",
"~  c #996438",
"^  c #9C6A3A",
"/  c #996838",
"(  c #A5633A",
")  c #A46B3C",
"_  c #A9683B",
"`  c #A9743E",
"'  c #B1763E",
"]  c #856B46",
"[  c #946B47",
"{  c #89724A",
"}  c #947447",
"|  c #98744A",
" . c #8A7456",
".. c #947C55",
"X. c #967755",
"o. c #A77A48",
"O. c #B37B42",
"+. c #B67944",
"@. c #AD6D42",
"#. c #9C7D62",
"$. c #867D79",
"%. c #9F814E",
"&. c #9C8454",
"*. c #96825D",
"=. c #A6844F",
"-. c #BB834A",
";. c #BC8A4B",
":. c #B78247",
">. c #AB8A55",
",. c #A68959",
"<. c #B18E55",
"1. c #BA8D52",
"2. c #B18958",
"3. c #BA9153",
"4. c #B8945A",
"5. c #AB905C",
"6. c #9A8967",
"7. c #A68A66",
"8. c #AD9365",
"9. c #AE966A",
"0. c #B39563",
"q. c #B49963",
"w. c #BC9A61",
"e. c #B59B6B",
"r. c #BB9D6A",
"t. c #B89666",
"y. c #A38E7B",
"u. c #A4947C",
"i. c #AE9C7E",
"p. c #AD9776",
"a. c #BE9C74",
"s. c #B89D77",
"d. c #BEA265",
"f. c #B6A279",
"g. c #C18A4E",
"h. c #C48D53",
"j. c #C88E53",
"k. c #C39352",
"l. c #C49C5E",
"z. c #C7985B",
"x. c #C49D61",
"c. c #C79B66",
"v. c #C4A165",
"b. c #CCA76B",
"n. c #C9A76D",
"m. c #CCAB74",
"M. c #CBAB7B",
"N. c #C6A877",
"B. c #D2AE7B",
"V. c #D1B57D",
"C. c #898688",
"Z. c #969595",
"A. c #A89988",
"S. c #B39B87",
"D. c #BDA585",
"F. c #BAA48A",
"G. c #B8A687",
"H. c #BEAA92",
"J. c #B8A897",
"K. c #BEB092",
"L. c #A8A7A8",
"P. c #B1AFB0",
"I. c #B6B6B6",
"U. c #BAB1A6",
"Y. c #C6AC88",
"T. c #CCB282",
"R. c #CDB38A",
"E. c #C6B28D",
"W. c #D2B286",
"Q. c #D2B68D",
"!. c #D0B98D",
"~. c #C1AE9A",
"^. c #C2AC94",
"/. c #C4B092",
"(. c #CEBA9C",
"). c #CAB59A",
"_. c #D3BB95",
"`. c #D2B899",
"'. c #CCBBA4",
"]. c #C6B8AA",
"[. c #D2BDA1",
"{. c #C5BDB5",
"}. c #D3C09B",
"|. c #D3C2A5",
" X c #D4C3AC",
".X c #DECCAD",
"XX c #CCC1B2",
"oX c #CAC4BC",
"OX c #DACCB3",
"+X c #D5CBBD",
"@X c #DCCEBA",
"#X c #D5C8B6",
"$X c #DED1BC",
"%X c #CEC1AC",
"&X c #E2D4BB",
"*X c #C9C8C8",
"=X c #D3CBC3",
"-X c #D7CEC6",
";X c #DBD4CB",
":X c #DFD9CC",
">X c #DAD1C5",
",X c #DBD9D8",
"<X c #E3DBCD",
"1X c #E2D6C5",
"2X c #E4DDD3",
"3X c #E3DED9",
"4X c #E9E1D4",
"5X c #E4E2DD",
"6X c #ECE6DB",
"7X c #EDE9DE",
"8X c #E5E5E4",
"9X c #E9E6E3",
"0X c #ECEAE4",
"qX c #ECEDEC",
"wX c #F1EDE5",
"eX c #F1EEEB",
"rX c #EEF0ED",
"tX c #F2F2EE",
"yX c #EEEFF1",
"uX c #F2EFF1",
"iX c #EDF0F0",
"pX c #F2F3F1",
"aX c #FBFBF9",
"sX c None",
/* pixels */
"sXsXsXsXsXsXsXsXsXsXsXsXsXsXsXsXsXsXsXsXsXsXsXsXsXsXsXsXsXsXsXsXsXsXsXsXsXsXsXsXsXsXsXsXsXsXsXsXsXsXsXsXsXsXsXsXsXsXsXsXsXsXsXsX",
"sXsXsXsXsXsXsXsXsXsXsXsXsXsXsXsXsXsXsXsXsXsXsXsXsXsXsXsXsXsXsXsXsXsXsXsXsXsXsXsXsXsXsXsXsXsXsXsXsXsXsXsXsXsXsXsXsXsXsXsXsXsXsXsX",
"sXsXsXsXsXsXsXsXsXsXsXsXsXsXsXsXsXsXsXsXsXsXsXsXsXsXsXsXsXsXsXsXsXsXsXsXsXsXsXsXsXsXsXsXsXsXsXsXsXsXsXsXsXsXsXsXsXsXsXsXsXsXsXsX",
"sXsXsXsXsXsXsXsXsXsXsXsXsXsXsXsXsXsXsXsXsXsXsXsXsXsXsXsXsXsXsXsXsXsXsXsXsXsXsXsXsXsXsXsXsXsXsXsXsXsXsXsXsXsXsXsXsXsXsXsXsXsXsXsX",
"sXsXsXsXsXsXsXsXsXsXsXsXsXsXsXsXsXsXsXsXsXsXsXsXsXsXsXsXsXsXsXsXsXsXsXsXsXsXsXsXsXsXsXsXsXsXsXsXsXsXsXsXsXsXsXsXsXsXsXsXsXsXsXsX",
"sXsXsXsXsXsXsXsXsXsXsXsXsXsXsXsXsXsXsXsXsXsXsXsXsXsXsXsXsXsXsXsXsXsXsXsXsXsXsXsXsXsXsXsXsXsXsXsXsXsXsXsXsXsXsXsXsXsXsXsXsXsXsXsX",
"sXsXsXsXsXsXsXsXsXsXsXsXsXsXsXsXsXsXsXsXsXsXsXsXsXsXsXsXsXsXsXsXsXsXsXsXsXsXsXsXsXsXsXsXsXsXsXsXsXsXsXsXsXsXsXsXsXsXsXsXsXsXsXsX",
"sXsXsXsXsXsXsXsXsXsXsXsXsXsXsXsXsXsXsXsXsXsXsXsXsXsXsXsXsXsXsXsXsXsXsXsXsXsXsXsXsXsXsXsXsXsXsXsXsXsXsXsXsXsXsXsXsXsXsXsXsXsXsXsX",
"sXsXsXsXsXsXsXsXsXsXsXsXsXsXsXsXsXsX9X8XI.,XsXsXsXsXsXsXsXsXsXsXsXsXsXsXsXsXsXsXsXsXsXsXsXsXsXsXsXsXsXsXsXsXsXsXsXsXsXsXsXsXsXsX",
"sXsXsXsXsXsXsXsXsXsXsXsXsXsXsXsXsXsX5XB O m 8XsXsXsXsXsXsXsXsXsXsXsXsXsXsXsXsXsXsXsXsXsXsXsXsXsXsXsXsXsXsXsXsXsXsXsXsXsXsXsXsXsX",
"sXsXsXsXsXsXsXsXsXsXsXsXsXsXsXsXsXsXL.+     B 8XsXsXsXsXsXsXsXsXsXsXsXsXsXsXsXsXsXsXsXsXsXsXsXsXsXsXsXsXsXsXsXsXsXsXsXsXsXsXsXsX",
"sXsXsXsXsXsXsXsXsXsXsXsXsXsXsXsXsXsX,Xn X X @ V 8XsXsXsXsXsXsXsXsXsXsXsXsXsXsXsXsXsXsXsXsXsXsXsXsXsXsXsXsXsXsXsXsXsXsXsXsXsXsXsX",
"sXsXsXsXsXsXsXsXsXsXsXsXsXsXsXsXsXsXqX*Xv @ : - C.8XsXsXsXsXsXsXsXsXsXsXsXsXsXsXsXsXsXsXsXsXsXsXsXsXsXsXsXsXsXsXsXsXsXsXsXsXsXsX",
"sXsXsXsXsXsXsXsXsXsXsXsXsXsXsXsXsXsXsXqX*X5 - - # C.qXsXsXsXsXsXsXsXsXsXsXsXsXsXsXsXsXsXsXsXsXsXsXsXsXsXsXsXsXsXsXsXsXsXsXsXsXsX",
"sXsXsXsXsXsXsXsXsXsXsXsXsXsXsXsXsXsXsXsXpX*X; O X o C.qXsXsXsXsXsXsXsXsXsXsXsXsXsXsXsXsXsXsXsXsXsXsXsXsXsXsXsXsXsXsXsXsXsXsXsXsX",
"sXsXsXsXsXsXsXsXsXsXsXsXsXsXsXsXsXsXsXsX9XaX*X;     O Z.yXsXsXsXsXsXsXsXsXsXsXsXsXsXsXsXsXsXsXsXsXsXsXsXsXsXsXsXsXsXsXsXsXsXsXsX",
"sXsXsXsXsXsXsXsXsXsXsXsXsXsXsXsXsXsXsXqX;XS.H.A.&   X + Z.pXsXsXsXsXsXsXsXsXsXsXsXsXsXsXsXsXsXsXsXsXsXsXsXsXsXsXsXsXsXsXsXsXsXsX",
"sXsXsXsXsXsXsXsXsXsXsXsXsXsXsXsXsXsXqXXXl h ] { k $   . # L.pXsXsXsXsXsXsXsXsXsXsXsXsXsXsXsXsXsXsXsXsXsXsXsXsXsXsXsXsXsXsXsXsXsX",
"sXsXsXsXsXsXsXsXsXsXsXsXsXsXsXsXsXsX3X[ 4 K Z K a u %   . & P.uXsXsXsXsXsXsXsXsXsXsXsXsXsXsXsXsXsXsXsXsXsXsXsXsXsXsXsXsXsXsXsXsX",
"sXsXsXsXsXsXsXsXsXsXsXsXsXsXsXsXsXrX~.A 7 f W I I I l %     - *XpXsXsXsXsXsXsXsXsXsXsXsXsXsXsXsXsXsXsXsXsXsXsXsXsXsXsXsXsXsXsXsX",
"sXsXsXsXsXsXsXsXsXsXsXsXsXsXsXsXpX+X[ Y Z p C U T T R S &     5 ,XsXsXsXsXsXsXsXsXsXsXsXsXsXsXsXsXsXsXsXsXsXsXsXsXsXsXsXsXsXsXsX",
"sXsXsXsXsXsXsXsXsXsXsXsXsXsXqX>XH.[ D P ! L G T _ R R +.W =     m ,XsXsXsXsXsXsXsXsXsXsXsXsXsXsXsXsXsXsXsXsXsXsXsXsXsXsXsXsXsXsX",
"sXsXsXsXsXsXsXsXsXsXsXsXsXqXXX} W P L Y I I ! ) +.z.c.} K l =   # C.qXsXsXsXsXsXsXsXsXsXsXsXsXsXsXsXsXsXsXsXsXsXsXsXsXsXsXsXsXsX",
"sXsXsXsXsXsXsXsXsXsXsXsXsX<X[ Z J Q I L A Y ~ o.z.V..X!.7.=.K * ; B L.yXsXsXsXsXsXsXsXsXsXsXsXsXsXsXsXsXsXsXsXsXsXsXsXsXsXsXsXsX",
"sXsXsXsXsXsXsXsXsXsXsXsXeXp.s 8 Z W / U A A P ) 4.N.}.#X'.D.>.W M n B I.yXsXsXsXsXsXsXsXsXsXsXsXsXsXsXsXsXsXsXsXsXsXsXsXsXsXsXsX",
"sXsXsXsXsXsXsXsXsXsXsXsX2XK 8 C s Z / ) U A A U ) 1.m._.E.*.N } ..M n B Z.iXsXsXsXsXsXsXsXsXsXsXsXsXsXsXsXsXsXsXsXsXsXsXsXsXsXsX",
"sXsXsXsXsXsXsXsXsXsXsX9X'.J p s Z s Z ^ o.` T G G _ 1.m.!.D.6.{ {  .V v # *XpXsXsXsXsXsXsXsXsXsXsXsXsXsXsXsXsXsXsXsXsXsXsXsXsXsX",
"sXsXsXsXsXsXsXsXsXsXsX0X7.J Z 9 C A Z H ) :.;.-.@.R _ -.c.M.^.^.A.A.,X6.: J.eXsXsXsXsXsXsXsXsXsXsXsXsXsXsXsXsXsXsXsXsXsXsXsXsXsX",
"sXsXsXsXsXsXsXsXsXsXsX-XK Q H 8 9 Z L I ) O.g.k.z.c.j.j.l.W.].'.~.~.>XeX{._.OXeXsXsXsXsXsXsXsXsXsXsXsXsXsXsXsXsXsXsXsXsXsXsXsXsX",
"sXsXsXsXsXsXsXsXsXsXqXy.i P J Z 9 C L ( +.;.g.g.j.z.b.b.V._.[.[.~.).{.pXpX>X`.@XeXsXsXsXsXsXsXsXsXsXsXsXsXsXsXsXsXsXsXsXsXsXsXsX",
"sXsXsXsXsXsXsXsXsXsX,Xz 4 D L H 9 s H I +.x.b.v.b.B.b.m.T.}._.(.).].{.3XqXqX:X(.>XeXsXsXsXsXsXsXsXsXsXsXsXsXsXsXsXsXsXsXsXsXsXsX",
"sXsXsXsXsXsXsXsXsXsX].0 4 s H H s s Z H @.v.m.M.W.W.W.V.W.R.Q.(.).H.J.=XqXsXeX<X(.1XpXsXsXsXsXsXsXsXsXsXsXsXsXsXsXsXsXsXsXsXsXsX",
"sXsXsXsXsXsXsXsXsXpXJ.g 7 8 A H A s Z J Q O.b.B.W.W.T.T.Q.Q._.).H.S.G.+XpXsXsXtX<X|.<XqXsXsXsXsXsXsXsXsXsXsXsXsXsXsXsXsXsXsXsXsX",
"sXsXsXsXsXsXsXsXsXuXy.g i i Z D D C C D J ) 3.b.B.M.N.M.T.E././.f.8.8.#XqXsXsXsXpX<X|.4XqXsXsXsXsXsXsXsXsXsXsXsXsXsXsXsXsXsXsXsX",
"sXsXsXsXsXsXsXsXsXpXA.h i i g S D h p Z D P ` 3.x.v.w.d.f.f./.D.8.<.<.OXqXsXsXsXsXtX<X X6XtXsXsXsXsXsXsXsXsXsXsXsXsXsXsXsXsXsXsX",
"sXsXsXsXsXsXsXsXsXsX{.d d j j Z F h i Z D L ( _ ;.4.w.r.a.Y.G.s.q.w.3.|.rXsXsXsXsXsXtX4X X7XqXsXsXsXsXsXsXsXsXsXsXsXsXsXsXsXsXsX",
"sXsXsXsXsXsXsXsXsXsX;Xl r y u j S h r i Z U I I ' 3.d.f.f.e.e.e.d.l.3.|.rXsXsXsXsXsXsXpX<X.X7XrXsXsXsXsXsXsXsXsXsXsXsXsXsXsXsXsX",
"sXsXsXsXsXsXsXsXsXsXqXA.j h a r u d r 2 i Y I ( O.3.t.q.8.<.5.e.M.v.4. XyXsXsXsXsXsXsXsXpX4XOX0XqXsXsXsXsXsXsXsXsXsXsXsXsXsXsXsX",
"sXsXsXsXsXsXsXsXsXsXsX2X{ d a r e q 2 < r Y ( _ :.4.=.%.&.W l 8.E.M.4.|.rXsXsXsXsXsXsXsXsXpX4X$XwXqXsXsXsXsXsXsXsXsXsXsXsXsXsXsX",
"sXsXsXsXsXsXsXsXsXsXsXuXU.y r r e 1 3 , a J ( ' g.>.| %.} t e %.Y.M.x._.rXqXsXsXsXsXsXsXsXsXpX4X$XwXqXsXsXsXsXsXsXsXsXsXsXsXsXsX",
"sXsXsXsXsXsXsXsXsXsXsXsXpXJ.y q e 1 , , a J ) ' k.>.&.6.l w t ] N.N.c.2.f.XX3XwXrXsXsXsXsXsXsXpX4X&XwX0XsXsXsXsXsXsXsXsXsXsXsXsX",
"sXsXsXsXsXsXsXsXsXsXsXsXsXqXU.z 4 2 , , d J ^ +.j.2.7.6. .k e x 9.n.v.7.{ &.6.K.OX0XsXsXsXsXsXsXpX4X1XwXqXsXsXsXsXsXsXsXsXsXsXsX",
"sXsXsXsXsXsXsXsXsXsXsXsXsXsXpXoXN 3 > 3 a S Q ' h.a.S.u.u.6.N c =.4.l.|.2XU.A.*.*.J.qXsXsXsXsXsXsXpX4X.X6XqXsXsXsXsXsXsXsXsXsXsX",
"sXsXsXsXsXsXsXsXsXsXsXsXsXsXsXsX5XZ.6 > e j J ` g.N.D.S.G.i.6.c W >.z._.aXrXrX;XXX;XrXsXsXsXsXsXsXsXtX1X X#X0XsXsXsXsXsXsXsXsXsX",
"sXsXsXsXsXsXsXsXsXsXsXsXsXsXsXsXsXpX-X$.t d D ) ;.0.s.Y.Y.H.F...c %.k.x.#X5XrXaXrX5XsXsXsXsXsXsXsXsXsX7XY.[.0XsXsXsXsXsXsXsXsXsX",
"sXsXsXsXsXsXsXsXsXsXsXsXsXsXsXsXsXsXsXqX=X .S ^ +.,.S. X+X<X2X+XXX%X4.k.<.6.i.'.:X8XsXsXsXsXsXsXsXsXsX7X X6XpXsXsXsXsXsXsXsXsXsX",
"sXsXsXsXsXsXsXsXsXsXsXsXsXsXsXsXsXsXsXsXiX+Xl ! O.[.tXpXuXqXqXyXsXpXOXv.l.d.&.5.,.6.8XsXsXsXsXsXsXsXsXsXtXtXsXsXsXsXsXsXsXsXsXsX",
"sXsXsXsXsXsXsXsXsXsXsXsXsXsXsXsXsXsXsXsXsXqX../ -.1XyXsXsXsXsXsXsXsXtX&Xm.d.e.q.5.p.8XsXsXsXsXsXsXsXsXsXsXsXsXsXsXsXsXsXsXsXsXsX",
"sXsXsXsXsXsXsXsXsXsXsXsXsXsXsXsXsXsXsXsXsXqX#.! O..XrXsXsXsXsXsXsXsXsXtXOXq.5.q.p.:XqXsXsXsXsXsXsXsXsXsXsXsXsXsXsXsXsXsXsXsXsXsX",
"sXsXsXsXsXsXsXsXsXsXsXsXsXsXsXsXsXsXsXsXsX9XX.Q ' Q.qXsXsXsXsXsXsXsXsXsXpX<X%X%X:XqXsXsXsXsXsXsXsXsXsXsXsXsXsXsXsXsXsXsXsXsXsXsX",
"sXsXsXsXsXsXsXsXsXsXsXsXsXsXsXsXsXsXsXsXsX0X#.J ' M.qXsXsXsXsXsXsXsXsXsXsXsXpXpXsXsXsXsXsXsXsXsXsXsXsXsXsXsXsXsXsXsXsXsXsXsXsXsX",
"sXsXsXsXsXsXsXsXsXsXsXsXsXsXsXsXsXsXsXsXsXeXS.Q +.n.wXsXsXsXsXsXsXsXsXsXsXsXsXsXsXsXsXsXsXsXsXsXsXsXsXsXsXsXsXsXsXsXsXsXsXsXsXsX",
"sXsXsXsXsXsXsXsXsXsXsXsXsXsXsXsXsXsXsXsXsXqX]./ z.c.&XyXsXsXsXsXsXsXsXsXsXsXsXsXsXsXsXsXsXsXsXsXsXsXsXsXsXsXsXsXsXsXsXsXsXsXsXsX",
"sXsXsXsXsXsXsXsXsXsXsXsXsXsXsXsXsXsXsXsXsXsX2X,.+.t.s.6XsXsXsXsXsXsXsXsXsXsXsXsXsXsXsXsXsXsXsXsXsXsXsXsXsXsXsXsXsXsXsXsXsXsXsXsX",
"sXsXsXsXsXsXsXsXsXsXsXsXsXsXsXsXsXsXsXsXsXsXqX4X~.S.J.8XsXsXsXsXsXsXsXsXsXsXsXsXsXsXsXsXsXsXsXsXsXsXsXsXsXsXsXsXsXsXsXsXsXsXsXsX",
"sXsXsXsXsXsXsXsXsXsXsXsXsXsXsXsXsXsXsXsXsXsXsXsXyXqXqXsXsXsXsXsXsXsXsXsXsXsXsXsXsXsXsXsXsXsXsXsXsXsXsXsXsXsXsXsXsXsXsXsXsXsXsXsX",
"sXsXsXsXsXsXsXsXsXsXsXsXsXsXsXsXsXsXsXsXsXsXsXsXsXsXsXsXsXsXsXsXsXsXsXsXsXsXsXsXsXsXsXsXsXsXsXsXsXsXsXsXsXsXsXsXsXsXsXsXsXsXsXsX",
"sXsXsXsXsXsXsXsXsXsXsXsXsXsXsXsXsXsXsXsXsXsXsXsXsXsXsXsXsXsXsXsXsXsXsXsXsXsXsXsXsXsXsXsXsXsXsXsXsXsXsXsXsXsXsXsXsXsXsXsXsXsXsXsX",
"sXsXsXsXsXsXsXsXsXsXsXsXsXsXsXsXsXsXsXsXsXsXsXsXsXsXsXsXsXsXsXsXsXsXsXsXsXsXsXsXsXsXsXsXsXsXsXsXsXsXsXsXsXsXsXsXsXsXsXsXsXsXsXsX",
"sXsXsXsXsXsXsXsXsXsXsXsXsXsXsXsXsXsXsXsXsXsXsXsXsXsXsXsXsXsXsXsXsXsXsXsXsXsXsXsXsXsXsXsXsXsXsXsXsXsXsXsXsXsXsXsXsXsXsXsXsXsXsXsX",
"sXsXsXsXsXsXsXsXsXsXsXsXsXsXsXsXsXsXsXsXsXsXsXsXsXsXsXsXsXsXsXsXsXsXsXsXsXsXsXsXsXsXsXsXsXsXsXsXsXsXsXsXsXsXsXsXsXsXsXsXsXsXsXsX",
"sXsXsXsXsXsXsXsXsXsXsXsXsXsXsXsXsXsXsXsXsXsXsXsXsXsXsXsXsXsXsXsXsXsXsXsXsXsXsXsXsXsXsXsXsXsXsXsXsXsXsXsXsXsXsXsXsXsXsXsXsXsXsXsX",
"sXsXsXsXsXsXsXsXsXsXsXsXsXsXsXsXsXsXsXsXsXsXsXsXsXsXsXsXsXsXsXsXsXsXsXsXsXsXsXsXsXsXsXsXsXsXsXsXsXsXsXsXsXsXsXsXsXsXsXsXsXsXsXsX",
"sXsXsXsXsXsXsXsXsXsXsXsXsXsXsXsXsXsXsXsXsXsXsXsXsXsXsXsXsXsXsXsXsXsXsXsXsXsXsXsXsXsXsXsXsXsXsXsXsXsXsXsXsXsXsXsXsXsXsXsXsXsXsXsX"
};
