/* XPM */
static char *result[] = {
/* columns rows colors chars-per-pixel */
"64 64 223 2 ",
"   c #0D070B",
".  c #0E090B",
"X  c #120D0E",
"o  c #130D11",
"O  c #191416",
"+  c #1A1618",
"@  c #251B18",
"#  c #331F1C",
"$  c #35261C",
"%  c #2A211F",
"&  c #221E20",
"*  c #2A2627",
"=  c #383537",
"-  c #362F2D",
";  c #492A12",
":  c #4D3119",
">  c #533219",
",  c #57381C",
"<  c #502F17",
"1  c #5C3D22",
"2  c #5B3E30",
"3  c #693C23",
"4  c #6A3723",
"5  c #713C26",
"6  c #733A29",
"7  c #5C4324",
"8  c #6A4526",
"9  c #624528",
"0  c #6D4A2A",
"q  c #654828",
"w  c #774329",
"e  c #7C442B",
"r  c #744C2B",
"t  c #7C4D2C",
"y  c #754527",
"u  c #75502C",
"i  c #79532E",
"p  c #6D4C31",
"a  c #664C35",
"s  c #7B5A3C",
"d  c #795637",
"f  c #6E5132",
"g  c #7C623C",
"h  c #434142",
"j  c #48464A",
"k  c #5E5248",
"l  c #5B5758",
"z  c #7C6647",
"x  c #656467",
"c  c #7C7B7B",
"v  c #736E6C",
"b  c #80462C",
"n  c #834B2E",
"m  c #894C2F",
"M  c #83532E",
"N  c #8A562F",
"B  c #854D31",
"V  c #8C4B31",
"C  c #974E34",
"Z  c #8B5432",
"A  c #8C5B34",
"S  c #855837",
"D  c #935534",
"F  c #935C35",
"G  c #9B5C37",
"H  c #9B5C39",
"J  c #965838",
"K  c #A55C3C",
"L  c #8A623D",
"P  c #8A653C",
"I  c #94623A",
"U  c #9C6439",
"Y  c #9B693B",
"T  c #966238",
"R  c #A4633C",
"E  c #A36B3E",
"W  c #AC6A3E",
"Q  c #AA743F",
"!  c #886B46",
"~  c #956B47",
"^  c #87734D",
"/  c #93734A",
"(  c #9B784A",
")  c #897357",
"_  c #947957",
"`  c #AB6D43",
"'  c #A26D41",
"]  c #AE7841",
"[  c #A97645",
"{  c #B17542",
"}  c #B57A44",
"|  c #B37F49",
" . c #A97D51",
".. c #9B7C62",
"X. c #8B7971",
"o. c #9D8352",
"O. c #95815E",
"+. c #998158",
"@. c #9E804F",
"#. c #BA824B",
"$. c #B9854A",
"%. c #A38254",
"&. c #AD8A55",
"*. c #AA8C5B",
"=. c #A88A5C",
"-. c #BA8C53",
";. c #B28E5B",
":. c #B58E55",
">. c #BA945A",
",. c #B8955B",
"<. c #998867",
"1. c #9F8F78",
"2. c #A68967",
"3. c #AC9265",
"4. c #AE9766",
"5. c #B29562",
"6. c #B59C6C",
"7. c #B99966",
"8. c #A98F7A",
"9. c #AD9B7D",
"0. c #A89678",
"q. c #B49A73",
"w. c #BB9C76",
"e. c #BDA165",
"r. c #B9A379",
"t. c #C48C53",
"y. c #C58C58",
"u. c #C29354",
"i. c #C49C5E",
"p. c #C6945B",
"a. c #C0874D",
"s. c #C49D62",
"d. c #C69A66",
"f. c #C2A165",
"g. c #CBA66B",
"h. c #CEA96E",
"j. c #C2A36D",
"k. c #CBAB75",
"l. c #C4AB7A",
"z. c #C7A777",
"x. c #D1AD7A",
"c. c #CCB17D",
"v. c #D4B67E",
"b. c #837F80",
"n. c #898789",
"m. c #979696",
"M. c #908F8F",
"N. c #AA9986",
"B. c #B39C87",
"V. c #A28F88",
"C. c #B5A185",
"Z. c #BCA484",
"A. c #BBA58B",
"S. c #BDA98D",
"D. c #BDAB81",
"F. c #BEAC93",
"G. c #B9A996",
"H. c #AFA18B",
"J. c #A7A6A7",
"K. c #BCB2A6",
"L. c #B8B8B7",
"P. c #B0AEAF",
"I. c #C7AC86",
"U. c #CBB283",
"Y. c #CCB48C",
"T. c #D2B185",
"R. c #D2B58C",
"E. c #C2AE92",
"W. c #C1AE9A",
"Q. c #CDB694",
"!. c #CBB59D",
"~. c #CEB99B",
"^. c #C9B599",
"/. c #D3BB94",
"(. c #D1BB9D",
"). c #D5B592",
"_. c #CBBAA5",
"`. c #C6B8A9",
"'. c #D2BEA2",
"]. c #D1BFAB",
"[. c #CABFB3",
"{. c #C5BBB1",
"}. c #CDC2AD",
"|. c #D3C2AB",
" X c #D7C7A9",
".X c #CBC4B8",
"XX c #D6CAB3",
"oX c #DACCB3",
"OX c #D5CABC",
"+X c #DBCEBA",
"@X c #D4C6B4",
"#X c #DED1B9",
"$X c #E2D3BD",
"%X c #C9C8C6",
"&X c #D7CDC4",
"*X c #DBD4CA",
"=X c #DED8CA",
"-X c #DBD1C3",
";X c #DEDDDD",
":X c #D7D5D4",
">X c #E3DACD",
",X c #E1D7C8",
"<X c #E4DDD3",
"1X c #E2DFDB",
"2X c #E8DFD3",
"3X c #ECE3D6",
"4X c #E6E3DE",
"5X c #EBE6DC",
"6X c #EEE8DD",
"7X c #E4E5E4",
"8X c #E8E6E3",
"9X c #ECEAE4",
"0X c #ECEDEC",
"qX c #F1EDE4",
"wX c #F0EEEB",
"eX c #EFF1EE",
"rX c #F2F2ED",
"tX c #EDEFF0",
"yX c #F0EFF0",
"uX c #F3F3F2",
"iX c #FBFBF9",
"pX c #EDF0F0",
"aX c None",
/* pixels */
"aXaXaXaXaXaXaXaXaXaXaXaXaXaXaXaXaXaXaXaXaXaXaXaXaXaXaXaXaXaXaXaXaXaXaXaXaXaXaXaXaXaXaXaXaXaXaXaXaXaXaXaXaXaXaXaXaXaXaXaXaXaXaXaX",
"aXaXaXaXaXaXaXaXaXaXaXaXaXaXaXaXaXaXaXaXaXaXaXaXaXaXaXaXaXaXaXaXaXaXaXaXaXaXaXaXaXaXaXaXaXaXaXaXaXaXaXaXaXaXaXaXaXaXaXaXaXaXaXaX",
"aXaXaXaXaXaXaXaXaXaXaXaXaXaXaXaXaXaXaXaXaXaXaXaXaXaXaXaXaXaXaXaXaXaXaXaXaXaXaXaXaXaXaXaXaXaXaXaXaXaXaXaXaXaXaXaXaXaXaXaXaXaXaXaX",
"aXaXaXaXaXaXaXaXaXaXaXaXaXaXaXaXaXaXaXaXaXaXaXaXaXaXaXaXaXaXaXaXaXaXaXaXaXaXaXaXaXaXaXaXaXaXaXaXaXaXaXaXaXaXaXaXaXaXaXaXaXaXaXaX",
"aXaXaXaXaXaXaXaXaXaXaXaXaXaXaXaXaXaXaXaXaXaXaXaXaXaXaXaXaXaXaXaXaXaXaXaXaXaXaXaXaXaXaXaXaXaXaXaXaXaXaXaXaXaXaXaXaXaXaXaXaXaXaXaX",
"aXaXaXaXaXaXaXaXaXaXaXaXaXaXaXaXaXaXaXaXaXaXaXaXaXaXaXaXaXaXaXaXaXaXaXaXaXaXaXaXaXaXaXaXaXaXaXaXaXaXaXaXaXaXaXaXaXaXaXaXaXaXaXaX",
"aXaXaXaXaXaXaXaXaXaXaXaXaXaXaXaXaXaXaXaXaXaXaXaXaXaXaXaXaXaXaXaXaXaXaXaXaXaXaXaXaXaXaXaXaXaXaXaXaXaXaXaXaXaXaXaXaXaXaXaXaXaXaXaX",
"aXaXaXaXaXaXaXaXaXaXaXaXaXaXaXaXaXaXaXaXaXaXaXaXaXaXaXaXaXaXaXaXaXaXaXaXaXaXaXaXaXaXaXaXaXaXaXaXaXaXaXaXaXaXaXaXaXaXaXaXaXaXaXaX",
"aXaXaXaXaXaXaXaXaXaXaXaXaXaXaXaXaXaXaXaXaXaXaXaXaXaXaXaXaXaXaXaXaXaXaXaXaXaXaXaXaXaX;XL.;X0XaXaXaXaXaXaXaXaXaXaXaXaXaXaXaXaXaXaX",
"aXaXaXaXaXaXaXaXaXaXaXaXaXaXaXaXaXaXaXaXaXaXaXaXaXaXaXaXaXaXaXaXaXaXaXaXaXaXaXaXaX;Xl o x ;XaXaXaXaXaXaXaXaXaXaXaXaXaXaXaXaXaXaX",
"aXaXaXaXaXaXaXaXaXaXaXaXaXaXaXaXaXaXaXaXaXaXaXaXaXaXaXaXaXaXaXaXaXaXaXaXaXaXaXaX7Xx     O J.aXaXaXaXaXaXaXaXaXaXaXaXaXaXaXaXaXaX",
"aXaXaXaXaXaXaXaXaXaXaXaXaXaXaXaXaXaXaXaXaXaXaXaXaXaXaXaXaXaXaXaXaXaXaXaXaXaXaX7Xc & o o j :XaXaXaXaXaXaXaXaXaXaXaXaXaXaXaXaXaXaX",
"aXaXaXaXaXaXaXaXaXaXaXaXaXaXaXaXaXaXaXaXaXaXaXaXaXaXaXaXaXaXaXaXaXaXaXaXaXaX7Xb.- - * h %X0XaXaXaXaXaXaXaXaXaXaXaXaXaXaXaXaXaXaX",
"aXaXaXaXaXaXaXaXaXaXaXaXaXaXaXaXaXaXaXaXaXaXaXaXaXaXaXaXaXaXaXaXaXaXaXaXaX0Xn.@ * * h %XtXaXaXaXaXaXaXaXaXaXaXaXaXaXaXaXaXaXaXaX",
"aXaXaXaXaXaXaXaXaXaXaXaXaXaXaXaXaXaXaXaXaXaXaXaXaXaXaXaXaXaXaXaXaXaXaXaX0Xn.O o + = %XyXaXaXaXaXaXaXaXaXaXaXaXaXaXaXaXaXaXaXaXaX",
"aXaXaXaXaXaXaXaXaXaXaXaXaXaXaXaXaXaXaXaXaXaXaXaXaXaXaXaXaXaXaXaXaXaXaXtXM.O o   = %XiX7XaXaXaXaXaXaXaXaXaXaXaXaXaXaXaXaXaXaXaXaX",
"aXaXaXaXaXaXaXaXaXaXaXaXaXaXaXaXaXaXaXaXaXaXaXaXaXaXaXaXaXaXaXaXaXaXuXm.O X   % V.W.N.*X0XaXaXaXaXaXaXaXaXaXaXaXaXaXaXaXaXaXaXaX",
"aXaXaXaXaXaXaXaXaXaXaXaXaXaXaXaXaXaXaXaXaXaXaXaXaXaXaXaXaXaXaXaXaXyXJ.+ X   @ a ! ! t s [.0XaXaXaXaXaXaXaXaXaXaXaXaXaXaXaXaXaXaX",
"aXaXaXaXaXaXaXaXaXaXaXaXaXaXaXaXaXaXaXaXaXaXaXaXaXaXaXaXaXaXaXaXuXP.% X . @ p t L M S 3 ~ <XaXaXaXaXaXaXaXaXaXaXaXaXaXaXaXaXaXaX",
"aXaXaXaXaXaXaXaXaXaXaXaXaXaXaXaXaXaXaXaXaXaXaXaXaXaXaXaXaXaXaXyX%X- .   @ i J J H L i 5 Z G.wXaXaXaXaXaXaXaXaXaXaXaXaXaXaXaXaXaX",
"aXaXaXaXaXaXaXaXaXaXaXaXaXaXaXaXaXaXaXaXaXaXaXaXaXaXaXaXaXaXaX:Xh     @ S R H K D b w n A ~ OXrXaXaXaXaXaXaXaXaXaXaXaXaXaXaXaXaX",
"aXaXaXaXaXaXaXaXaXaXaXaXaXaXaXaXaXaXaXaXaXaXaXaXaXaXaXaXaXaX;Xl     $ P { K K K K C J T F Z ~ G.&X0XaXaXaXaXaXaXaXaXaXaXaXaXaXaX",
"aXaXaXaXaXaXaXaXaXaXaXaXaXaXaXaXaXaXaXaXaXaXaXaXaXaXaXaXaXtXn.+   $ g s ( d.p.} E U T G D D F P / [.0XaXaXaXaXaXaXaXaXaXaXaXaXaX",
"aXaXaXaXaXaXaXaXaXaXaXaXaXaXaXaXaXaXaXaXaXaXaXaXaXaXaXaXtXJ.x = % S  .*./. Xv.i.[ T D V D T I A n / =XaXaXaXaXaXaXaXaXaXaXaXaXaX",
"aXaXaXaXaXaXaXaXaXaXaXaXaXaXaXaXaXaXaXaXaXaXaXaXaXaXaXuXL.x j k ! &.Z.!.}./.l.:.E F V V G Y I t e e 8.wXaXaXaXaXaXaXaXaXaXaXaXaX",
"aXaXaXaXaXaXaXaXaXaXaXaXaXaXaXaXaXaXaXaXaXaXaXaXaXaX0Xm.x j k _ ~ ! O.Y./.k.>.' J V V J Y Y B e t w F ,XaXaXaXaXaXaXaXaXaXaXaXaX",
"aXaXaXaXaXaXaXaXaXaXaXaXaXaXaXaXaXaXaXaXaXaXaXaXaXeXL.* h v ) ^ ^ <.D.R.k.-.R C C H ` [ Y B e b e w A !.0XaXaXaXaXaXaXaXaXaXaXaX",
"aXaXaXaXaXaXaXaXaXaXaXaXaXaXaXaXaXaXaXaXaXaXaXaXaXqXG.- c 1XN.N.A.E.l.7.#.W R ` $.-.$.E S B V b 6 B A 8.8XaXaXaXaXaXaXaXaXaXaXaX",
"aXaXaXaXaXaXaXaXaXaXaXaXaXaXaXaXaXaXaXaXaXaXaXaXwXoX~.{.0X&XW.W.!.'.U.i.y.y.p.p.u.a.Q W H D b 6 6 A I L &XaXaXaXaXaXaXaXaXaXaXaX",
"aXaXaXaXaXaXaXaXaXaXaXaXaXaXaXaXaXaXaXaXaXaXaXrX+XQ.+XiXuX[.W.G._.].Q.c.h.g.i.u.-.a.a.} ' D b 6 B A A y 1.0XaXaXaXaXaXaXaXaXaXaX",
"aXaXaXaXaXaXaXaXaXaXaXaXaXaXaXaXaXaXaXaXaXaXwX+X~.=X0X0X1X{.`.^.!.).Q.U.h.h.h.h.f.d.i.#.J V e 6 Z A Z 3 d :XaXaXaXaXaXaXaXaXaXaX",
"aXaXaXaXaXaXaXaXaXaXaXaXaXaXaXaXaXaXaXaXaXrX,X~.,XuXaX0XOXG.F.^.(.).Y.T.T.v.T.T.c.k.s.` A B e b Z Z e 4 3 `.aXaXaXaXaXaXaXaXaXaX",
"aXaXaXaXaXaXaXaXaXaXaXaXaXaXaXaXaXaXaXaXrX>X_.>XrXaXaXrX.XA.9.S._.Q.R.R.U.c.U.T.x.g.#.F A n b B Z m w 5 i G.yXaXaXaXaXaXaXaXaXaX",
"aXaXaXaXaXaXaXaXaXaXaXaXaXaXaXaXaXaXaX0X2X|.,XrXaXaXaXeX@X4.4.r.E.E.Y.l.z.z.k.x.g.-.Y S Z e e Z Z t y e t 8.uXaXaXaXaXaXaXaXaXaX",
"aXaXaXaXaXaXaXaXaXaXaXaXaXaXaXaXaXaXeX3X|.,XuXaXaXaXaXeXXX&.:.4.B.E.l.w.e.e.f.s.-.] F N n e i N M t r r u N.uXaXaXaXaXaXaXaXaXaX",
"aXaXaXaXaXaXaXaXaXaXaXaXaXaXaXaXaX0X6X X>XrXaXaXaXaXaXeX X:.7.,.6.Z.B.z.7.7.>.$.W U D Z n r i N M t r r r {.aXaXaXaXaXaXaXaXaXaX",
"aXaXaXaXaXaXaXaXaXaXaXaXaXaXaXaX0X6X X<XuXaXaXaXaXaXaXeX|.:.i.j.6.6.6.r.r.7.-.{ U G D Z r 0 u M t 0 f 8 d *XaXaXaXaXaXaXaXaXaXaX",
"aXaXaXaXaXaXaXaXaXaXaXaXaXaXaX0XqXoX<XuXaXaXaXaXaXaXaXuX|.>.f.l.6.=.&.4.5.7.,.} K H D y , 8 r r 8 0 i u V.0XaXaXaXaXaXaXaXaXaXaX",
"aXaXaXaXaXaXaXaXaXaXaXaXaXaXeXqXoX3XuXaXaXaXaXaXaXaXaXeX'.>.k.Y.3.s ! %.@.@.:.$.W G D 8 : , 9 9 8 u u ! <XaXaXaXaXaXaXaXaXaXaXaX",
"aXaXaXaXaXaXaXaXaXaXaXaXaX0XqXoX2XuXaXaXaXaXaXaXaXaX0XrXQ.d.l.l.( q q / @.( &.-.Q R F r > > 1 9 0 8 f K.rXaXaXaXaXaXaXaXaXaXaXaX",
"aXaXaXaXaXaXaXaXaXaXaXaX0X9X$X2XuXaXaXaXaXaXaX0XqX<X}.0.&.e.z.r.! a 7 g <._ &.u.} E A r : > 1 9 8 a H.uXaXaXaXaXaXaXaXaXaXaXaXaX",
"aXaXaXaXaXaXaXaXaXaXaX0XqX$X2XiXaXaXaXaXaXaX9XOXS.<.+.O.*.i.j.4.g 7 f ) <.2.*.y.} Y A r : : 1 1 a K.uXaXaXaXaXaXaXaXaXaXaXaXaXaX",
"aXaXaXaXaXaXaXaXaXaX0X5XoX>XuXaXaXaXaXaXaX7XG.+.O.H.K.=X Xi.e.o.g z <.1.8.9.w.y.Q L M u > ; > z .XuXaXaXaXaXaXaXaXaXaXaXaXaXaXaX",
"aXaXaXaXaXaXaXaXaX9X@X|.,XrXaXaXaXaXaXaXaX0X*X{.*XeXeXiXY.i.&.P g <.9.A.Z.Z.w.t.Q A t 7 ; 2 V.1XaXaXaXaXaXaXaXaXaXaXaXaXaXaXaXaX",
"aXaXaXaXaXaXaXaXaX9X(.I.6XaXaXaXaXaXaXaXaXaX7X0XiXeX4X Xi.>.( g O.C.A.S.Z.q.;.#.E A i a X.&XuXaXaXaXaXaXaXaXaXaXaXaXaXaXaXaXaXaX",
"aXaXaXaXaXaXaXaXaXuX3X|.5XaXaXaXaXaXaXaXaXaX7X=X}.9.<.&.>.,.}.}.OX=X<X+X].C.=.#.Y M ) %X0XaXaXaXaXaXaXaXaXaXaXaXaXaXaXaXaXaXaXaX",
"aXaXaXaXaXaXaXaXaXaXuXrXaXaXaXaXaXaXaXaXaX4X<.2.*.o.4.i.s.oXiXaXeXeXeXrXuXuX'.} T s OXpXaXaXaXaXaXaXaXaXaXaXaXaXaXaXaXaXaXaXaXaX",
"aXaXaXaXaXaXaXaXaXaXaXaXaXaXaXaXaXaXaXaXaX5X0.*.4.e.e.h.#XrXaXaXaXaXaXaXaXtX,X} Y _ 8XaXaXaXaXaXaXaXaXaXaXaXaXaXaXaXaXaXaXaXaXaX",
"aXaXaXaXaXaXaXaXaXaXaXaXaXaXaXaXaXaXaXaXaX0X=Xq.4.;.4.oXuXaXaXaXaXaXaXaXaXwXoX} Y ..9XaXaXaXaXaXaXaXaXaXaXaXaXaXaXaXaXaXaXaXaXaX",
"aXaXaXaXaXaXaXaXaXaXaXaXaXaXaXaXaXaXaXaXaXaX0X=X}._.=XrXaXaXaXaXaXaXaXaXaXqX).Q H / 8XaXaXaXaXaXaXaXaXaXaXaXaXaXaXaXaXaXaXaXaXaX",
"aXaXaXaXaXaXaXaXaXaXaXaXaXaXaXaXaXaXaXaXaXaXaXaXuXuXaXaXaXaXaXaXaXaXaXaXaXqXz.{ S ..9XaXaXaXaXaXaXaXaXaXaXaXaXaXaXaXaXaXaXaXaXaX",
"aXaXaXaXaXaXaXaXaXaXaXaXaXaXaXaXaXaXaXaXaXaXaXaXaXaXaXaXaXaXaXaXaXaXaXaXaXqXz.#.I B.0XaXaXaXaXaXaXaXaXaXaXaXaXaXaXaXaXaXaXaXaXaX",
"aXaXaXaXaXaXaXaXaXaXaXaXaXaXaXaXaXaXaXaXaXaXaXaXaXaXaXaXaXaXaXaXaXaXaXaX0X#Xd.y.Y _.0XaXaXaXaXaXaXaXaXaXaXaXaXaXaXaXaXaXaXaXaXaX",
"aXaXaXaXaXaXaXaXaXaXaXaXaXaXaXaXaXaXaXaXaXaXaXaXaXaXaXaXaXaXaXaXaXaXaXaX7Xw.7. .2.*XaXaXaXaXaXaXaXaXaXaXaXaXaXaXaXaXaXaXaXaXaXaX",
"aXaXaXaXaXaXaXaXaXaXaXaXaXaXaXaXaXaXaXaXaXaXaXaXaXaXaXaXaXaXaXaXaXaXaXaX4XG.B.W.<X0XaXaXaXaXaXaXaXaXaXaXaXaXaXaXaXaXaXaXaXaXaXaX",
"aXaXaXaXaXaXaXaXaXaXaXaXaXaXaXaXaXaXaXaXaXaXaXaXaXaXaXaXaXaXaXaXaXaXaXaXaX9X9X0XaXaXaXaXaXaXaXaXaXaXaXaXaXaXaXaXaXaXaXaXaXaXaXaX",
"aXaXaXaXaXaXaXaXaXaXaXaXaXaXaXaXaXaXaXaXaXaXaXaXaXaXaXaXaXaXaXaXaXaXaXaXaXaXaXaXaXaXaXaXaXaXaXaXaXaXaXaXaXaXaXaXaXaXaXaXaXaXaXaX",
"aXaXaXaXaXaXaXaXaXaXaXaXaXaXaXaXaXaXaXaXaXaXaXaXaXaXaXaXaXaXaXaXaXaXaXaXaXaXaXaXaXaXaXaXaXaXaXaXaXaXaXaXaXaXaXaXaXaXaXaXaXaXaXaX",
"aXaXaXaXaXaXaXaXaXaXaXaXaXaXaXaXaXaXaXaXaXaXaXaXaXaXaXaXaXaXaXaXaXaXaXaXaXaXaXaXaXaXaXaXaXaXaXaXaXaXaXaXaXaXaXaXaXaXaXaXaXaXaXaX",
"aXaXaXaXaXaXaXaXaXaXaXaXaXaXaXaXaXaXaXaXaXaXaXaXaXaXaXaXaXaXaXaXaXaXaXaXaXaXaXaXaXaXaXaXaXaXaXaXaXaXaXaXaXaXaXaXaXaXaXaXaXaXaXaX",
"aXaXaXaXaXaXaXaXaXaXaXaXaXaXaXaXaXaXaXaXaXaXaXaXaXaXaXaXaXaXaXaXaXaXaXaXaXaXaXaXaXaXaXaXaXaXaXaXaXaXaXaXaXaXaXaXaXaXaXaXaXaXaXaX",
"aXaXaXaXaXaXaXaXaXaXaXaXaXaXaXaXaXaXaXaXaXaXaXaXaXaXaXaXaXaXaXaXaXaXaXaXaXaXaXaXaXaXaXaXaXaXaXaXaXaXaXaXaXaXaXaXaXaXaXaXaXaXaXaX",
"aXaXaXaXaXaXaXaXaXaXaXaXaXaXaXaXaXaXaXaXaXaXaXaXaXaXaXaXaXaXaXaXaXaXaXaXaXaXaXaXaXaXaXaXaXaXaXaXaXaXaXaXaXaXaXaXaXaXaXaXaXaXaXaX",
"aXaXaXaXaXaXaXaXaXaXaXaXaXaXaXaXaXaXaXaXaXaXaXaXaXaXaXaXaXaXaXaXaXaXaXaXaXaXaXaXaXaXaXaXaXaXaXaXaXaXaXaXaXaXaXaXaXaXaXaXaXaXaXaX"
};
