/* XPM */
static char *result[] = {
/* columns rows colors chars-per-pixel */
"64 64 239 2 ",
"   c #000000",
".  c #181100",
"X  c #140700",
"o  c #271706",
"O  c #2C2309",
"+  c #3D280B",
"@  c #2A2417",
"#  c #382B17",
"$  c #432A09",
"%  c #432D12",
"&  c #492F16",
"*  c #4B3415",
"=  c #4B351A",
"-  c #47351A",
";  c #5C3515",
":  c #543D1D",
">  c #5B3C1C",
",  c #553718",
"<  c #403200",
"1  c #653C1C",
"2  c #493C26",
"3  c #583B22",
"4  c #6C3F21",
"5  c #57461A",
"6  c #4E4F07",
"7  c #68421D",
"8  c #6B581A",
"9  c #75631B",
"0  c #5C4323",
"q  c #5D4A2B",
"w  c #594527",
"e  c #594D37",
"r  c #534D38",
"t  c #6C4422",
"y  c #6C4A25",
"u  c #634B2B",
"i  c #6B4C2C",
"p  c #654626",
"a  c #724525",
"s  c #734925",
"d  c #734D2B",
"f  c #7A4D2B",
"g  c #784826",
"h  c #63522F",
"j  c #6B522C",
"k  c #69582C",
"l  c #74532D",
"z  c #7B522D",
"x  c #755A28",
"c  c #634E35",
"v  c #7B4F31",
"b  c #645434",
"n  c #6A5837",
"m  c #745432",
"M  c #7B5432",
"N  c #7C5A34",
"B  c #7B5B3A",
"V  c #715A38",
"C  c #6A6439",
"Z  c #746339",
"A  c #78672F",
"S  c #675947",
"D  c #745C45",
"F  c #746243",
"G  c #7A6847",
"H  c #7A734A",
"J  c #656153",
"K  c #796A58",
"L  c #7E7259",
"P  c #824D2A",
"I  c #8A4E2E",
"U  c #804826",
"Y  c #82552D",
"T  c #845A2D",
"R  c #8E522E",
"E  c #915B2F",
"W  c #835533",
"Q  c #8A5533",
"!  c #845A35",
"~  c #8C5C34",
"^  c #855D39",
"/  c #8B5D39",
"(  c #935B36",
")  c #86612C",
"_  c #846135",
"`  c #8C6135",
"'  c #84633B",
"]  c #8B633B",
"[  c #8C6B3D",
"{  c #826F3F",
"}  c #926435",
"|  c #93653B",
" . c #9B653C",
".. c #946B3E",
"X. c #9B6C3C",
"o. c #9B723E",
"O. c #8A703B",
"+. c #A1693D",
"@. c #8B6941",
"#. c #856B43",
"$. c #956C42",
"%. c #996B45",
"&. c #8B7549",
"*. c #947143",
"=. c #9C7443",
"-. c #98784A",
";. c #887956",
":. c #947D54",
">. c #927755",
",. c #A27544",
"<. c #A37B44",
"1. c #A37C4A",
"2. c #AA7648",
"3. c #B07C4C",
"4. c #A87E52",
"5. c #8A7D62",
"6. c #957E64",
"7. c #958154",
"8. c #9C8453",
"9. c #9C845B",
"0. c #9D895A",
"q. c #92845C",
"w. c #95834E",
"e. c #AA844E",
"r. c #AA834A",
"t. c #B4864D",
"y. c #A48253",
"u. c #AC8B54",
"i. c #A48A5A",
"p. c #A78657",
"a. c #B28552",
"s. c #B48D54",
"d. c #B38D5B",
"f. c #BB8C57",
"g. c #AC935E",
"h. c #AB9458",
"j. c #B4935B",
"k. c #B9965B",
"l. c #B1A058",
"z. c #8B8566",
"x. c #94896D",
"c. c #9B8C6D",
"v. c #978665",
"b. c #9E916C",
"n. c #9F9464",
"m. c #958976",
"M. c #9B947B",
"N. c #8A8670",
"B. c #AB8B62",
"V. c #A48C67",
"C. c #A49263",
"Z. c #AB9363",
"A. c #AB9669",
"S. c #AE996C",
"D. c #A99867",
"F. c #B49564",
"G. c #B39A62",
"H. c #BB9B65",
"J. c #B39C6B",
"K. c #BB9C6A",
"L. c #B89666",
"P. c #A49374",
"I. c #AC9B7B",
"U. c #A79877",
"Y. c #B49C74",
"T. c #B39E7F",
"R. c #BDA36C",
"E. c #B7A467",
"W. c #BCA473",
"Q. c #B8A479",
"!. c #C39A5C",
"~. c #C79B62",
"^. c #C3A46D",
"/. c #C9A567",
"(. c #C3AA74",
"). c #C4AD7B",
"_. c #CBAE7D",
"`. c #C5A872",
"'. c #CBB27C",
"]. c #CAB178",
"[. c #9B9284",
"{. c #A59886",
"}. c #AF9796",
"|. c #ACA38A",
" X c #B4A486",
".X c #BAAB84",
"XX c #B3A38C",
"oX c #BBAB8C",
"OX c #B7A78A",
"+X c #BBAB92",
"@X c #B7AB97",
"#X c #BDB39A",
"$X c #BBB499",
"%X c #AAAC8B",
"&X c #BBB5A3",
"*X c #B2AEA1",
"=X c #C4AD83",
"-X c #C0AC8E",
";X c #C5B586",
":X c #CAB382",
">X c #C2B28C",
",X c #CCB98D",
"<X c #CAB58B",
"1X c #D5BA8A",
"2X c #C0AE93",
"3X c #C4B493",
"4X c #CBBB93",
"5X c #C8B89B",
"6X c #D2BE93",
"7X c #C3BBA5",
"8X c #C9B9A2",
"9X c #CCB9B5",
"0X c #CCB6A5",
"qX c #D6C39A",
"wX c #DCD098",
"eX c #E2C79A",
"rX c #D5C3A4",
"tX c #D4CCB8",
"yX c #D5D0AA",
"uX c #E4D2A8",
"iX c #EDECB0",
"pX c #EEEE91",
"aX c #CBB3C3",
"sX c #DEDDD3",
"dX c #D6CFC7",
"fX c #E4DCCD",
"gX c #E4DFD4",
"hX c #D9E1CE",
"jX c #EAE6CE",
"kX c #F2EDC8",
"lX c #E7E5D6",
"zX c #FBF6DB",
"xX c #F6F1D2",
"cX c #EEEBE3",
"vX c #FDFCEB",
"bX c #F8F6E7",
"nX c #FEFEF4",
"mX c #F3ECE7",
"MX c None",
/* pixels */
"MXMXMXMXMXMXMXMXMXMXMXMXMXMXMXMXMXMXMXMXMXMXMXMXMXMXMXMXMXMXMXMXMXMXMXMXMXMXMXMXMXMXMXMXMXMXMXMXMXMXMXMXMXMXMXMXMXMXMXMXMXMXMXMX",
"MXMXMXMXMXMXMXMXMXMXMXMXMXMXMXMXMXMXMXMXMXMXMXMXMXMXMXMXMXMXMXMXMXMXMXMXMXMXMXMXMXMXMXMXMXMXMXMXMXMXMXMXMXMXMXMXMXMXMXMXMXMXMXMX",
"MXMXMXMXMXMXMXMXMXMXMXMXMXMXMXMXMXMXMXMXMXMXMXMXMXMXMXMXMXMXMXMXMXMXMXMXMXMXMXMXMXMXMXMXMXMXMXMXMXMXMXMXMXMXMXMXMXMXMXMXMXMXMXMX",
"MXMXMXMXMXMXMXMXMXMXMXMXMXMXMXMXMXMXMXMXMXMXMXMXMXMXMXMXMXMXMXMXMXMXMXMXMXMXMXMXMXMXMXMXMXMXMXMXMXMXMXMXMXMXMXMXMXMXMXMXMXMXMXMX",
"MXMXMXMXMXMXMXMXMXMXMXMXMXMXMXMXMXMXMXMXMXMXMXMXMXMXMXMXMXMXMXMXMXMXMXMXMXMXMXMXMXMXMXMXMXMXMXMXMXMXMXMXMXMXMXMXMXMXMXMXMXMXMXMX",
"MXMXMXMXMXMXMXMXMXMXMXMXMXMXMXMXMXMXMXMXMXMXMXMXMXMXMXMXMXMXMXMXMXMX6 8 A A x 8 < MXMXMXMXMXMXMXMXMXMXMXMXMXMXMXMXMXMXMXMXMXMXMX",
"MXMXMXMXMXMXMXMXMXMXMXMXMXMXMXMXMXMXMXMXMXMXMXMXMXMXMXMXMXMX. G n 5 d [ @.O.[ o.-.< MXMXMXMXMXMXMXMXMXMXMXMXMXMXMXMXMXMXMXMXMXMX",
"MXMXMXMXMXMXMXMXMXMXMXMXMXMXMXMXMXMXMXMXMXMXMXMXMXMXMXMX  b B #.^ 1 N [ [ [ [ ..[ ) MXMXMXMXMXMXMXMXMXMXMXMXMXMXMXMXMXMXMXMXMXMX",
"MXMXMXMXMXMXMXMXMXMXMXMXMXMXMXMXMXMXMXMXMXMXMXMXMXMXMX3 u Z 7 ] $./ ~ | ....$...T ,.9 MXMXMXMXMXMXMXMXMXMXMXMXMXMXMXMXMXMXMXMXMX",
"MXMXMXMXMXMXMXMXMXMXMXMXMXMXMXMXMXMXMXMXMXMXMXMXMXMXD , l -._ ..| | (  .|  .1.=.) ..h.MXMXMXMXMXMXMXMXMXMXMXMXMXMXMXMXMXMXMXMXMX",
"MXMXMXMXMXMXMXMXMXMXMXMXMXMXMXMXMXMXMXMXMXMXMXMXMX[.q > p %._ Y ( Q ( } 2.L.B.p.r.o.H.5 MXMXMXMXMXMXMXMXMXMXMXMXMXMXMXMXMXMXMXMX",
"MXMXMXMXMXMXMXMXMXMXMXMXMXMXMXMXMXMXMXMXMXMXMXMXMXF m 1 ; y s ~  .( E ~ @.^ c D B.y.G.q MXMXMXMXMXMXMXMXMXMXMXMXMXMXMXMXMXMXMXMX",
"MXMXMXMXMXMXMXMXMXMXMXMXMXMXMXMXMXMXMXMXMXMXMXMX}.j N y 1 f g  ... .4.Y.>.& # r b @.*.C MXMXMXMXMXMXMXMXMXMXMXMXMXMXMXMXMXMXMXMX",
"MXMXMXMXMXMXMXMXMXMXMXMXMXMXMXMXMXMXMXMXMXMXMXcXL l W Y Y ~ Y | ,.d.1XeX=XI.[.m.V 7 7 q MXMXMXMXMXMXMXMXMXMXMXMXMXMXMXMXMXMXMXMX",
"MXMXMXMXMXMXMXMXMXMXMXMXMXMXMXMXMXMXMXMXMXMXMX{.n [ | ~ ` ~ ] X.e.^.1XuX0X5X&X{.6.N s , . MXMXMXMXMXMXMXMXMXMXMXMXMXMXMXMXMXMXMX",
"MXMXMXMXMXMXMXMXMXMXMXMXMXMXMXMXMXMXMXMXMXMXXXc N ] ..] | ..$.p.K._.eXuXuX9X|.{.V.p.@.k O   MXMXMXMXMXMXMXMXMXMXMXMXMXMXMXMXMXMX",
"MXMXMXMXMXMXMXMXMXMXMXMXMXMXMXMXMXMXMXMXMX|.V B B W / / ( %.,.B.W.'.qXrXrX%XN.N.7.8.0.b #     MXMXMXMXMXMXMXMXMXMXMXMXMXMXMXMXMX",
"MXMXMXMXMXMXMXMXMXMXMXMXMXMXMXMXMXMXMXMXM.V ' ^ ^ W Q / P / -.i.E.W.;XoX+XM.b h 7.v.9.n o     MXMXMXMXMXMXMXMXMXMXMXMXMXMXMXMXMX",
"MXMXMXMXMXMXMXMXMXMXMXMXMXMXMXMXMXMXMXS F ' ^ ~ / W P Q / ] %.4.Z.(.;XqX4Xb.b + j ;.v.S X     MXMXMXMXMXMXMXMXMXMXMXMXMXMXMXMXMX",
"MXMXMXMXMXMXMXMXMXMXMXMXMXMXMXMXMXMXMXF #.[ ` ' / I U P Q / $.1.u.H.'.,XqX Xz.F w u b S   MXMXMXMXMXMXMXMXMXMXMXMXMXMXMXMXMXMXMX",
"MXMXMXMXMXMXMXMXMXMXMXMXMXMXMXMXMXMXG #.#.' ] [ / ^ I P P Y Q ,.y.j.(.,X4X,XQ.b.;.G 5.MXMXMXMXMXMXMXMXMXMXMXMXMXMXMXMXMXMXMXMXMX",
"MXMXMXMXMXMXMXMXMXMXMXMXMXMXMXMXMXG m s ' [ ' [ @./ Q 4 U Q I ( ,.s.K.).:X>XoXOXP.x.@XMXMXMXMXMXMXMXMXMXMXMXMXMXMXMXMXMXMXMXMXMX",
"MXMXMXMXMXMXMXMXMXMXMXMXMXMXMXMXMXc i 7 M [ ] ' %.%.( ( I I R R E +.a.H.Q.OXoX2X+X{.&XMXMXMXMXMXMXMXMXMXMXMXMXMXMXMXMXMXMXMXMXMX",
"MXMXMXMXMXMXMXMXMXMXMXMXMXMXMXMX6.p t i t _ *.*.%.%.%.%.( I R E E +.3.j.J.Q.2XoX XXX&XMXMXMXMXMXMXMXMXMXMXMXMXMXMXMXMXMXMXMXMXMX",
"MXMXMXMXMXMXMXMXMXMXMXMXMXMXMXMXD t i v t 7 ] *.*.1.3.3.+.+.+.( +.2.t.j.W.>X3X2XoX+X}.MXMXMXMXMXMXMXMXMXMXMXMXMXMXMXMXMXMXMXMXMX",
"MXMXMXMXMXMXMXMXMXMXMXMXMXMXMX3XB v 4 f v a g ] ,.e.a.f.!.t.t.3.2.t.f.E.,X5X5X2X2X+XMXMXMXMXMXMXMXMXMXMXMXMXMXMXMXMXMXMXMXMXMXMX",
"MXMXMXMXMXMXMXMXMXMXMXMXMXMXMXc.B ! 4 4 f v g g } r.d.f.!.~.~.~.f.s.k.).6X8X5X+XoX@XMXMXMXMXMXMXMXMXMXMXMXMXMXMXMXMXMXMXMXMXMXMX",
"MXMXMXMXMXMXMXMXMXMXMXMXMXMX&XD B ] v ; a W ! W ` o.<.s.~././././.~./.).4X0X0X+X+X$XMXMXMXMXMXMXMXMXMXMXMXMXMXMXMXMXMXMXMXMXMXMX",
"MXMXMXMXMXMXMXMXMXMXMXMXMXMX*Xu @.^ ^ 1 1 v ! ] ..o.o.t.t.f./.].].].].:X4X5X8X5X$X$XMXMXMXMXMXMXMXMXMXMXMXMXMXMXMXMXMXMXMXMXMXMX",
"MXMXMXMXMXMXMXMXMXMXMXMXMXMXD 3 _ ! ^ a ; f / / =.a.s.t.t.s.j.H.R.].'.1X4X3X#X3X7X&XMXMXMXMXMXMXMXMXMXMXMXMXMXMXMXMXMXMXMXMXMXMX",
"MXMXMXMXMXMXMXMXMXMXMXMXMXdX- > l ^ ^ M 1 a W / =.L.H.k.k.H./.R.R.(.<X,X,XoX+X5X7X@XMXMXMXMXMXMXMXMXMXMXMXMXMXMXMXMXMXMXMXMXMXMX",
"MXMXMXMXMXMXMXMXMXMXMXMXMX{.# 3 t N ! M t 4 v W | d./.^.^.].'.'.'.].).=X3X3X#X5X#X@XMXMXMXMXMXMXMXMXMXMXMXMXMXMXMXMXMXMXMXMXMXMX",
"MXMXMXMXMXMXMXMXMXMXMXMXMXm.= 1 t v W M g s f Y T p.`.^.`._.:X_.W.'.;X;X>X4X3XOX|.%XMXMXMXMXMXMXMXMXMXMXMXMXMXMXMXMXMXMXMXMXMXMX",
"MXMXMXMXMXMXMXMXMXMXMXMXMXx.i t 4 s W ^ z s g W T ` a.^._._.:X).'.;X,X,X.X3X-X{.T. XMXMXMXMXMXMXMXMXMXMXMXMXMXMXMXMXMXMXMXMXMXMX",
"MXMXMXMXMXMXMXMXMXMXMXMXMXL i y p a m ^ N s g W / T =.L./._._.(.Q.;X;X>XoX>X-XS.A.c.aXMXMXMXMXMXMXMXMXMXMXMXMXMXMXMXMXMXMXMXMXMX",
"MXMXMXMXMXMXMXMXMXMXMXMXMXK i d y s f M ! d t l ! ~ } p.~.^.R.E.W.E.Y.Q..XoXY.i.0.9.9XMXMXMXMXMXMXMXMXMXMXMXMXMXMXMXMXMXMXMXMXMX",
"MXMXMXMXMXMXMXMXMXMXMXMXMXL c m d l l M M l t d z Y ~ o.e.k.H.G.S.J.S.Y.=X.Xi.p.g.0.0XMXMXMXMXMXMXMXMXMXMXMXMXMXMXMXMXMXMXMXMXMX",
"MXMXMXMXMXMXMXMXMXMXMXMXMXD 1 m i l l l N l y y z Y T } o.t.k.k.F.J.J.Q.Q.Y.B.A.G.8.XXMXMXMXMXMXMXMXMXMXMXMXMXMXMXMXMXMXMXMXMXMX",
"MXMXMXMXMXMXMXMXMXMXMXMXMXMX* > p i y m m m y t z T ~ E ) o.u.j.F.J.W.Y.A.S.J.J.G.y. XMXMXMXMXMXMXMXMXMXMXMXMXMXMXMXMXMXMXMXMXMX",
"MXMXMXMXMXMXMXMXMXMXMXMXMXMXw u j j 7 i j m y 5 p z ~ ~ ` o.e.F.J.S.A.0.A.J.Y.R.L.i.OXnXMXMXMXMXMXMXMXMXMXMXMXMXMXMXMXMXMXMXMXMX",
"MXMXMXMXMXMXMXMXMXMXMXMXMXMX2 u x k p 0 p u q , ; f / | } 1.j.g.i.Z.V.0.7.i.Q.Q.R.i.oXnXMXMXMXMXMXMXMXMXMXMXMXMXMXMXMXMXMXMXMXMX",
"MXMXMXMXMXMXMXMXMXMXMXMXMXMXMXn j j u 0 0 0 : * , f / ` X.r.F.8.-.&.7.#.i :.=X:X^.g..XvXMXMXMXMXMXMXMXMXMXMXMXMXMXMXMXMXMXMXMXMX",
"MXMXMXMXMXMXMXMXMXMXMXMXMXMXMXMX- u u q q 3 * + 3 M ] ..o.s.j.*.&.:.:.q * { Q.:X^.Z..XvXMXMXMXMXMXMXMXMXMXMXMXMXMXMXMXMXMXMXMXMX",
"MXMXMXMXMXMXMXMXMXMXMXMXMXMXMXMX@ : h 0 0 0 = $ 5 M ' $.o.f.F.-.7.9.Z 5 q V S.=XR.G.A.$XjXbXMXMXMXMXMXMXMXMXMXMXMXMXMXMXMXMXMXMX",
"MXMXMXMXMXMXMXMXMXMXMXMXMXMXMXMXMX# w w 5 : * % 0 B ^ X.1.d.B.:.7.;.b = q k n.Q.R.E.w.;.z.|.rXsXbXMXMXMXMXMXMXMXMXMXMXMXMXMXMXMX",
"MXMXMXMXMXMXMXMXMXMXMXMXMXMXMXMXMXMX@ - u : * $ : N ^ $.<.d.d.9.v.v.;.q - b 7.W.J.R.w.C C H b.{.#XjXMXMXMXMXMXMXMXMXMXMXMXMXMXMX",
"MXMXMXMXMXMXMXMXMXMXMXMXMXMXMXMXMXMXMX# # = % $ 3 m z ] 1.a.L.Y.S.c.c.x.F b &.E.E.g.;X$X;.H L z.x.M.lXMXMXMXMXMXMXMXMXMXMXMXMXMX",
"MXMXMXMXMXMXMXMXMXMXMXMXMXMXMXMXMXMXMXMX# O # & 0 m d / 1.s.K.Y.I.U.P.b.q.V C 8.i.h.qXbXbXhX*Xr J J gXMXMXMXMXMXMXMXMXMXMXMXMXMX",
"MXMXMXMXMXMXMXMXMXMXMXMXMXMXMXMXMXMXMXMXMXMX2 o - c i ! =.u.L.Y. X X X{.c.H C #.u.j.A.lXMXMXMXlXsXcXnXMXMXMXMXMXMXMXMXMXMXMXMXMX",
"MXMXMXMXMXMXMXMXMXMXMXMXMXMXMXMXMXMXMXMXMXMXMXK o w V ! ..e.F.S.T. XOXXX Xb.k x 8.G.i.U.fXbXMXMXMXMXMXMXMXMXMXMXMXMXMXMXMXMXMXMX",
"MXMXMXMXMXMXMXMXMXMXMXMXMXMXMXMXMXMXMXMXMXMXMXMXMXS u M $.3.y.Z c.|.@X7X5X$Xx.z.0.g.E.8.H x.%XtXlXvXMXMXMXMXMXMXMXMXMXMXMXMXMXMX",
"MXMXMXMXMXMXMXMXMXMXMXMXMXMXMXMXMXMXMXMXMXMXMXMXMXMXc i @.a.:.XXlXmXmXbXvXbXvXvXyX9.k.h.i.Z &.q.z.M.mXMXMXMXMXMXMXMXMXMXMXMXMXMX",
"MXMXMXMXMXMXMXMXMXMXMXMXMXMXMXMXMXMXMXMXMXMXMXMXMXMX6.3 $.1.Y.zXMXMXMXMXMXMXMXMXvX1Xg.E.W.l.n.D.w.5 *XMXMXMXMXMXMXMXMXMXMXMXMXMX",
"MXMXMXMXMXMXMXMXMXMXMXMXMXMXMXMXMXMXMXMXMXMXMXMXMXMXMXp $.1.Y.zXMXMXMXMXMXMXMXMXMXxX'.l.Q.E.S.n.n.J tXMXMXMXMXMXMXMXMXMXMXMXMXMX",
"MXMXMXMXMXMXMXMXMXMXMXMXMXMXMXMXMXMXMXMXMXMXMXMXMXMXMXS [ ,.Y.zXMXMXMXMXMXMXMXMXMXMXMXE.w.D.E.E.q.%XvXMXMXMXMXMXMXMXMXMXMXMXMXMX",
"MXMXMXMXMXMXMXMXMXMXMXMXMXMXMXMXMXMXMXMXMXMXMXMXMXMXMXc [ =.B.kXMXMXMXMXMXMXMXMXMXMXMXMXl.;.H b.x.kXMXMXMXMXMXMXMXMXMXMXMXMXMXMX",
"MXMXMXMXMXMXMXMXMXMXMXMXMXMXMXMXMXMXMXMXMXMXMXMXMXMXMXq _ -.B.iXMXMXMXMXMXMXMXMXMXMXMXMXMXpXuXyXkXMXMXMXMXMXMXMXMXMXMXMXMXMXMXMX",
"MXMXMXMXMXMXMXMXMXMXMXMXMXMXMXMXMXMXMXMXMXMXMXMXMXMXMXw l -.4.uXMXMXMXMXMXMXMXMXMXMXMXMXMXMXMXMXMXMXMXMXMXMXMXMXMXMXMXMXMXMXMXMX",
"MXMXMXMXMXMXMXMXMXMXMXMXMXMXMXMXMXMXMXMXMXMXMXMXMXMXMX5 N y.B.wXMXMXMXMXMXMXMXMXMXMXMXMXMXMXMXMXMXMXMXMXMXMXMXMXMXMXMXMXMXMXMXMX",
"MXMXMXMXMXMXMXMXMXMXMXMXMXMXMXMXMXMXMXMXMXMXMXMXMXMXMX6 N s.K.;XMXMXMXMXMXMXMXMXMXMXMXMXMXMXMXMXMXMXMXMXMXMXMXMXMXMXMXMXMXMXMXMX",
"MXMXMXMXMXMXMXMXMXMXMXMXMXMXMXMXMXMXMXMXMXMXMXMXMXMXMXMXk G.E.V.iXMXMXMXMXMXMXMXMXMXMXMXMXMXMXMXMXMXMXMXMXMXMXMXMXMXMXMXMXMXMXMX",
"MXMXMXMXMXMXMXMXMXMXMXMXMXMXMXMXMXMXMXMXMXMXMXMXMXMXMXMXF &.S.V.{.MXMXMXMXMXMXMXMXMXMXMXMXMXMXMXMXMXMXMXMXMXMXMXMXMXMXMXMXMXMXMX",
"MXMXMXMXMXMXMXMXMXMXMXMXMXMXMXMXMXMXMXMXMXMXMXMXMXMXMXMXMXL x.;.[.MXMXMXMXMXMXMXMXMXMXMXMXMXMXMXMXMXMXMXMXMXMXMXMXMXMXMXMXMXMXMX",
"MXMXMXMXMXMXMXMXMXMXMXMXMXMXMXMXMXMXMXMXMXMXMXMXMXMXMXMXMXdXsXhXMXMXMXMXMXMXMXMXMXMXMXMXMXMXMXMXMXMXMXMXMXMXMXMXMXMXMXMXMXMXMXMX"
};
