/* XPM */
static char *result[] = {
/* columns rows colors chars-per-pixel */
"64 64 174 2 ",
"   c #23170F",
".  c #4D3C23",
"X  c #56422B",
"o  c #5F4A2C",
"O  c #554833",
"+  c #765523",
"@  c #5A4E40",
"#  c #716348",
"$  c #85612C",
"%  c #856943",
"&  c #88764B",
"*  c #8B7A4E",
"=  c #967943",
"-  c #9A7B44",
";  c #817350",
":  c #8D7651",
">  c #977753",
",  c #957E54",
"<  c #967E58",
"1  c #8A7D66",
"2  c #8D8259",
"3  c #9A8357",
"4  c #95835C",
"5  c #9C875F",
"6  c #9F885B",
"7  c #BA944E",
"8  c #A5875D",
"9  c #AD915C",
"0  c #B49557",
"q  c #BA9452",
"w  c #BB9957",
"e  c #B39559",
"r  c #B8975B",
"t  c #B79A5D",
"y  c #BB9B5E",
"u  c #9B8B63",
"i  c #9E9377",
"p  c #A39161",
"a  c #A4946D",
"s  c #A9946F",
"d  c #AF9969",
"f  c #B69B63",
"g  c #BC9E64",
"h  c #B59D6C",
"j  c #BA9E6A",
"k  c #B19563",
"l  c #AD9D70",
"z  c #AE9F7F",
"x  c #B39F71",
"c  c #B69F7A",
"v  c #B6A067",
"b  c #BDA164",
"n  c #B7A16A",
"m  c #BDA36B",
"M  c #BEA96E",
"N  c #AFA072",
"B  c #B6A373",
"V  c #BCA473",
"C  c #BDA974",
"Z  c #B5A57A",
"A  c #BBA67C",
"S  c #BDA97B",
"D  c #B4AB7D",
"F  c #C09E5D",
"G  c #C4A25F",
"H  c #C29E62",
"J  c #C3A365",
"K  c #CDAA66",
"L  c #C2A56B",
"P  c #C4A96C",
"I  c #C9AB6D",
"U  c #D3AC6B",
"Y  c #C2A672",
"T  c #C4AB74",
"R  c #C9AC74",
"E  c #C1A77A",
"W  c #C3AC7B",
"Q  c #CAAE7C",
"!  c #C6B277",
"~  c #CBB175",
"^  c #C6B17C",
"/  c #CBB27C",
"(  c #CDB97F",
")  c #D2B67D",
"_  c #D2B97E",
"`  c #A39880",
"'  c #AEA686",
"]  c #B2A283",
"[  c #B9A683",
"{  c #B5AA84",
"}  c #BCAD83",
"|  c #BBAB8B",
" . c #BEB084",
".. c #BEB48D",
"X. c #B5AA93",
"o. c #BDAF93",
"O. c #BFB395",
"+. c #B7B09E",
"@. c #BCB298",
"#. c #BDB898",
"$. c #C4AE82",
"%. c #CAAE82",
"&. c #C1AF8D",
"*. c #C6B184",
"=. c #CAB485",
"-. c #CDB984",
";. c #C5B48A",
":. c #CBB58A",
">. c #CDB98C",
",. c #D2B685",
"<. c #D3BA84",
"1. c #D4B788",
"2. c #D2BC8D",
"3. c #D9BE8D",
"4. c #C4B594",
"5. c #CEB590",
"6. c #C6BA93",
"7. c #CCBC93",
"8. c #C3B69A",
"9. c #C6BB9C",
"0. c #CDBD9B",
"q. c #D2BD92",
"w. c #C4BBA4",
"e. c #CABEA5",
"r. c #C6BEAD",
"t. c #D9C086",
"y. c #D4C08D",
"u. c #DEC38A",
"i. c #CFC097",
"p. c #CEC29B",
"a. c #D5C194",
"s. c #DAC494",
"d. c #D3C39B",
"f. c #D9C59A",
"g. c #D6C99C",
"h. c #DDC99E",
"j. c #E1C189",
"k. c #E1CA96",
"l. c #E1C498",
"z. c #E4CC9C",
"x. c #CDC3A3",
"c. c #CEC5AC",
"v. c #CFCAA9",
"b. c #D1C3A3",
"n. c #D3C8A5",
"m. c #D9CBA3",
"M. c #D1C4A9",
"N. c #D8C7AB",
"B. c #D5CBAC",
"V. c #DBCCAC",
"C. c #DDD1AF",
"Z. c #C5C0B0",
"A. c #CDC7B1",
"S. c #CCC9BC",
"D. c #D5CCB3",
"F. c #D9CDB3",
"G. c #DCD1B4",
"H. c #DCD4BB",
"J. c #DED9BC",
"K. c #D4D2BC",
"L. c #E0CCA1",
"P. c #E6DDB4",
"I. c #E2D7BF",
"U. c #EAD7B9",
"Y. c #E3DABD",
"T. c #E5D7B3",
"R. c #EDE1BC",
"E. c #E4DBC3",
"W. c #E8DFC6",
"Q. c #E9E2CD",
"!. c #FAE8CC",
"~. c #F2EDD7",
"^. c #F1EAD8",
"/. c None",
/* pixels */
"/./././././././././././././././././././././././././././././.` o./././././.A././././././././././././././././././././././././././.",
"/./././././././././././././././././././././././././././././.: , b./././.d.a /./././././././././././././././././././././././././.",
"/./././././././././././././././././././././././././././././.% + = V ^ Y g m /./././././././././././././././././././././././././.",
"/./././././././././././././././././././././././././././././.> $ q y g r J j.g./././././././././././././././././././././././././.",
"/././././././././././././././././././././././././././././.} - R J f W / H Q $.F././././././././././././././././././././././././.",
"/././././././././././././././././././././././././././././.f g ~ ( < o 6 ,.8 > U.^./././././././././././././././././././././././.",
"/./././././././././././././././././././././././././././.S H <.y.f.;.4 p y.a.0.U.~./././././././././././././././././././././././.",
"/././././././././././././././././././././././././././.V.e t R :.a.d.g.a.d.# O c.~./././././././././././././././././././././././.",
"/././././././././././././././././././././././././././.h 0 g W -.;.>.;.;.8.O   X././././././././././././././././././././././././.",
"/./././././././././././././././././././././././././.n.e b R Y 2.*.*.S * ; . O 0././././././././././././././././././././././././.",
"/./././././././././././././././././././././././././.^ m R =.W E -.*.C B 5 4 Z C././././././././././././././././././././././././.",
"/././././././././././././././././././././././././.G.E ~ =.=.=.W *.=.V V / 1.s.C././././././././././././././././././././././././.",
"/././././././././././././././././././././././././.;.T 1.2.:.:.:.=.^ C V C ! t.P././././././././././././././././././././././././.",
"/./././././././././././././././././././././././.F.B =.1.q.2.=.%.;.=.S ! C ! s.P././././././././././././././././././././././././.",
"/././././././././././././././././././././././.E.j P ( s.2.:.=.*.W ^ S ! S *.s.f.8./././././././././././././././././././././././.",
"/./././././././././././././././././././.B.$.j r q J Q s.7.2.:.=.=.*.S C C y.s.t.j V N./././././././././././././././././././././.",
"/././././././././././.x.7.$.W B m h C m f g J 7 7 J R y.s.:.*.=.*.^ C M W <.k.~ y F h V B E $.:.4.d.D.Q././././././././././././.",
"/././././././././.4.V T T / / I J G G K U I K w J I R 1.=.:.>.=.*.C C M / _ t.J G y g t f g j j E T S A | I././././././././././.",
"/./././././././.} V ^ 2.2.2.y.<.) R P I K P J J ~ R / -.=.:.:.=.^ ! ! C ! _ ! T T Y R T R j T =.>.2.2.^ C x E./././././././././.",
"/././././././.A $.:.W ;.>.;.:.=.-.=.! ~ T R ! / ^ R R R / R W ^ ! C T Y R P T =.=.^ =.-.=.%.=.=.=.>.=.W -.^ D /././././././././.",
"/./././././.$.*.2.q.:.=.5.:.=.$.=.^ ! =./ =.=.^ ! ! ! M P Y Y M M P P R L L =.=.*.*.=.=.:.Q $.:.2.>.*.:.>.y.S B././././././././.",
"/././././.I.S 3.7.>.7.:.=.:.=.&.=.*. .*.=.;.^ C B M m J b L P M J P P m g W =.*.=.=.;. .=.W E 1.q.=.:.>.;.a.-..././././././././.",
"/././././.0.%.q.>.>.7.;.;.;.;.=.;.=.:.=.;.W $.=.^ V m P m f b b b b L b W $.$.;.;.=.*.$.$.E V =.:.:.:.:.>.i.-. ././././././././.",
"/././././.$.2.>.;.>.6.>.;.;.5.:.;.;.*.$.$.*.=.*.^ C C W W T W S C m J L =.;.=.$.$.=.=.$.%.W B %.1.:.>.7.i.>.y.S /./././././././.",
"/././././.A 3.>.;.:.;.;.;.$.$.=.=.*.=.=.=.$.=.=.$.$.$.$.} =.*.W ^ T J b =.:.$.$.$.$.$.=.=.$.V W =.;.>.7.>.7.a.W F./././././././.",
"/./././.H.S q.>.>.:.=.;.=.$.E =.$.=.:.*.$.=.;.:.:.$.;.$.=.=.:.;.=.=.b f Q =.%.$.$.E $.:.=.%.V S =.*.=.>.>.>.q.$.B./././././././.",
"/./././.;.W q.q.q.5.$.=.:.$.B E $.=.*.*.=.;.=.:.=.$.$.$.*.*.-.*.:.( H t W =.$.%.%.*.*.*.%.W Y E >.=.*.>.q.>.2.E B./././././././.",
"/././.G.f Q >.7.5.5.;.=.:.W m C %.$.$.$.;.$.$.%.*.$.*.$.*.;.=.*.>.<.L k T %.$.$.$.$.$.$.$.%.V E >.=.*.>.q.2.2.T ;./././././././.",
"/././.$.g ^ =.>.:.:.:.:.=.^ M b T $.*.$.$.$.$.$.=.$.*.=.*.$.;.*.-.<.g r R :.=.=.;.*.W *.%.%.Y W :.*.:.>.2.2.:.T D /././././././.",
"/././.h L W ;.:.:.7.*.:.*.^ n g V =.=.=.$.*.$.%.*.:.:.:.=.;.*.;.>./ g r Y 1.:.:.*.:.*.W E Y Y ( :.:.>.:.>.:.=.T n /././././././.",
"/././.f L W ^ :.:.:.*.:.*.C v g V E =.=.;.=.;.;.:.q.:.=.:.>.;.=.^ ! g 0 P :.:.:.$.W W C M m T =.=.>.>.>.:.:.=.T V Y././././././.",
"/././.f J / *.*.=.=.$.=.W C g P m V E W $.;.;.:.:.7.:.:.;.:.;.=.=.) J 0 C 2.:.$.$.W S C g H P W :.*.*.>.:.=.W T d /././././././.",
"/././.f L ^ :.$.W ^ -.=.Y b g Q Q j T T *.*.*.=.>.>.=.>.=.-.>.=.-.<.J r P 1./ W T T C f r F J W :.$.*.:.=.$.$.Y h /././././././.",
"/././.j P =.:.%.*.S T / T f L W ,.T g m L Q =.=.2.y.y.2.=.=.-.W ( ( t t L I I L L L f f H H v E *.*.=.*.*.=.=.L S /././././././.",
"/././.V C %.:.;.:.W V E m E R.G.} =.L t g L P / -.( =./ Y Y T L ! L f y y J H F F y F L I J f M W =.:.$.*.=.=.M } /././././././.",
"/././.V W =.;.$.;.*.W E f h././.E.;.Q H g g g m P L b b f f f j m b L J b J J R J I R Q 3.,.f g W =.S $.=.=.=.n 7./././././././.",
"/././.S =.*.*.=.:.*.=.*.C  ./././.9.S ^ T M m T T Y P H L Y P m g g g L P T ) ) ) j.W [ L.!.5.f T Y V $.%.=.=.n H./././././././.",
"/./.x.S =.;.;.=.:.*.*.*.*.C d././.H.Z :./ ^ ^ =.1.=.Y L L L j H T T T Y ) Q / R T 3.R $.W././.=.f P W $.$.;.*.A /./././././././.",
"/./.O.$.=.$.*.*.;.$.^ *.*.^ V /././.4.W =.*.*.=.1.%.j H L L L R _ u.) H P T R -.%.l.%.9./././.E E =.=.=.%.*.=.E /./././././././.",
"/./.} W ;.$.$.*.$.S $.^ *.W h n././.E.Z ! ^ ^ =.1.%.j j j m m m m Y R H R 1.<.^ ,.L.%.D././.0.V ^ *.*.$.:.=.=.[ D./././././././.",
"/./.D T =.*.$.*.*.$.$.W ^ W h ;./././. .M M C ! / L b m b L b m P 1./ g g Y Q =.^ z.:.I./.H.B ^ *.*.;.W ;.*.%.E D./././././././.",
"/./.D C ^ W $.:.*.$.$.*.*.W g E /././.n.g t v y P P m J J P I R Q ,.I m ) 3.<.=.W k.=.G./.0.j $.;.*.$.$.$.$.%.} D./././././././.",
"/./.;.M *.*.*.:.=.$.*.=.^ ^ H $./././.m.t G G m ( ~ P P t y v b M ,._ m T R ,.W ! k.^ M./.A g W %.*.$.*.$.$.=.V D./././././././.",
"/./.M.Z -.=.:.$.$.*.=.:.=.Q j 7./././.m.J J G J ! ( ( ~ g L ~ I T u./ f T Q / E Q 3.m b./.c g W *.*.$.*.=.*.=.B /./././././././.",
"/././.N =.>.-.*.%.=.:.:.1.%.x F./././.V.g y H P ) <.2.y.T b P J L Q ^ b / ,.T M R P k F./.&.j =.$.*.W $.:.*.*.Z /./././././././.",
"/././...:.2.:.*.;.=.q.5.q.$.&././././.Y.f L F b T ^ =.a.<.b J I P ,.,.m / Q R _ I y $./././.h W =.=.=.;.*.=.=. ././././././././.",
"/./././...3.=.=.;.=.:.q.:.Z ] /././././.L F I ~ <.=.=.=.t.P b m v T Q L R E ,./ P P /./././.S T 7.1.>.*.$.>.*.4././././././././.",
"/./././.c.*.>.=.=.:.:.=.$.$.s e././././.Y F v R 1.=.$.^ =.-.T L J Q Q T L Q T C v T /./././.Z A 1.7.:.=.:.7.;./././././././././.",
"/././././.|  .>.:.:.>.:.>.:.S u /./././.h I / C Y C E =.%.=.^ m g W V h Q %.^ / Y x /././.@.l *.:.>.:.=.=.7.0./././././././././.",
"/./././././.4.q.>.2.2.q.q.>.*.B 4 /././.h / =.W ^ W W W $.W ^ j q./.B.C 2.:.=.=.Q S /./.X.a *.>.q.q.q.7.a.6././././././././././.",
"/././././././.d.d.2.>.2.>.>.:.=.u i /./.D W =.$.^ %.^ =.=.Q T B /././. .2.>. .-.%.0./.' u E :.q.q.2.q.s.d.H././././././././././.",
"/././././././.G.0.7.:.q.a.>.>.7.*.u /./.p.W 3.=.=.*.=.=.-.>.B G./././. .*.=.;.-.W /./.2 x :.5.q.q.q.7.s.p./././././././././././.",
"/./././././././.c.0.>.a.q.2.a.B x a /././.S 3.:.;.%.:.:.q.:.n././././...S -.=.! Z /.S.u %.q.q.q.s.q.q.a.A./././././././././././.",
"/././././././././.p.a.a.f.g.g.;.3 & w././.O.E 1.=.:.:.=.$.8./././././.9.^ -.^ C &././.a x c f.s.f.s.y.0././././././././././././.",
"/././././././././.H.p.g.g.6.f.>.} 8././././.j ,.^ =.<.*.' /./././././.B.V -./ b G././.1 4 $.m.h.f.m.d.G././././././././././././.",
"/./././././././././.w.#.g.D D i.' /././././.B T ( ^ ^ Z /././././././.V.9 / Q 9 n./././.{ 2.q.} a.0.4./././././././././././././.",
"/././././././././././.+.J.n.#.K././././././.$.k / ^ h 4./././././././.4.C =.Y g 4././././.e.;...G.c././././././././././././././.",
"/./././././././././././././././././././././.x.^ >.>.*.8./././././././.;.-.=.1.S /./././././././././././././././././././././././.",
"/././././././././././././././././././././././.;.y.:.:.M./././././././.8.2.:.1.8././././././././././././././././././././././././.",
"/././././././././././././././././././././././.} =.:.;.G./././././././.4.=.:.[ /././././././././././././././././././././././././.",
"/././././././././././././././././././././././.4.W 2.{ /./././././././.8.1.$.w./././././././././././././././././././././././././.",
"/./././././././././././././././././././././././.[ =.7././././././././.D.$.4././././././././././././././././././././././././././.",
"/./././././././././././././././././././././././.x.S p././././././././.A.z 9.K./././././././././././././././././././././././././.",
"/./././././././././././././././././././././././.Z.X.o.Z././././././././././././././././././././././././././././././././././././."
};
