/* XPM */
static char *f0a644f1b80a4a899fd95e2cb03d66340OZuNPYC0kzv13Uy[] = {
/* columns rows colors chars-per-pixel */
"64 64 246 2 ",
"   c #060606",
".  c #0B0C0D",
"X  c #150A0B",
"o  c #0F1111",
"O  c #131314",
"+  c #181717",
"@  c #171719",
"#  c #1B1B1C",
"$  c #230101",
"%  c #2C0001",
"&  c #280D0D",
"*  c #340001",
"=  c #3C0101",
"-  c #360B0B",
";  c #261A19",
":  c #381919",
">  c #2C211E",
",  c #1E1E21",
"<  c #1F2023",
"1  c #232325",
"2  c #262629",
"3  c #282629",
"4  c #2A2A2D",
"5  c #36292A",
"6  c #35322F",
"7  c #262D37",
"8  c #2E2D31",
"9  c #312F33",
"0  c #3D2D32",
"q  c #333234",
"w  c #393537",
"e  c #3C3B3B",
"r  c #440202",
"t  c #4C0305",
"y  c #4E0509",
"u  c #490A0B",
"i  c #520305",
"p  c #5C0305",
"a  c #52060A",
"s  c #5B0609",
"d  c #54090D",
"f  c #5B0A0E",
"g  c #470E11",
"h  c #560C11",
"j  c #5B0D12",
"k  c #491517",
"l  c #5C1216",
"z  c #5E151A",
"x  c #5A181A",
"c  c #620406",
"v  c #6B0405",
"b  c #670609",
"n  c #630A0E",
"m  c #6C0A0D",
"M  c #730405",
"N  c #7C0305",
"B  c #73090C",
"V  c #7B080B",
"C  c #620C12",
"Z  c #6B0D12",
"A  c #780D12",
"S  c #631115",
"D  c #63141B",
"F  c #6B151B",
"G  c #6C161A",
"H  c #631A1E",
"J  c #721315",
"K  c #7B1215",
"L  c #74151A",
"P  c #74191C",
"I  c #7B181C",
"U  c #4D1F22",
"Y  c #681721",
"T  c #651B21",
"R  c #6A1D23",
"E  c #6A1F29",
"W  c #721C22",
"Q  c #7C1C24",
"!  c #731E28",
"~  c #432826",
"^  c #55342A",
"/  c #4F2D30",
"(  c #433937",
")  c #662125",
"_  c #6A2226",
"`  c #63272C",
"'  c #6C242A",
"]  c #6D292D",
"[  c #732125",
"{  c #73242C",
"}  c #78262A",
"|  c #7B252C",
" . c #6E2732",
".. c #6F2B32",
"X. c #732B33",
"o. c #762B35",
"O. c #7B2B34",
"+. c #693535",
"@. c #743136",
"#. c #75333B",
"$. c #7B333C",
"%. c #7B3A3E",
"&. c #46413B",
"*. c #51483D",
"=. c #6B473C",
"-. c #333B48",
";. c #773844",
":. c #7C3A44",
">. c #7A3D4A",
",. c #364E6C",
"<. c #454444",
"1. c #4A4746",
"2. c #4D4D4D",
"3. c #574C45",
"4. c #544F4E",
"5. c #525252",
"6. c #5C5C5C",
"7. c #744746",
"8. c #7C414D",
"9. c #66584B",
"0. c #725252",
"q. c #6E6152",
"w. c #736355",
"e. c #786659",
"r. c #7C6C5C",
"t. c #515865",
"y. c #5D6166",
"u. c #646464",
"i. c #676868",
"p. c #6B6A6A",
"a. c #6F7070",
"s. c #747474",
"d. c #7C7B7C",
"f. c #840304",
"g. c #8C0303",
"h. c #88080A",
"j. c #930304",
"k. c #9B0203",
"l. c #94090C",
"z. c #99090B",
"x. c #890E13",
"c. c #9B0E11",
"v. c #8B1316",
"b. c #87161A",
"n. c #971519",
"m. c #A40202",
"M. c #AB0203",
"N. c #A40A0D",
"B. c #AC0B0D",
"V. c #B40203",
"C. c #BC0202",
"Z. c #B9090B",
"A. c #B2100F",
"S. c #A60E11",
"D. c #B80E12",
"F. c #A61418",
"G. c #B91315",
"H. c #841C23",
"J. c #8B1B22",
"K. c #971F22",
"L. c #B51B21",
"P. c #822226",
"I. c #83242B",
"U. c #8A2628",
"Y. c #952325",
"T. c #842B34",
"R. c #853438",
"E. c #AF282E",
"W. c #C40102",
"Q. c #CC0102",
"!. c #C7090B",
"~. c #D40101",
"^. c #DB0101",
"/. c #D60A0B",
"(. c #C80E11",
"). c #CA1317",
"_. c #D91516",
"`. c #E30101",
"'. c #EC0101",
"]. c #E40B0D",
"[. c #F40101",
"{. c #E70F11",
"}. c #CC292D",
"|. c #EB2626",
" X c #C5433B",
".X c #833C44",
"XX c #85574A",
"oX c #874C54",
"OX c #8B4E51",
"+X c #AC5E52",
"@X c #846B5C",
"#X c #8F5860",
"$X c #955E63",
"%X c #976667",
"&X c #837262",
"*X c #8B7A69",
"=X c #917E6C",
"-X c #997073",
";X c #B0786E",
":X c #A4787D",
">X c #C94C4E",
",X c #DC6768",
"<X c #938370",
"1X c #998673",
"2X c #9B8773",
"3X c #A38B77",
"4X c #BE8D7A",
"5X c #A8927D",
"6X c #3C74B2",
"7X c #4972A7",
"8X c #A77E81",
"9X c #4388D3",
"0X c #7097C7",
"qX c #848484",
"wX c #898787",
"eX c #8B8B8B",
"rX c #968889",
"tX c #949393",
"yX c #979898",
"uX c #9B9B9B",
"iX c #AD8B8E",
"pX c #AD9782",
"aX c #A99596",
"sX c #B6989B",
"dX c #B8A38B",
"fX c #B1A69C",
"gX c #B79DA1",
"hX c #A8A8A8",
"jX c #B5ABAB",
"kX c #B9B7B7",
"lX c #E49F96",
"zX c #C3AA92",
"xX c #CAA894",
"cX c #CAB0A9",
"vX c #C8B7B9",
"bX c #D6BCBE",
"nX c #DBC1A7",
"mX c #9BAFC8",
"MX c #CDBFC1",
"NX c #C8C4C4",
"BX c #D6CACB",
"VX c #DBD5D5",
"CX c #EEC5C6",
"ZX c #E4D8D8",
"AX c #E1DFE4",
"SX c #ECE5E6",
/* pixels */
"$ $ $ % * $ r ~.m.r $ % % % * p W.j.r r r r l  .R z y y y y y y h d x.z.h #.@.) x h d d d y a d u H x h x x h ) x n p t r r = r ",
"$ $ $ $ $ $ v `.^.k.% $ $ % % M ^.M.* * = r Y  .T z y y y y h T X.X.N.z.a d ) l d d d y d d d d h ) x d ) x x x l u u t r r r r ",
"$ $ $ $ $ $ g.'.'.~.y : ~ : u C.'.C.r r i y { { E h y y y h ' o.$...K B y d d a a d z z d a u x ] x x H ) ) l d d d t u t t r t ",
"% % $ $ $ % M.'.'.(.XX&X@X<X%X}.'.~.c c M.v u h r r y y d R X.' $.X.l a d d d h l @...) d d d d d ] ) l l d d d d d s d t u t t ",
"* % $ $ $ * C.`./.+X<X<X<X5XdX4X_.^.f.f.^.g.r y C E d y z #.:.o.j d a d d d _ ] ) H ] x d h d d d x h d d d d d f c.N.f d a a a ",
"* % % $ $ p Q.~. X3X<X<X<X5XzX5X X`.M.C.^.m.y m (.S.s y y a j h d a a s a d ' ' ) z ] H d d f h d d d f l ) ) l G /.A.f j f f n ",
"% % % r p k.W.A.4X5X3X<X5XdXzXzX;X'.Q.`.~.m.i M `.^.V.g.s y y d h j x.l.h @.] ) _ z ) H d d d d h x l ) +.] +.] x F.n.l S S S S ",
"% * % k.Q.~.M.R.zXzX5X<X3X4XzX5X4X_.`.'.^.M.t f.[.[.`.C.M d l o.@...S.l.d h @.' H d d d d f j d h ) ) ) _ H ) [ H K J H H T ) [ ",
"% * * C.`.~.k.XXnXnX5X<X1X5X5XdXdX}.[.^.~.M.r m.`.[.'.W.N T H ..' ..K B a d j d d d d d d f d j z H ) _ X.' T  .X.G T T E  . .o.",
"$ * t ~.`.W.f.2XnXnX5X<X1X<X<X5XpXE.'.Q.^.V.i C.W.~.`.W.n.X.H X..X' D d d d d f j T ) z d f j z ] H _ ' ' Y T T T T E '  ...;.;.",
"% % c `.`.W.m 3X4XdX1Xr.1X1X<X3X<X{ ~.C.^.V.M W.V.j.Q.Q.z.' $.' T d a d d d T @.) ] @.H d j j f j _ ' T T D z Y T ' '  .+.;.;.>.",
"% % v `.`.C.n 3X5X5X<Xr.<XdX5X5X<X+.M.V.`.Q.M.Q.m.B V.Q.m.c.x.s y d b m d h @.:.T ] ' z d j d j j l l z D H Y Y ' { T.o.;.;.;.>.",
"% % N `.`.V.x 2X1X<X&Xr.<XdXdX5XpXXXm k.`.`.`.W.k.p M.~.C.^.Q.x. .T S.N.j X.o.@.] ] @.' f f j j l S l D D Y E E ;.}.E.;.;.;.;.>.",
"% r j.^.^.m.x *X<X<Xr.w.r.5X5XdX5XXXl m V.'.`.C.f.* k.^.~.[.^.F.$.#.x.h.h j T o._ x l j d h j j j D H _ ;.;.o.;.o.}.E.;.;.;.>.0.",
"i W.~.^.^.k.k r.r.&Xr.q.r.1X5X5X3X7.D d v `.`.M.M * N ^.`.[.^.B.R X.G n d d l j h d f d h j j j l ' X.' .X.Xo.;. ..X.X;.>.>.>.8.",
"f.[.`.~./.g.u q.r.r.q.q.r.1X3X5X<X` d t r C.^.M.p * v '.`.^.'.!.Q R z d d f f d f h l j f h f j G X...o..X-X.X;.>.o.;.;.>.>.8.8.",
"C.'.`.~.Q.N = 9.w.q.9.9.w.<X<Xq.q.x t c p h.Q.k.t * p `.Q.W.[.~.h.a d z ] _ T ' ` T  .>.T j j S X.] ] @.:XvXsX:.%.#.;.;.;.>.>.>.",
"Q.`.`.V.f.p = =.w.9.9.9.q.<X<Xr.r.) ) l.f.G N.j.t * t ~.Z.B.{.[.N.C W .XsX:X.XX. .;.$XzX-X) H D l @.#.oXfXy.aX#X;.;.>.>.>.>.8.8.",
"W.Q.`.m.r * = +.w.9.*.9.9.<Xr.9.9.) H B c y S n r * * D.>X;X,X>X>X:XlXlXqXhX:X%.$XsXnXqXjXiX:XiX%X-XiXsXjXa.uXvXiXgX8X8.>.8.8.8.",
"V.j.~.k.= * * ^ w.9.*.*.9.r.2X5XXXS l h y y y r * * * .XcXBXBXCXCXNXBXVX6.s.vX3XvXNXkX6.wXSXNXNXZXBXBXBXNXqXuXAXVXNXMX-X>.>.>.>.",
"k.p W.g.* = = U w.9.*.*.*.w.2XdX#.y y y t t h z u * * -Xp.e 2.uXyX4.2.2.eXu.tXBXp.9.e tXq.y.5.2.wX6.<.5.d.eX5.<.<.5.p.iX>.>.>.>.",
"N * N v * * r k w.q.*.*.&.*.&X3Xx r y v b y E ' d r - 1XeXhXjXu.u.hXhX<.kXuXeXNX7XpX4.NXeX-.hXhX2.s.jXhX5.d.5.s.6.uXa.aX8.>.>.>.",
"t % * = = * r g r.r.=.*.6 ~ 9.9.x z Y l.N H ' z l d u tXtXs.6.u.s.4.i.6.i.y.kXNXeX1 8 qX<.a.u.y.p.s.6.p.5.d.yX<.7X~ 4.vX>.>.>.>.",
"* * * = = * * g r.&Xq.9.*.6 k k S E Y Z s u E z S a u aXeXd.d.u.7XyXtXi.u.yXSXvXd.tXe d.s.wXtXyXs.p.d.eX5.uXhXi.*XaXy.vXoX>.>.>.",
"% % % * * * * g w.&Xw.q.9.q = u j Y D d y y y y y r h aXeXwXwXu.=XrXqXu.u.eXSXZX1.s.w.a.p.wXqXqXa.p.wXeX7.7XuXy.<.u.eXhXoX:.:.:.",
"% * % * * * - > &.&Xe.w.9./ t r y y y r y y u d z z h iXeXwXeXy.s.q.s.u.s.6.uXNXq 3.u.d.2.p.a.i.y.i.wXeX4.s.y.8X4 e eXgXoX:.:.:.",
"% * * * - - > # , 9.r.r.9.e.k r r a y s s y E E  ...h 8Xd.d.7X6.4.hXtXp.s.yXtXkX7XzX2.i.tXq hXuX2.i.d.d.1.q.-.s.s.hXa.gX.X:.:..X",
"% * * = : 4 ; > # 6 *Xr.e.sX4.: h C Y c.N H o.E  .o.g %X*XrXdXd.hX5.6.VXuX4.sXBXi.4.hXrX5.eX6.5.kXs.hXeXs.p.uXt.5.2.tXiX.X:.;.:.",
"% % - : w 8 # # # , *X<X<XNXy.8 ~ x Y V b a E o. .T d #.sXvXcXvXNXBXBXsXcXCXlX,XbXBXMXBXBXZXVXVXMXBXbXbXZXCXZXZXAXZXCXoX;.:..XO.",
"$ : 6 q 8 6 1 # # + t.kXhXAX6.q 7 0 U f y y u y y y y h ....+.+.+.0.7._ #.>X|._.+X%X#X$XOXOXOXOXR.OXoXOX$X#X%X8X8X,X>X.XO.;.;..X",
"& 3 4 q 8 4 4 , , # 6 mX0XmXp.q 9 8 w 5 g r y r y h y y u T H d r = v f.h c.[.^.S.{ Y R C C C H @.$.' G o..X.XT.o.T..XT.T.;.O..X",
"5 3 , 3 8 4 3 3 > 1 # ,.9X7Xt.7 8 8 9 e w k z Y E o.h y h  .Y D y = c v h U.`.`.Z.R._ Y f j C C S H { { $.! ;..X.Xo.| ;.o.O.O.O.",
"6 1 # # 1 4 4 1 1 < # 7 6X6X-.q 9 4 9 w -.0 E o. .H d y H $.E T l = r t y n !.'.Q.Y.' D j n C C f ! ! ! | Y ! ! O.o.o.o.O.T.O.O.",
"6 6 1 1 1 4 4 1 2 4 < < ,.0X2.8 4 1 8 7 w 0 E  .{ T y a a T O.{ a r * = t d N.'.~.N.j j f n f n C C C S F Y W ! | ! | O.O.;.T.;.",
"&.6 1 1 1 1 2 < 1 4 3 ; -.9Xt.7 4 3 8 4 9 0 z h z d y a a d h d t = * = r d V '.^.C.n j f C n C C C Z F F Y W ! ! | | O.O.O.T.O.",
"( 6 1 1 1 4 2 # # 4 4 > 3 7Xt.8 9 4 8 4 9 9 g y t y y y a a d d y r = * r y n /.`.~.V j n f f C C C W Y | | | [ | I.T.I.| O.O.T.",
"5 e 1 1 2 4 1 1 O > 4 4 1 ,.t.q 9 4 4 4 8 9 U Y j l y y y j ' X.] d t r = t H ).'.^.F.H s C C C C F } R } } R.%.o.}.}.T.| O.T.O.",
"> *.> + 1 4 4 1 O 1 4 4 1 7 7 q 9 4 8 2 4 9 / ! E T y y l X.' ' ] D c i * t ] Y.'.^.D.P n C s Z O.O.} F O.[ O.O.! L.}.! | | | T.",
"> 5.4 < < 2 1 < O # 2 2 4 1 4 8 q 4 4 2 8 8 / E Y T y y j o.o.{ } G s r * r _ R./.`./.K f n f C Z Y | W } | I.T.T.Y.E.! | | | I.",
"> &.4 # 1 2 4 < o @ 2 4 4 4 4 8 8 4 4 2 4 7 ( E ' E a y y d R { ' D a r * = a { ).'.~.c.C f n C C C L W } [ [ Q T.Q I.Q Q I.| I.",
": 5.6 # < 1 4 1 O @ 3 8 4 4 8 8 4 4 4 < 2 4 5 u y y y y a a a d d a t = * = t a g.'.^.V.n n n n C m n Z Z Z A L ! Q ! Q Q | I.I.",
"; q.q 1 2 1 1 1 o O 1 4 8 3 4 4 4 4 8 , 1 4 9 k h h y y a f j j f a t r * * r t c ^.`.Q.V f n n n n n Z Z F A L L Q Q Q H.H.I.H.",
"& 3.q 2 1 4 2 < o o 1 3 8 8 3 8 4 4 8 # , 4 9 /  .! a a a E { X.@.T V v = * t a d C.'.^.l.f n n m W Q J Q Q P L L Q Q Q Q I.H.I.",
"$ ( &.4 1 4 8 2 o o 1 3 4 q 2 2 4 4 8 # , 2 8 /  .Y a y Y E D { O.X.N.j.= = r y t l.[.^.V.m n n n W } W | | T.I.H.F.L.H.H.H.H.H.",
"$ 1.1.3 < 2 e w.@ O 1 1 2 8 8 @ 2 4 8 , , 2 8 -.` E a y a l T O.} ' x.N = = = r = m `.`.Q.B n Z | F P J Q Q T.T.H.L._.J.Q H.H.J.",
"$ *.4.w 1 2 q *X/ O # 1 1 2 8 @ @ 2 8 , o , 2 0 U a y a a s l R { R S p r = = r = s !.'.~.l.n n m J L J ! I.K H.H.F.).H.H.H.J.J.",
"$ ( 6.w 1 1 4 9.w.+ # , 1 2 8 1 O 1 7 1 . , 4 w ~ u y a i i a p a a s p t = * * = r k.'.^.M.m m m Z J P | T.T.H.T.n.n.b.H.J.J.J.",
"$ 5 5.w 4 < 1 4 e 4 3 2 2 2 2 8 @ , 0 1 . , 4 q w T a a a S j l S s a a t r * * * r M '.`.Q.B h.z.m m B A A K A b.K b.b.b.J.J.J.",
"$ & 5.&.4 , < < 1 4 8 q q q q q 8 4 3.OX: # 1 4 6 ^ d a j { { O.O._ x.M r = = = = u c /.'.^.z.!.C.M B B B B K K K x.b.b.v.b.n.K.",
"$ & 2.1.w 1 , , 1 2 4 8 7 q q q 9 9 4.cX;X> # # 2 ~ a i S O.} O.} ' N.k.r r = = = t S G.'.^.~.~.C.K L B A A A h.x.x.x.v.v.v.J.n.",
"$ $ ( 4.e 1 # < 1 1 4 4 8 8 7 q 8 8 -.cXlX^ > 4 q 5 t i p H R { O.} v.N r t = = = i G K.'.`.'.^.C.b.[ B U.U.U.b.b.l.v.v.v.n.n.n.",
"$ $ 5 1.e 2 # , 2 < 2 4 4 4 8 8 8 8 9 tXlX=.> 1 4 5 u i a a s f S G m p t r r r r i G b./.'.'.^.W.Y.P.I P.I U.Y.b.D.).S.n.n.n.n.",
"$ $ ; &.( 8 < < 2 < 2 2 2 2 2 2 4 8 8 0.;X( 4 4 2 4 g i a i a s a s p a i t = r r t S P V.[.[.^.Q.Y.Q I U.b.b.b.v.D.{.c.n.n.n.F.",
"$ $ & e &.4 # # < < 2 2 1 2 2 4 4 8 q ~ ~ 2 2 8 8 4 g i p D D P S s s s p t r = r r p K G.[.[.].W.v.P.K P.U.P.Y.K.S.(.c.c.S.S.F.",
"$ $ $ 6 1.q # # , < < 2 2 2 2 7 8 4 8 2 , < 2 4 9 8 k a l | Y [ O.W V V s p i r r t f._.{.[.[.`.Q.h.B B V b.v.b.K.c.S.S.S.S.F.F.",
"$ $ $ < <.q # @ @ , , < 2 4 4 8 8 8 8 4 1 2 2 8 2 9 : a d W Y [ } W B.B.s c s s t i m /.[.[.[.`.Q.j.M V V N f.h.l.l.c.c.S.S.D.F.",
"$ $ $ , 1 6 , O @ @ , < 2 2 2 2 2 2 4 2 4 4 2 2 2 4 : i i l W } } [ v.g.n [ Q Z d p n n.'.[.[.`./.l.K V V f.h.l.l.z.N.S.B.B.D.D.",
"$ $ & ; O # , O O O O # , , < , , 2 4 2 < 2 3 3 2 3 : i i i i d S S m b p n P P s s c J Z.[.[.'.Q.n.b.K U.b.v.j.l.z.N.B.D.D.D.D.",
"$ $ $ & O . # O . . . O o o O @ @ , 2 1 , @ , , 1 2 - t i i i s p p p s c s c P J P J J f.^.[.`.~.F.b.h.b.v.K.K.c.B.Z.B.Z.D.(.(.",
"$ $ $ X @ . o .   ; ~ ~ ~ :   . o o @ 1 < 2 < < 1 1 u t i S S G C s p p c c c c b m m m m N.[.'./.F.P.h.b.K.K.Y.F.!.].!.!.(.(.(.",
"$ $ $ ; # . .     X ^ XXOX=.X   . . o # 1 1 3 1 1 k y t l P S W } [ V M s c n b c c v v v V Q.'.~.F.P.v.Y.Y.h.n.c.C.].W.!.(././.",
"$ $ % 3 @ O . . .     ; ^ ^ O o O O O O O @ ; ; - t r t i S G [ T.[ N.M.p c P Q P b m v v v l.^.^.M.h.h.v.K.n.n.E.Z./.!.!./././.",
"$ $ $ 9 @ @ . . .           o + + @ + # @ # g u t t t t i f G P G [ l.h.p } } J P J } K M v M V.Q.M.N f.g.j.z.z.N.V.Z.!././.{.{.",
"$ $ % 6 1 + . . .           X + @ @ @ @ O + g s S f t i t i i a p m m v c n } J J I I I M M M N j.h.f.h.g.j.k.k.N.V.Z.!./.].].{."
};
