/* XPM */
static char *_1c1551eb6ae4c439265bf5ff1bd3b537kLi3C8aRqSVtTIs[] = {
/* columns rows colors chars-per-pixel */
"64 64 256 2 ",
"   c #020202",
".  c #0A0B0C",
"X  c #080607",
"o  c #0E0E11",
"O  c #131315",
"+  c #161619",
"@  c #1A1A1C",
"#  c #181719",
"$  c #111010",
"%  c #221D1A",
"&  c #2B251C",
"*  c #1C1C22",
"=  c #101429",
"-  c #221E23",
";  c #232224",
":  c #2B2A2B",
">  c #252529",
",  c #383839",
"<  c #2E2D33",
"1  c #1D201E",
"2  c #483829",
"3  c #423C3C",
"4  c #49351F",
"5  c #584938",
"6  c #544129",
"7  c #63513C",
"8  c #343948",
"9  c #1D256C",
"0  c #484849",
"q  c #585859",
"w  c #514B54",
"e  c #685745",
"r  c #715E4A",
"t  c #635F5F",
"y  c #77634D",
"u  c #7A6653",
"i  c #64615B",
"p  c #545671",
"a  c #56626A",
"s  c #686868",
"d  c #757676",
"f  c #756C6D",
"g  c #6B5C63",
"h  c #254A6A",
"j  c #836C56",
"k  c #89735A",
"l  c #8E7356",
"z  c #967D64",
"x  c #8D7663",
"c  c #FC7250",
"v  c #DA656C",
"b  c #FD9011",
"n  c #FDAB12",
"m  c #FCB716",
"M  c #FBAD0E",
"N  c #FB9131",
"B  c #FDB032",
"V  c #FACC17",
"C  c #FBCE2F",
"Z  c #FBEB30",
"A  c #F8ED1C",
"S  c #9C8269",
"D  c #90867C",
"F  c #A58A6C",
"G  c #A78C72",
"H  c #AD9177",
"J  c #B6997C",
"K  c #BFA17F",
"L  c #F79453",
"P  c #FDAE4E",
"I  c #F1A475",
"U  c #FDD94F",
"Y  c #FCE646",
"T  c #FCFA57",
"R  c #FCEF50",
"E  c #FCF56B",
"W  c #FDD36E",
"Q  c #0C088C",
"!  c #110B89",
"~  c #0D0B95",
"^  c #0D1495",
"/  c #111897",
"(  c #110F91",
")  c #15289A",
"_  c #333092",
"`  c #0D08AA",
"'  c #110CAC",
"]  c #1008A7",
"[  c #0D16A9",
"{  c #1114AC",
"}  c #121AA9",
"|  c #0B09B5",
" . c #110DB4",
".. c #130AB7",
"X. c #0E16B9",
"o. c #1213B4",
"O. c #121BB4",
"+. c #1214BB",
"@. c #121BBD",
"#. c #1A1AB8",
"$. c #1328A7",
"%. c #1937AA",
"&. c #1527B8",
"*. c #1737B9",
"=. c #0D28B2",
"-. c #2E30B7",
";. c #231BB9",
":. c #443B90",
">. c #5C2EAD",
",. c #1945B7",
"<. c #1D4BB3",
"1. c #2458BB",
"2. c #2B4DB4",
"3. c #2A59A1",
"4. c #4F4DB4",
"5. c #7167AE",
"6. c #615A98",
"7. c #0C19C5",
"8. c #121BC3",
"9. c #050EC6",
"0. c #0E27C8",
"q. c #122BC4",
"w. c #122CCB",
"e. c #1326C6",
"r. c #0E35CD",
"t. c #1333CD",
"y. c #1638C6",
"u. c #0D3BD4",
"i. c #0D37D3",
"p. c #1134D2",
"a. c #113CD4",
"s. c #163DD6",
"d. c #122DDA",
"f. c #2439C9",
"g. c #2E35C5",
"h. c #1231E8",
"j. c #1545C9",
"k. c #1954CA",
"l. c #0C44DA",
"z. c #1243D5",
"x. c #134BDB",
"c. c #1649D7",
"v. c #1557D9",
"b. c #0E46C0",
"n. c #2648C8",
"m. c #2657C8",
"M. c #2547D1",
"N. c #2858D5",
"B. c #3655CE",
"V. c #1666DD",
"C. c #1D64C0",
"Z. c #2965C8",
"A. c #2B67D6",
"S. c #3469D9",
"D. c #3576DA",
"F. c #356DD0",
"G. c #1658E4",
"H. c #124EE8",
"J. c #245DE4",
"K. c #3052EE",
"L. c #1767E4",
"P. c #1777E8",
"I. c #1463EC",
"U. c #2964E8",
"Y. c #3467E7",
"T. c #387AE4",
"R. c #2872F0",
"E. c #4B53CB",
"W. c #4978DA",
"Q. c #516DD5",
"!. c #7073D1",
"~. c #4B75E6",
"^. c #515AEB",
"/. c #903C97",
"(. c #8E69AD",
"). c #A971AE",
"_. c #9B5598",
"`. c #C76B92",
"'. c #8868C9",
"]. c #7886A5",
"[. c #3785DE",
"{. c #1A86ED",
"}. c #3B85E4",
"|. c #2F91ED",
" X c #3DA7F6",
".X c #4E89DA",
"XX c #6E8AD7",
"oX c #448BE6",
"OX c #4696EA",
"+X c #5392EA",
"@X c #7B9BEA",
"#X c #6E93E7",
"$X c #48A5F1",
"%X c #56A9F2",
"&X c #52B0F4",
"*X c #68A9EB",
"=X c #7CA3EA",
"-X c #78BCF2",
";X c #6BB3F2",
":X c #7CC7F5",
">X c #7CD0FC",
",X c #338BBE",
"<X c #878788",
"1X c #969697",
"2X c #928B8E",
"3X c #BB9E81",
"4X c #A99697",
"5X c #BDA389",
"6X c #9095A7",
"7X c #A7A7A8",
"8X c #B7B6B7",
"9X c #AFAFB6",
"0X c #A597AB",
"qX c #C8A989",
"wX c #D7B897",
"eX c #CFAD90",
"rX c #EAB390",
"tX c #CA8EB1",
"yX c #D6ADA4",
"uX c #E4C29D",
"iX c #F8D296",
"pX c #FDF987",
"aX c #E8C6A4",
"sX c #FBDAB5",
"dX c #F3D1AC",
"fX c #FEE5BB",
"gX c #FEF0A7",
"hX c #DBC5A9",
"jX c #9092D8",
"kX c #AAB1D1",
"lX c #8C9CE6",
"zX c #8CAFEA",
"xX c #ACB5EB",
"cX c #B0B3ED",
"vX c #A696D9",
"bX c #DEB2DF",
"nX c #8ECEF5",
"mX c #B3CCF2",
"MX c #BBD2E4",
"NX c #C9C9C9",
"BX c #D4D4D4",
"VX c #DBDBDB",
"CX c #C6C9D9",
"ZX c #EED2D2",
"AX c #FDF3CF",
"SX c #D6D7EC",
"DX c #CED3F2",
"FX c #E0DEFD",
"GX c #DDE4FB",
"HX c #C6E8FF",
"JX c #E4E4E4",
"KX c #EBEBEB",
"LX c #E4E9FD",
"PX c #FEFEFE",
"IX c #F5F5F5",
"UX c #F3EEF3",
/* pixels */
"$.( *.' { O.X.q.[ *.P.l.7.8.0.8.8.7.N.$XS.S.n.T.N.T.U.e...oX;X;X%XB.X.v.e.0.e.0.0.q.q.t.q.y.w.e.j.Y.$X XT.U.J.U.U.U.Y.R.Y.R.Y.Y.",
",.! *.{ O.{ ' q.V.V.0.X.7.7.7.w.e.8.}.T.j.Y.0.A.S.S.D.q...%X%XN.e.7.@.v.q.8.0.q.0.0.w.q.e.w.k.}. X|.T.G.J.J.J.U.U.U.U.K.U.Y.Y.Y.",
"m.~ $.=.' { c.V.j.X.X.=.8.e.9.N.M.9.A.y.w.oXOXoXS.N.}.i.+.m.@.| +.8.X.j.y.@.0.q.q.e.e.y.A.|. X{.N.c.v.G.J.I.J.U.I.J.E.Y.K.R.Y.Y.",
",.~ / =.*.V.,.] =.@.@.@.+.N.w.T.A.9.M.$X}.}.T.oX}.k.}.l...| 7.+.@.8.@.y.j.8.0.X.0.M.{.|.{.L.x.z.G.G.G.G.J.G.G.I.U.(.I 8XR.Y.Y.Y.",
"Q ! ) v.k.[ ~ ~ =.&.X.O.7.D.2.F.T.9.d.oXD.oXM.D.}.N.T.c.O.+.8.+.O.8.@.q.j.+.y.A.|.{.P.x.l.l.H.v.G.v.H.L.G.U.+XE._.P Y rX%XU.Y.Y.",
"^ ,.v.b.Q ( / ~ $.q.O.| -.].x g d 6.-.q.N.OXN.N.}.}.D.z.e. .+.+.7.X...q.L.P.|.P.v.z.u.l.x.x.x.v.H.G.I.G.L.:XkXrXP E E eX;XK.Y.Y.",
"v.b.] =.) ( / ( } *.o.4.G F z x G eXqX5.j.T.T.oXN.OXN.u.y.....| o.q.V.{.{.v.u.i.l.l.l.l.l.H.x.H.l.oX%Xl.oXtXv U E gXW rX%XJ.U.Y.",
"[ [ { O.=.Q ,.%.~ =.-.J H G z F qXwXwXwX].A.S.|.0.7.0.a.y.` @.c.P.{.L.z.v.i.u.l.l.l.x.l.c.l.H.G.l.%X%XM.`.I Y T E gXE rX~.U.Y.Y.",
"' } } } =.Q <.D.~ %.5X5XH H G H wXuXdXaXhXB.9.0.0.0.7.0.v.v.P.P.x.w.r.r.v.l.a.z.z.l.u.+XnXY.l.l.oXnXjXv P E E E U E pXrX}.L.Y.Y.",
"} &.&.] *.( %. X$.(.uX5XJ H F J wXdXsXaXiX5.7.@.7.r.G.P.{.v.i.0.w.p.i.d.v.c.i.a.z.u.N.:X*X*Xl.H.}.0Xc P E E pXpXU E E I -XU.U.Y.",
"m.m.&.] =./ %.|..XaXwXqXK H S 3XwXdXsXaXuX5X0.a.I.P.v.&.b.i.w.i.p.p.r.p.x.v.a.u.l.i.Y.*Xc.nXx.M._.c R Y R E U E E E Y L zXT.J.Y.",
"Z.Z.*.] O.$.%. XkXiXhXeX5XH S 5XuXdXdXuXaXuXD.I.y.{ ` | r.u.0.i.w.r.t.r.z.v.p.a.u.u.S.-Xc.:XL.6.P Y T C Y E C R T E Y L zXT.J.Y.",
"Z.F.m.*.' $.$.1.hXsXaXuXeXH S 5XwXaXdXwXhXsX6.`  .o.+.| q.x.q.0.M.S.0.p.a.v.p.a.u.i.N.:Xj.-XD.v C C T C C T C Y T T Y L zXR.U.Y.",
"Z.m.Z.Z.{ &.^ _ AXfXfXfXwXG S qXwXuXfXwXuXgX(.|  .' o.&.O.x.w.0.N.%Xt.p.p.v.i.a.u.i.c.-Xc.*X|./.c C T C V T C Z Z Y T P @XL.U.U.",
"[.*.*.Z.$.O.^ 5.AXAXAXfXwXF S K wXqXqXwXwXfXtX` f.o.F.$X&.j.w.0.U.;XT.w.p.v.a.a.a.i.z.nXN.#XoXa._.c Z C m T Z T C C Z P E.U.U.U.",
"$.m.*.Z.,.[ =.7XAXAXAXfXeXF k qXwXu 2 S uXdX2X*.$XZ.A.m.f.r.d.0.T.&X$Xs.0.v.z.d.a.z.r.-XS.oX+XoXS./.c C m V R C V m V P E.I.J.J.",
"F.Z.=.&.} ] =.yXgXAXdXaXK S k qX3XH G r aXS - Z.k.F.D.*.{ y.p.0.oX%X%XoX0.x.x.p.a.a.r.+X+X*X~.*XoXa.`.N m M M m m m V P E.x.c.U.",
",.=.] ] ' *.V.hXdXuXwXeXJ S j 3XwXD G qXwXF u Z.A.Z.D. XD.&.a.e.$X%X%X$Xa.z.c.p.a.a.r.N.nXnXc.A.N.z.v N M M M n n n m B !.|.$X$X",
"' ' =.b.k.b.%.aXuXeXqXK G z j H fX<X1XdXwXH a 4.D.[.A.A.D.y.a.y.}.A.s.w.w.s.x.t.a.p.u.r.m.c.u.z.l.B.v n b n n n V V A B XX|.T.N.",
"*.j.j.%.^ Q _ aXeX5X5XH F z u G sXfXAXaXeXeXwX4.k.A.}.m.N.k.a.q.0.0.0.r.r.p.v.r.i.a.a.z.i.u.a.s.u./.N M m V V A V V V B 5.l.f.s.",
"*.) Q ! ~ ~ _ wX3XJ J G S x y S uXfXfXuXwXwXhX:.A.*.T.F.m.m.r.w.w.w.w.w.r.r.x.i.i.p.p.p.a.z.v.P.P.`.m m m M b N N M M B 5.x.f.M.",
"Q ! ( ^ ) $._ eXH H H F S k y S eXwXuXhXwXeXwX_ k.A.A.A.$X&.y.r.8.d.w.p.r.0.z.r.d.z.G.L.{.{.P.V.E.v b b b b b c c B M B /.h.M.f.",
"! ^ %.Z.1.%.:.qXS S S S x u u x qXqXwXwXeXwXqX.XN.}.m.' y.' t.i.7.0.8.w.i.l.L.P.{.P.V.v.t.@.X.| /.c b b b b N /./.c B B 5.h.f.M.",
"^ <.1.C.C.<._ H S S S S k u u k J qXqXeXwXwXH 3.=.' ' ..` ` &.u.r.x.G.P.P.V.V.k.@.+.| o.+.7.7.+.`.b b b b b c 4.q./.c B 0XK.f.f.",
"<.%.<.) Z.k.3.F l k k k u u y k H 5XK qXiXwXx ~ ] ` ' O.y.j.V.P.L.v.j.0.o.| @.q.| 8.9.+.8.+.+.>.v b N b M N `.nX-Xy.).c kXoXq.M.",
"<./ <.%.%.$.F.l k k k u u r y u G 3XJ J eXK s =.y.k.V.L.V.c.u.j.' ' ` ..o. .&.j...+.#.+.8.#...>.P b B C A N vXN.*X.X;X(.XX%Xy.f.",
"1./ ) <.) ) 2.x k u u y r e r u G 3X3XS : 7 6.G.v.r.0.7.9.8.e.c.O.O.#.o.+.o.X.z.o.` F.Q.| @.&.`.U P P B N v -Xq.=.q.B.&.+X+Xe.f.",
"1.<.<.<.D.%.&.g j u y e e e r u G 3XqXj 5 G p | o.+.7.7.0.8.8.M.-.#.#.' | | o.j. .&.:XW.| 7.>.rXW I W W L _.;X.X;Xn.9.D.nXB.t.f.",
"<.C.$.) $./ Q q j y r 7 e e e u S J K z G qX:.7.X.+.+.y.8.M.W.B.E.B.g.,.m.F. .j.+.n.nX.X..8./.I pXdXiXgXrX5.-X;X;X*X7.F.;X*Xt.y.",
"( ! Q Q ( ) q.p j y e 7 7 7 e r S J y k G l _ | y.D.f.$XQ.W.;X#X!.!.-X*X&X+X{ s.e.| 2.=X..g.`.iXsXAXAXfXbX@X-XB.B.:Xq.8.B.>Xn.t.",
"$.$.,.b.k.b.r.h j y 7 5 5 5 e r k J F , 2 u F.o.A.oXoXF.W.*X!.lXzXjX=X;X%XW.;.n.M.;.B.zXg.>.rXiXhXs s yXSXzX:XW.B.nX*XD.f.:XN.w.",
"k.*.=.O.` ] ` _ j y y 6 2 5 5 e u G eXS K 1X1.n.n.E.+XXX#XzXmXHXLXcXlXzX-X!.E.E.E.g.E.nXE.).rXAX1Xq a s KXnXzX=XQ.zXzXzXW.nXy.y.",
"/ ' ] ' { } $.2.j j r 5 2 4 6 7 r x qXaXsX6.j.m.-.Q.lXzXnXmXGXNX0 6XcXxXnXjX!.!.XX!.!.mXlXtXdXAX1XKXJXs PXmXlXmXmXnX@XmXnXQ.w.y.",
") $.&.} m.m.m.1.f k y 5 5 2 4 5 e u 3XuXuX_ m.Q.E.lXmXmXMXLX7X: t s FXcXMXcXcXxXzXvXvXmXSXZXAXIX2XVXBXs PXDXkXmXMXcXcXlXXXB.f.t.",
"! } m.%.*.,.m.n.f l j 5 5 2 & 4 5 r z rXqX} F.2.!.DXGXDXGXPX1XBXJXf PXDXFXSXDXFXHXDXLXLXPXJXUXPX2XVXBXs PXLXGXGXLXDXFXDXlXQ.f.e.",
"%./ &.*.*.F.,.*.f F x e 5 7 & $ 2 5 j qX2X{ D.XXmXSXq : : f 8 VXBX# 1XPXd : - t LXBXw 0 s < & ZX0XBXVXs <X8 q 8Xq > > <XcXXXS.U.",
"1./ } ,.} *.m.*.p F z j e e 2 $ X & 7 l :.' F.lXDXa s BX8X: d PXIX2Xq d w NXNX0 d 8Xd <X, BX2X0 1XBXVX: s 9Xw o <XBX7X3 mX-X|.R.",
") / } %.,.Z.1.y.:.H z j e r 0 2 % O 9 9 ] { -.jXkXs PXPXPXq VXPXPXPX5 w PXPXPXPX0 d VXPXKXPXPXs q JXJX. VXPX5 d PXPXPXi mX@XJ.c.",
"( ! } $.&.%.&.' 6.F z j r u e e 3 < 8.8.&.*.B.xX6X7XPXs D 0 <XPXUX9X; 8XPX7X9XPX4X> NXPX8X8XPX1X< KXBX0 PX8XX BXPXa (.7 mX@XY.c.",
"! ! / } [ } } { 3 H z l y u u e 2 9 k.*.,.,.Z.xX6X8XPX:   > @ JXVX. : IXJX# : IXVX. BXPX: 0 PX7X& KXBX1XPXq , VXIX#   0 DX@XY.c.",
",.,.*.,.,.,.*.h % l G k j j u e 2 9 ^ ! ! ( :.vX6X1XPXJXw q 1XBXBXs ].IX7X<X1XNXIX# BXJXq d PX8X; JXJXKXBX0 <X8XPXVX, s IXnX+Xc.",
"=.^ [ $.^ Q Q .   : H l j j y e 6 _ [ Q ( / 4.lXNXq PXPXPXq s JXBXs 2XPX1X1X8X8XPX@ BXJXs <XIX8X; JXPXPX9Xt BXt PXPXUX, DXHX*Xc.",
"$.] ^ O.! 9 =       u F j k j e y 6.=.9 ( e.E.jXLX, 0 VXPX1X< KXNXs D PX7X2X7XNXIX# BXJXs <XIX8X; KXBXNXPX0 BX: q JXPXf 6XmX+Xz.",
"[ $.{ 9 O   X       # F z z j e F NX) / ~ G.oXvX8X1   : PX7X; JXKX1 : KXJX> , PXBX. BXJXs <XIX9X; KXNXd PX2X: : X 0 PXD 6XHXW.c.",
"^ [ 9 & $     X X     i J G k u wXVX< 9 ] R.$XxX6X1X<X<XPX1X> BXPX8X1 8XPX8X8XPX2X1 BXJXs <XIX8X; JXBX: PXJX1 8Xd 1XPXs 9XHXY.z.",
"[ _ : 1 % X           8 hXJ k z fXKX< ; < 3.$XnX6XNXPXPXPXw s 7XPXPX3 0 PXPXPXKX, d JXPXs <XPX8X; PXIX. 8XPXd VXPXPXIX< MXnXY.c.",
"9 * % 1 @ $             CXNXk qXAXUX< 1 ; ; :.mX6Xw 8XNX0 0 JX< 8X7Xw q 0 NX8X: f 9Xi d i d <Xs 1 <Xd , w 1Xq s NX8X, q LXzXM.x.",
"& % % @ @ # X           t PXeXsXPXLX< > 1 > , 1XCX0 O $ , CXPX1X. X d IX0 O $ w IXBX< % 7X7X@ , 2X, 1 7Xd 1 , , O $ 0 DXHX@XM.c.",
"> ; @ # + + O X X       . JXIX9X8XIX, > 1 1 , f 8XSXNXCXGXDXCXFXCXNXSXGXFXCXCXFXUXZXUXKXUXLXFXGXGXGXLXGXLXLXLXGXCXCXLXcXxX~.M.x.",
"+ @ @ # + + + o X X       d ;X|.C.MX, 1 > @ : q <X9XNXCXkXlXjXkXcXMXxXxXcXDXcXcXbXbXZXZXcXcXcXcXxXxXcXxXxXcXcXmXmXDXcXlX~.Y.c.l.",
"X O @ @ + + o + o . X     O |.&X{.6.0 = > * 1 , a <X2X2X6XXXXX#XlXlX@X@X@XzXlXcXbXyXbXbXlXlX@X=X=XlX@XlXlX@X@XlXlXlX@X~.E.M.p.p.",
"    O @ + + . o o . o X   X 3. X|._ < * 1 + 1 > , q s s t p -.4.E.E.E.E.Q.4.^.vXtX`.tXjX^.Q.Q.Q.W.W.W.oX.X~.+X+X+X+X+X|.|.{.P.P.",
"    X o O * o . O X o .     = |. XXX= ; 1 @ + + > , 8 0 0 8 -.-.-.g.-.g.n.-.^.0X).`.).^.-.-.;.-.-.;.-.g.;.;.g.-.g.g.g.g.e.e.q.t.",
"X X X o o + O X O + O .     . h $XMX> 1 ; @ o o @ : - < < < 1.n.m.2.D.f.f.;.^._.)._.'.h.#.#.#.#.#.#.@.#.;.#.o.#.#.#.+.8.8.+.7.O.",
"X o o o o + o   . + + O .   X < &XMX< @ 1 * O o + > # - - < Z.k.n.*.[.n.e.d.!.).)._.^.s.{ o.+. .n.oXn.' +.y.B.#...+.q.#.8.@.+.@.",
"X X X X o O O     . * + o   . . [.nX8 + 1 * O O # * + * - < F.Z.1.*.A.m.d.h.5.vXbX(.h.y.O. .o.` D.F.}.o.| oXOXT...y.&Xy.| n.oXe.",
"X . . . o o o .     * @ O X .   h >X0 O > @ O $ + * O @ 1 > 1.D.m.*.Z.A.u.Y.'.vXbX^.9.g.@.' X.| y.O.D.y. .N.[ OX#.N.&XM.| T.&Xy.",
". o o O o o o o     + @ # . X X O ;Xq o > 1 + O # * o + ; 1 _ A.Z.&.D.}.I.Q.'.bXbXR.8.e.&.` ' o.' &.OX#...` N.}. .D.OXM.+.OXOXf.",
"  o O O O O o O     o * + + o o   3.a $ ; * + o + * o + * 1 9 p.1.&.m.&.K.'.!.vX#XU.2.} q.' o.o.' D.m.'  .` n.oXf.F.A.m.n.S.oXf.",
"    . O + + O O     X + + + o .   h h $ * 1 * O + + o + # @ 8 d.] [ ~ 7.R.!.!.5.K.7.' } y.' o.` &.|.&.o.&.n.#.Z.OX[.oXD.W.m.oXM.",
"      o o + o o X   X + + # + o . = = @ * * @ O + + . + + + > Y.c.b.r.H.~.!.!.!.h.` ] [ *.{ o.' &.}.OXF.D.S.D.D.D.N.oXOX}.$X%XOX",
"      X o . . . .     o @ . @ O . O + @ 1 @ @ O + + X + O * - Z.d.^ =.K.#X!.lX~.l.,.=.=.y.[ ` ] ' ' O.&.*.O.N.[.&.` n.oX| O.oXD.",
". . o o O + o X X     X + + o @ O o @ @ 1 @ @ O + + . + $ - & 2.R.] +.K.^.Q.~.K.0.q.l.j.V.v.c.j.j.=.O.o.| ' ` ` | ..@.&...| m.f.",
"    . O . O * o       X o * + + + O # @ + # * O * O . + . @ % 2.$Xx.I.~.Q.~.+Xh.{ X.[ | q.q.0.p.l.v.v.V.v.v.j.&.@.o.| ' +.+.| +."
};
