/* XPM */
static char *_0ab3c460d294771eca06434b4338f7170QNHuIsdhFfKNl5[] = {
/* columns rows colors chars-per-pixel */
"64 64 248 2 ",
"   c None",
".  c #040305",
"X  c #0A0504",
"o  c #0C0A06",
"O  c #05040A",
"+  c #0B0B0B",
"@  c #08070C",
"#  c #140D0A",
"$  c #160B06",
"%  c #14130D",
"&  c #1B140D",
"*  c #191508",
"=  c #0D0D12",
"-  c #100F14",
";  c #131314",
":  c #15151A",
">  c #1A1B1D",
",  c #1C1A15",
"<  c #0E100D",
"1  c #26180B",
"2  c #371B08",
"3  c #261D16",
"4  c #301E11",
"5  c #22231B",
"6  c #2A2518",
"7  c #332B1D",
"8  c #382517",
"9  c #39351C",
"0  c #3D250A",
"q  c #1C1C22",
"w  c #211F26",
"e  c #222325",
"r  c #24232A",
"t  c #2B2B2C",
"y  c #2A2925",
"u  c #352C23",
"i  c #393527",
"p  c #373636",
"a  c #2F2E32",
"s  c #1D201E",
"d  c #462918",
"f  c #45371C",
"g  c #543315",
"h  c #593719",
"j  c #4E2C0C",
"k  c #453826",
"l  c #583629",
"z  c #453D33",
"x  c #5B3932",
"c  c #4D2D25",
"v  c #633C25",
"b  c #653A36",
"n  c #673A14",
"m  c #6A431B",
"M  c #784E1D",
"N  c #4A4329",
"B  c #574728",
"V  c #4A4537",
"C  c #564B38",
"Z  c #5C5336",
"A  c #5A5024",
"S  c #694829",
"D  c #69562C",
"F  c #7A5527",
"G  c #6A4A39",
"H  c #734C35",
"J  c #675A38",
"K  c #75533A",
"L  c #7A553D",
"P  c #775636",
"I  c #794C25",
"U  c #796537",
"Y  c #6C653C",
"T  c #5E421B",
"R  c #3B3B42",
"E  c #4A4A48",
"W  c #5A5648",
"Q  c #545350",
"!  c #794A46",
"~  c #655B45",
"^  c #795944",
"/  c #6D534A",
"(  c #696246",
")  c #766947",
"_  c #6C6658",
"`  c #7A7457",
"'  c #766A53",
"]  c #666566",
"[  c #6B6A73",
"{  c #77756F",
"}  c #5D5F61",
"|  c #3F4038",
" . c #83541C",
".. c #855928",
"X. c #865C3A",
"o. c #94672A",
"O. c #8B6538",
"+. c #946B35",
"@. c #8C723C",
"#. c #997538",
"$. c #90662A",
"%. c #A87926",
"&. c #A57C37",
"*. c #B27B29",
"=. c #835946",
"-. c #885B53",
";. c #8C5955",
":. c #876649",
">. c #966749",
",. c #897748",
"<. c #967948",
"1. c #8A6854",
"2. c #9B6D54",
"3. c #966A58",
"4. c #887958",
"5. c #99755A",
"6. c #A3745C",
"7. c #A47758",
"8. c #9B7566",
"9. c #8F7165",
"0. c #A87A66",
"q. c #AA7771",
"w. c #AB8639",
"e. c #B78B38",
"r. c #BA943B",
"t. c #AF812C",
"y. c #9F8038",
"u. c #C2953A",
"i. c #C28E39",
"p. c #998348",
"a. c #8B8356",
"s. c #998856",
"d. c #978D53",
"f. c #A78747",
"g. c #B48B44",
"h. c #AA9347",
"j. c #B39343",
"k. c #BD9A43",
"l. c #B5954B",
"z. c #BC9B4B",
"x. c #B89747",
"c. c #A48B56",
"v. c #AD9454",
"b. c #A99658",
"n. c #B49B55",
"m. c #BC9C53",
"M. c #B59D5B",
"N. c #BA9E5B",
"B. c #B39458",
"V. c #B5A15D",
"C. c #BBA25C",
"Z. c #BAA155",
"A. c #898366",
"S. c #9A8B65",
"D. c #9A9466",
"F. c #848377",
"G. c #948A74",
"H. c #9B9577",
"J. c #A88669",
"K. c #B2826C",
"L. c #B79C65",
"P. c #B98A74",
"I. c #A99A75",
"U. c #B69577",
"Y. c #A9916E",
"T. c #BCA463",
"R. c #BEAA6B",
"E. c #B8A467",
"W. c #AAA479",
"Q. c #B7A977",
"!. c #BBB279",
"~. c #ABA66E",
"^. c #C39B49",
"/. c #C49D53",
"(. c #C2A55C",
"). c #C7A658",
"_. c #D1AB5D",
"`. c #C8A24C",
"'. c #C19479",
"]. c #C1A663",
"[. c #C4AA65",
"{. c #CBAC64",
"}. c #C3AB6C",
"|. c #C6A96A",
" X c #D2AD64",
".X c #C8B16C",
"XX c #D5B469",
"oX c #C3AC72",
"OX c #C8AE77",
"+X c #CBB473",
"@X c #CBB47C",
"#X c #CCBA7C",
"$X c #C6B577",
"%X c #D5B978",
"&X c #D5C17B",
"*X c #E0C07D",
"=X c #7C7A82",
"-X c #838486",
";X c #939399",
":X c #8F8F91",
">X c #A99986",
",X c #AAA487",
"<X c #B7AA84",
"1X c #BBB389",
"2X c #BBB797",
"3X c #AFAC95",
"4X c #9C9DA2",
"5X c #AAAAAA",
"6X c #9FA0A5",
"7X c #C79B84",
"8X c #CCBC84",
"9X c #CBBD8A",
"0X c #C5B886",
"qX c #D1BD87",
"wX c #CBA893",
"eX c #C4BE97",
"rX c #D4BE94",
"tX c #D7BAA8",
"yX c #C7BAA5",
"uX c #CEC28C",
"iX c #CCC487",
"pX c #D2C38D",
"aX c #D7C789",
"sX c #CDC393",
"dX c #CBC59A",
"fX c #D2C593",
"gX c #D5C995",
"hX c #D5CA9B",
"jX c #D9CD9B",
"kX c #D7C898",
"lX c #DCD29D",
"zX c #DAD297",
"xX c #E3CA88",
"cX c #E5D598",
"vX c #E6CF90",
"bX c #DBCDA2",
"nX c #D8C6A8",
"mX c #DDD3A2",
"MX c #DBD6A6",
"NX c #D4C8AF",
"BX c #E2D9A5",
"VX c #E5D9A7",
"CX c #E7CDB9",
"ZX c #E7D5B3",
"AX c #EDE2AD",
"SX c #EBD7C5",
"DX c #F0D5C7",
"FX c #F3E4D0",
/* pixels */
"          T.oX+X                                                                    F.E y t Q } W                               ",
"        y.l.N.T.+X8X                                                              [ _ > O > Q } i                               ",
"        +.#.&.f.{.%X&X                                                          Q [ R = + t [ a 6                               ",
"      +.....+.f.z.C.$XiX                                                      C } [ E R p [ E < ,                               ",
"      @.M  .$.w.e.h.C.+XiXqX                                         X/.[.L.W Q =X=X[ } { -X| . *                               ",
"      #.M ..+.&.y.w.h.m.[.+X%X                    %X*XXXXX X_.).`././.^./.<.W [ -X:X:X:X;X-Xa . o 5                             ",
"      <. ...+.#.#.y.w.<.f.n.|.%X%X          XXXX X X_.`.`.`.`.u.u.i.i.i.e.U _ =X;X4X4X4X6X-Xe + o &                             ",
"      <...F O.$.+.@.#.o.+.&.g.m.{.%X%X%XXX{. X`./.`.^.i.u.u.u.u.i.i.i.e.&.X._ -X;X4X6X4X5X} : = o o                             ",
"      <.X.I ......+.$.$...o.%.w.^./._. X/.^.^.e.e.i.e.r.u.r.r.r.e.e.e.e.&.@.4.9.;X6X6X5X;Xr : : ; + ,                           ",
"      f.+...I I I F ...... .o.*.i.^.`.`.^.^.t.%.*.*.t.r.e.e.e.e.r.u.r.u.e.f.4.` =X:X6X5XE = : : ; + % 5                         ",
"        #.F m n h T m M  . .o.e.^._.`.^.^.g.*.%.%.*.e.w.w.e.r.r.r.u.u.u.k.h.,.' } } =XE : : : q : ; < ,                         ",
"        #...m g j 0 h M  .o.g./.)._./.^.i.*.%.%.t.t.w.e.j.l.z.x.k.r.k.k.k.z.f.) E R R q = : q : > q ; , 6                       ",
"        7.o.M h 0 0 h I O.7._._._.(.m.l.e.w.%.%.w.j.l.n.Z.(./.x.r.r.k.k.k.z.j.p.( z a s = : : > t t > + 5                       ",
"        L.#.I h j j m X.7./.(.{.|.{.(.l.g.&.%.w.g.`.[.}.[.[.).x.r.j.r.k.z.`.z.n.4.W i s q : : e t r e % ; 9                     ",
"        |.7...m g f D c.L.].|.@X@X.X(.x.e.&.t.w.m.{.+XoX.X[.(.z.k.k.r.k.`.`.`.Z.c.) V t q : : r w t e , % 6                     ",
"          K.+.I S D <.U.oX|.oX@X8XoXm.x.g.^.r.l.(.+X+X.X[.(.(.`.k.k.k.k.k.`.Z.).M.a.~ p q : q q w t r q % , i                   ",
"          |.f.O.F D 4.~.L.Q.OX8XOX|.m.z./.Z.z.C.}.+X.X}.[.n.p.y.h.x.k.k.z.`.`.(.C.b.` W t q : s e e t w : % 7                   ",
"          qXL.<.S A ) s.I.L.OX@X|.T.`.).).(.).[.oX$X$X}.b.D A A U @.y.r.z.^.Z.(.C.Z.s._ R r q > e e e t e < , i                 ",
"          rXoX,.P N A ` S.~.oX+X|.(.)._. X{..X[.oXoX!.s.f 1 , 6 9 D U #.w.z./.(.(.[.b.` W p q > > e e r e > % y                 ",
"          aXoXc.) N N J 4.D.L.|.].(. X X X{.{.C.L.L.4.f * 5 5 , 9 N D O.f.n./.(.{.(.E.s.) V y > > q q e r e : s |               ",
"          %X|.L.,.A k Z ( U s.b.)._.XXXXXX.X(.B.<.U N 3 5 5 5 7 C Z ( p.B.N.].{.[.[.}.b.a.( p e > s w w r r : = u               ",
"          {.].v.<.J D C N B U v._. X X_.XXXX(.f.U J 9 , > > 5 V ( ` Y.Q.oX}..X+X+X.XoXR.b.4.W y s q w q w r : = 5 V             ",
"          (.z.j.f.@.U D A A p.T. X X_._. XXX).<.,.J u 5 5 5 i ~ 4.I.OX0XOX@X$XiX&X#X#X+X~.D._ | e q > q w w q : 5 |             ",
"        Z.z.j.w.f.f.a.4.s.d.L.[.{.{.XXXXXXXX Xz.d.U Z N N N ( 4.Y.!.OXOX+X@X8XpXpXaXiX&X&XQ.A.W a > : q w w r r s i W           ",
"        Z.j.e.w.y.@.,.s.D.d.b.~.|.%X%X*X*X&X*X_.).v.p.a.,.4.s.~.Q.R..XR..X$XiXgXgXzXzXaXaX8XH.W a : - q q q w r e t V V         ",
"      l.w.r.h.p.D h B Z Y ) a.~.<XpXaXxXxX*X&XXXXX.X}.E.Q.E.R.E.E.C.C.C..X&XpXgXzXlXlXzXaXpXH.V w = = : q q r r r e e 6 N       ",
"      l.r.j.b.A 1 $ & 5 7 V _ G.,XdXcXcXcXvXxXaX*X%X%X%X+X+X[.[.C.Z.Z.[.#XuXzXjXlXBXBXcXaXsXA.6 ; @ @ - : q q e r q ; # i       ",
"      l.r.n.p.0 X X X o < y E _ G.2XMXmXlXzXvXvXxXxX*XaXaX&X&X.X{.C.{.&XgXjXzXlXBXBXBXzXjXsXW , = = = - : q q q q : @ = 7 C     ",
"    n.l.z.M.Y 6 o X . . . % a E F.2XNXMXdXzXzXcXvXxXvXvXcXvXaX*X&X&XiXaXzXlXcXMXlXBXBXMXMX1XE r q : : : q > > , : = = : , N     ",
"    Z.n.Z.b.a.N * . O @ < < 5 E F.3XNXdXdXdXgXgXxXvXvXvXcXBXAXcXcXzXzXzXzXlXlXmXMXMXBXBXMX,XW E R p w : q > : > , : q : & 7 C   ",
"  T.(.Z.Z.V.D.N o . o < o % p } F.3X2XyXdXdXdXzXcXcXVXcXAXAXAXAXAXBXBXlXjXlXlXlXlXlXMXMXMX:X] [ [ Q r t : - - q r r = = + & k   ",
"  T.C.(.V.V.d.9 o o O + < 5 | ( F.,X5XdXdXdXMXzXcXAXAXAXBXBXAXAXAXAXMXmXbXjXjXjXlXlXMXVX2X` -X;X[ z a e # @ = q r : = ; = o 6 k ",
"  T.[.T.T.V.a.9 $ . . @ ; u z W A.:X3X2XeXdXdXhXBXVXAXVXVXMXMXVXAXVXBXnXbXjXjXjXlXjXmX2X_ ] -X9.Q z u & $ o @ : : = = = = @ 5 i ",
"  T.C.R.R.V.,.f * X @ ; 5 y z W ` H.3X3X2XeXdXhXVXVXAXVXmXMXMXMXVXMXMXmXbXjXkXkXgXgXdX` | } ] _ ' l 8 d 8 1 % # @ = = @ O : e 6 ",
"V.C.T.[.R.T.,.B 6 * , 3 y i k C ` A.:XQ.2X1XiXzXcXBXVXbXjXhXbXbXMXmXmXbXbXkXkXfXgXgXW._ Q V Q G.^ S K ^ / C 7 3 # @ @ @ @ > > 6 ",
"C.R.[.T.T.b.<.D N f i i V N V W _ ` D.W.<X1XeXdXjXjXBXbXdXhXsXhXdXnXnXlXhXkXkXfXfXgX2X>X` V ' -.G 1.J.U.U.J.^ f & @ @ @ @ - > 1 ",
"C.T.].V.M.b.c.@.U Y Z N V E C z V ( ` D.~.W.,X1X9XhXhXsXsXsXsXdXdXhXhXbXbXkXfXfXfXfXnXyXG.^ G c B 1.I.wXtXwX8.l 6 & X X @ : & * ",
"T.C.C.m.V.M.v.d.d.p.J 9 k i 6 3 5 u C a.d.) ` a.H.<X9XeX9X9X0XsXfXsXkXjXkXrXuXuXqXfXZXZX<X4.B 4 8 C 9.>XtXwX>.v c 8 & X o # $   ",
"T.C.C.C.M.M.V.h.b.p.A 6 % o . . . o | ` Y 7 7 N W A.I.1X1X8XiXiXsXsXgXfXfX9X8X8X9XrXCXSXtX>X^ d 1 6 l ' 8.0.-.! H l 4 & X $     ",
"M.T.V.Z.Z.Z.Z.n.V.c.U 6 O . . . . . y W y . o < 6 C ` H.Q.1X0XuXsXsXfXsX9X8X9X8X9XhXSXFXFXtXG.^ k 4 8 f C =.3.3.:.G c 8 $ $     ",
"  E.T.N.N.N.n.n.C.M.,.i # . . . O . , e + . . . o 5 C a.~.!.1XiXfXfXpX9X9X9XqXpXqXbXDXFXFXDXtX6.K B f 0 d ! 3.3.1.L G f 4       ",
"  R.].C.m.N.Z.n.V.V.s.C * . . . . . X o . . O . . o 7 J D.W.iXiXgXpXqX8X8XfXpXqXrXnXDXFXDXCXwX7.1.1.^ l l H 3.6.>.=.K S P       ",
"  oX[.C.Z.Z.n.Z.V.E.b.Y 6 X . . . . . @ o X @ @ . . % N 4.Q.0XsXgXpXfXpXpXgXpX9XtXCXDXSXtXwX0.6.0.K.6.=.H L >.>.>.O.X.X.<.J.    ",
"  R.R.M.M.M.M.Z.C.V.b.U 6 o . . . . < % $ $ % # o X X 7 ` ,X1XsXfXrXpXpXaXpXpXrXCXDXCXtXP.0.>.2.K.P.K.2.X.X.o.>.>.:.=.O.<.c.    ",
"  Q.R.T.T.M.M.N.V.C.L.,.9 X X O X - 3 1 $ 3 1 1 & X X 6 ` W.0XqXrXuXiXaXiXzXfXnXCXCXCX7X6.2.2.2.0.q.K.7.>.X.>.>.>.X.X.X.O.      ",
"  0XoX].V.M.M.T.V.M.V.a.N $ O O # 4 4 1 2 4 4 3 & X X 3 4.Q.9XfXgXfXgXiXiXaXhXNXtXtXwXJ.K.K.5.2.6.0.0.7.7.>.2.7.7.>.>.X.H       ",
"    oXE.T.M.M.N.V.T.Z.d.N $ O X 4 8 8 4 8 8 8 8 & . X 6 4.<XqXkXfXfXpXfXzXgXMXZXtX7Xq.8.K.P.0.2.>.>.2.2.2.7.7.7.0.0.>.P         ",
"    R.|.T.M.M.M.M.C.V.d.N o O $ u c 8 8 c c c c $ . X 7 4.0XfXgXkXfXuXfXsXMXSXFXCX<XJ.3.5.J.J.6.>.O.>.>.2.6.0.'.'.'.7.P         ",
"      |.T.M.M.n.M.C.M.p.N o X 1 c c c c l l c c $ . o u A.0X9XkXgXpXiXiXsXNXCXSXSXtXY.1.3.8.6.6.6.6.6.6.q.q.K.'.'.'.7.P         ",
"        R.M.B.B.M.M.M.p.N * X 4 l c c c x b x r @ X % k D.9XsXfXgXfXiX!.uX3X>XyXCXNXK.3.8.0.2.>.6.0.0.q.'.'.'.0.0.6.:.          ",
"          L.B.B.n.M.M.d.A * X 8 l b c l b b b c $ o & V I.9XuXpXgXiX1X&X!._ _ G.;XP.8.q.J.0.2.2.7.q.'.'.'.7XK.3.>.X.H           ",
"          L.B.v.v.n.M.s.D 1 $ 8 b b l b b ! ! x $ $ 5 ( W.9XsXfXiXiX0X&XD.C V E C W ^ J.U.8.2.6.'.'.'.'.7X7X6.L H v             ",
"          L.B.v.v.n.n.d.D , $ 9 x b l b ! =.! x 3 1 7 ` Q.iXfXuXiXsXpX8XD.) V 6 1 u C -.5.5.8.0.'.'.7X7X7X0.=.H S S             ",
"          L.L.B.h.h.v.b.D 1 $ 8 x x l b ! ;.-./ 6 5 z A.<XsXgXsXuXpX8X#XQ.A._ 7 # & 7 k G :.8.0.K.7X7X7X5.K H H S P             ",
"          E.L.c.f.h.h.d.D 1 $ d x x b ! ;.;.;.z 4 7 C D.1XiXiXiX8X8X#X@X@XQ.4.~ 7 o o 3 7 ^ 8.0.q.P.P.3.H H H S S ^ s.          ",
"        R.T.].L.h.c.h.p.J 1 $ d x b ! ! ;.3./ c u 6 ( ~.0XiXiX!.@X@X+X#XqX9XQ.4.Z 6 X X 3 Z 9.8.3.6.3.^ H K H S v S >.c.        ",
"        L.N./.B.f.<.p.p.D 1 1 x ! ;._ ;.q.9./ u 6 9 a.~.!.iX$X$XoXoX+X%X@X@X8XL.a.A 6 * * N 4.1.3.:.) P L L S v h h S <.        ",
"      B.B.l.K.#.O.P ,.p.U 0 8 ! ;.9.9.8.q.9.z 6 6 Z D.R.#X$X$X}.oXoX+X+X+X@X@X@X~.,.Z 9 k Y 4.5.1.=.L L L H S h h g h O.f.      ",
"    m.g.<.&.o. .m m U ,.:.d l ;.q.q.8.8.8.9.V 7 9 a.~.!.!.$X!.}.|..X.X+X+X+X+X%X&Xn.p.@.U s.5.5.:.=.=.L L H v h g j g S +.      ",
"g.g.&.o.o. .n j j j M p.,.B ! 3.q.q.8.8.q.J.V u Y D.!.$XoX!.R.R.oX.X+X+X+X+X.X XR.Z.n.V.n.v.a.:.:.^ L L H H I v h g g h F       ",
"f.&.+.$. .n j j 2 2 B ,.4.1.-.3.q.8.;.1.D.` i i ( ~.!.!.R.R.[..X.X.X.X&X.X[.[.).Z.Z.Z.Z.Z.h.<.,.:.K K K H L H v g g g g S @.    ",
"w.#.#...M n j 2 2 2 d J a.' / ;.3.=.! ^ A.N 6 N a.!.!.R.R.C.[.[.R.R.R.R.[.].(.Z.Z.Z.x.x.x.r.w.p.,.:.K K L X.H v l g g g h P c.  ",
"&.&.#...m h j 2 2 1 2 l J C G / x x k Z Z 9 9 W W.0XE.V.T.R.R.[.R..XR.T.V.V.l.l.h.h.h.h.r.r.l.V.b.<.L P ^ =.=.H v g g g g T :.B.",
"@.@.@.F S g d 2 2 $ $ 6 k W C i 7 7 8 i 9 i W H.2X!.~.V.T.T.T.R.R.T.E.V.h.h.h.h.h.h.r.h.h.h.n.E.E.s.,.L ! =.=.H v g g g g g D c."
};
