/* XPM */
static char *_205f7e8d1f844dca953a93f5986d940lY4K1EcKrnhuJWpc[] = {
/* columns rows colors chars-per-pixel */
"57 64 219 2 ",
"   c None",
".  c #010101",
"X  c #0A0A07",
"o  c #0C0D0B",
"O  c #060706",
"+  c #110F0E",
"@  c #0E110D",
"#  c #13120E",
"$  c #141513",
"%  c #191715",
"&  c #161A15",
"*  c #1B1A16",
"=  c #1C1D1B",
"-  c #16181A",
";  c #0B0C10",
":  c #211E1D",
">  c #271C19",
",  c #1D201D",
"<  c #23221D",
"1  c #2A241C",
"2  c #29261B",
"3  c #30271E",
"4  c #37301F",
"5  c #1A1E21",
"6  c #1F2321",
"7  c #242322",
"8  c #292624",
"9  c #2B2925",
"0  c #2D2C2B",
"q  c #252827",
"w  c #312C23",
"e  c #312E2C",
"r  c #372825",
"t  c #33312C",
"y  c #3A3529",
"u  c #343433",
"i  c #3A3936",
"p  c #3B3C3A",
"a  c #373836",
"s  c #2C312E",
"d  c #433C2C",
"f  c #423927",
"g  c #423E34",
"h  c #423936",
"j  c #4B3330",
"k  c #3E403B",
"l  c #47443A",
"z  c #544B32",
"x  c #544C3A",
"c  c #5B533B",
"v  c #47402C",
"b  c #624424",
"n  c #755329",
"m  c #6A5C3A",
"M  c #715333",
"N  c #3C3E42",
"B  c #3E4243",
"V  c #424444",
"C  c #494946",
"Z  c #454A4B",
"A  c #4B4E4C",
"S  c #504E48",
"D  c #585449",
"F  c #4B4E52",
"G  c #4D5254",
"H  c #4D5659",
"J  c #545353",
"K  c #565A5C",
"L  c #55585C",
"P  c #685B41",
"I  c #5F605F",
"U  c #6D6248",
"Y  c #746847",
"T  c #6E6958",
"R  c #766B56",
"E  c #7A7157",
"W  c #7A704D",
"Q  c #5A5E63",
"!  c #565C60",
"~  c #5C6265",
"^  c #5D6569",
"/  c #61666A",
"(  c #64696D",
")  c #696D6E",
"_  c #646666",
"`  c #737369",
"'  c #686D71",
"]  c #6D7275",
"[  c #6F7579",
"{  c #717679",
"}  c #737A7C",
"|  c #77787A",
" . c #6F716D",
".. c #835E2E",
"X. c #876634",
"o. c #966E38",
"O. c #9C7638",
"+. c #916528",
"@. c #A57A38",
"#. c #A9742C",
"$. c #88774D",
"%. c #887958",
"&. c #86734F",
"*. c #B57E4E",
"=. c #887F6C",
"-. c #BB8937",
";. c #BC923D",
":. c #AB813E",
">. c #C4913A",
",. c #8E805B",
"<. c #998659",
"1. c #98804A",
"2. c #A88749",
"3. c #B88C46",
"4. c #BD9748",
"5. c #A68F5E",
"6. c #AE965E",
"7. c #BD9E5A",
"8. c #BB9854",
"9. c #BFA25B",
"0. c #898267",
"q. c #978764",
"w. c #878475",
"e. c #958B76",
"r. c #AD9C6C",
"t. c #A79566",
"y. c #B69C67",
"u. c #A79977",
"i. c #B29D73",
"p. c #AD8F66",
"a. c #BBA46A",
"s. c #B9A577",
"d. c #CA9C43",
"f. c #C29C4B",
"g. c #C59A47",
"h. c #C39C55",
"j. c #CCA34E",
"k. c #D2A44C",
"l. c #C5A153",
"z. c #CAA353",
"x. c #C4A35A",
"c. c #CAA45C",
"v. c #CCA95D",
"b. c #D2A855",
"n. c #CCAB64",
"m. c #C3AA6D",
"M. c #C7A868",
"N. c #D3AE63",
"B. c #D1AC69",
"V. c #D3B36D",
"C. c #D4B166",
"Z. c #C3AC74",
"A. c #C3AD7D",
"S. c #CBB173",
"D. c #C5B17E",
"F. c #CBB47B",
"G. c #C8B379",
"H. c #DCBC7A",
"J. c #D6B778",
"K. c #E1BF7C",
"L. c #E3C07D",
"P. c #777C81",
"I. c #7A7F82",
"U. c #7D8185",
"Y. c #7F8489",
"T. c #7C888B",
"R. c #718F9A",
"E. c #81868A",
"W. c #848A8D",
"Q. c #858986",
"!. c #888D92",
"~. c #868B91",
"^. c #8A9196",
"/. c #96999C",
"(. c #979387",
"). c #A49B85",
"_. c #A8A388",
"`. c #BAA885",
"'. c #B5AE8C",
"]. c #959EA3",
"[. c #849DA5",
"{. c #91A3A8",
"}. c #A5B7B8",
"|. c #B5B6A8",
" X c #C6B585",
".X c #CAB584",
"XX c #CDBA85",
"oX c #CBBB8B",
"OX c #C9B58A",
"+X c #D4BB83",
"@X c #DDBD84",
"#X c #D7BA88",
"$X c #C8BD93",
"%X c #CEB78E",
"&X c #E6BA84",
"*X c #D4C18C",
"=X c #DCC18A",
"-X c #DDC084",
";X c #CEC294",
":X c #CFC59D",
">X c #D3C394",
",X c #D4C89D",
"<X c #D9C798",
"1X c #E5C688",
"2X c #E6CA92",
"3X c #ECD196",
"4X c #EBD69D",
"5X c #F2D497",
"6X c #F0CF93",
"7X c #D3CAA4",
"8X c #DCD2A6",
"9X c #D3CFAD",
"0X c #E9D8A9",
"qX c #F1DBAB",
"wX c #F7E3AC",
"eX c #EAE2B9",
"rX c #F6E6B5",
"tX c #FAF0BE",
"yX c #E9E5CC",
/* pixels */
"                                                                                                                  ",
"                                                                                                                  ",
"                                                                                                                  ",
"                                            wXrX                                                                  ",
"                                            #X&X                                                                  ",
"                                            h.N.wX                                                                ",
"                  yX                      1X>.d.3X                                                                ",
"                                          B.>.d.H.rX                                                              ",
"                  ..o.                6XK.k.b.b.C.2XtX                                                            ",
"                  +.@.3.3.h.    1XL.H.C.k.>.b.V.L.&X1X5X5X                                                        ",
"                  #.o.$.@.*.h.c.j.k.j.j.>.>.j.V.1XL.K.L.1X3X                                                      ",
"                  *.X.n ..#.o.-.j.z.x.x.v.g.g.v.H.H.H.m.Z.2X4X                                                    ",
"                  8.o.b n o.#.g.z.l.9.a.m.M.8.h.V.H.y.U 0.8XrXtX                                                  ",
"                  C.2...b n 3.h.z.8.8.9.M.m.S.c.V.m.%.z ,.8XyXqX                                                  ",
"                    7.O.O.@.f.v.l.4.4.8.7.n.S.B.J.J.B.r.S.4XeXeX                                                  ",
"                    7.#.-.b.N.n.x.l.2.%.m m 2.v.K.K.@XH.'.$X9XeXrX                                                ",
"                    4.#.>.N.N.n.n.7.W U x c 1.n.J.*XXXq.T D w.9XqX                                                ",
"                    f.#.d.v.n.S.F.F.t.,.%.6.m.S.H.;Xu.k , , D $X7X&X                                              ",
"                    z.;.z.S.F.*X>X,X*XS.G.F.-XF.;X:X_.u @ , k e.=.*.                                              ",
"                    C.j.N.XX>X>X,X8X:X;X>X,X>X*X;X$X'.` k w v m %.y.                                              ",
"                    C.j.S.*X;X;X,X,X:X,X7X:X:XoXs.'.'.0.x t v E OX6X                                              ",
"                    V.b.n.G.*X*X;X;X:X:X;X;XoX`.a.r.r.W k y c u.7X5X                                              ",
"                  3XC.j.9.a.s.*X XXX;X X'.*Xs.q.$.W Y v c U ,.XX<X0X                                              ",
"                  3Xn.j.4.9.G.F.oXXXD.XXXXs.r.m m $.1.<.5.r.Z.*X2X0X                                              ",
"                  3Xv.4.4.9.Z.*X;X;X X Xs.G.r.,.5.a.a.a.S.G.+X*X*X<XeX                                            ",
"                  3Xv.f.;.4.9.S.G.XXoXoX*Xs.s.s.a.a.S.s.G.G.s.s.t.%.e.|.                                          ",
"                  2Xv.4.;.;.f.4.a.G. X;X;X*XG.s.a.a.a.S.m.5.U l 9 7 s { ].                                        ",
"                  <Xz.2.:.1.:.Y m W s.s.s.;X*XG.a.a.6.5.$.z 2 $ $ - - V Q.].                                      ",
"                  8X6.%.E _ z 4 2 4 z W <.r.6.<.1.Y c v 2 > # o ; - 5 u K I.].                                    ",
"                  9Xw.{ / _ k t 2 2 2 4 v z y 2 2 q q q 9 2 > + ; - 5 0 G { E.].                                  ",
"                  |.!.Q.{ ^ V 0 2 2 2 2 & , # @ & 6 6 q w w 8 * O ; 5 q p ~ ) I.                                  ",
"                  ].I.W.Y.[ K u , * * # # , , o @ 6 6 q 9 9 1 > X . - 5 q Z / Q /.                                ",
"                }.W.} Y.!.T.! 6 # # @ @ # < 8 o ; 5 0 7 7 7 : > o O $ - 7 F ^ ! |                                 ",
"                }.] ( ( W.T.A 6 & # o # & , 8 $ ; 5 u u 7 : : % X + - = 5 V L G _ ].                0 5           ",
"                /.) ! ( U.{ k q , & $ & , * : > > 7 e 0 0 7 : : : 7 > : 7 8 0 p h D _ ) K Z e p p p p a           ",
"                !./ ( P.U.[ Z q , , & # o $ = : > : 8 7 % - 7 8 7 u : 7 : 7 u 0 u a u p g p 8 0 0 q % p           ",
"                /._ / [ Y.E.K 6 , , , X + % $ : : 8 8 0 a a e e i N e 0 u J S N B C S C V V Z B s = $ 0 J L J     ",
"                ]._ ~ / } ~.( , , , , X O o X o O ; - - + % > > > + = : : $ = r a a u u u 0 = 0 p p a u J K K     ",
"                /.G L ( } Y.] V s s 2 @ O o X X $ : : % > > > j r > = - : 8 % ; 5 = o 5 J Q H H G                 ",
"                ]./ / ~ ' [ } Y.I.^ G B a u u e h S P D l a h j j e q 7 : 0 8 : l _ N V {                         ",
"                {.U.P.U.] ^ ( I./.W.{ (  .} { ` =.%X.Xi.i.u.T j 8 : 7 : = e F I _ { ) ) T.                        ",
"                [.W.W.W.T.( ~ ( I.!.Y.} W.!.^.U.=..X@X&X=X&Xi.P y % # % j T Q.Q.| ] ' E.^.                        ",
"                [.W.!.W.} ^ ^ ^ ( U.T.P.I.W.^.W.U.i.J.@X&X2X%X X%.h > 1 R `._.(.Q.{ ~ P.^.                        ",
"                R.[ ~ Q K H K Q ^ ] [ ^ Q { T.~.W.)..X@X=X2X$XOX%.d % d i.&X%X Xu.w.) U.                          ",
"                  Y.F N N N G Q / / ( Q ! [ U.Y.Y.(.A.@X@X%X Xq.x > % P XX2X@X+XA.u.).                            ",
"                    ^ / F V N F L H Q ~ / { ) ) I.e.Z.J.#X Xi.W w $ 3 ,.`.OX#X@Xa.i.                              ",
"                          B 7 q 0 u B V S J C D W *.5.y.i.i.t.T w o * x U q.s.s.q.e.                              ",
"                          5 = $ ; $ , q q 8 t t y r f z z d v y : @ o * h E %.D D                                 ",
"                            = $ @ o @ & , , , , & & $ $ * & & & , 9 7 &     w # e                                 ",
"                            . $ & # o $ & , & , , , & & & & , @ .             o .                                 ",
"                            . + & $ X @ & , , , & & = ; .                                                         ",
"                              . & $ X o @ o $ O . .                                                               ",
"                              . . . . . . . .                                                                     ",
"                              . . . .                                                                             ",
"                                                                                                                  ",
"                                                                                                                  ",
"                                                                                                                  ",
"                                                                                                                  ",
"                                                                                                                  ",
"                                                                                                                  ",
"                                                                                                                  ",
"                                                                                                                  ",
"                                                                                                                  ",
"                                                                                                                  "
};
