/* XPM */
static char *_10c84a7e56749ceda7f0773978bc425N1Yccau4ccFe9p44[] = {
/* columns rows colors chars-per-pixel */
"57 64 210 2 ",
"   c None",
".  c #030404",
"X  c #0C0D0B",
"o  c #070909",
"O  c #0E110C",
"+  c #11120E",
"@  c #0E0F10",
"#  c #141512",
"$  c #191714",
"%  c #161915",
"&  c #1B1A15",
"*  c #151618",
"=  c #171A1A",
"-  c #1B1C1A",
";  c #13110F",
":  c #211E1B",
">  c #251C17",
",  c #1D211D",
"<  c #23211C",
"1  c #2A261B",
"2  c #332D1E",
"3  c #3B331F",
"4  c #1D1F20",
"5  c #1E2221",
"6  c #132325",
"7  c #242422",
"8  c #2A2624",
"9  c #2A2A25",
"0  c #2C2D2B",
"q  c #242A27",
"w  c #312D26",
"e  c #312F2C",
"r  c #312723",
"t  c #29312E",
"y  c #3C3525",
"u  c #33332C",
"i  c #383428",
"p  c #2E3434",
"a  c #353533",
"s  c #3B3633",
"d  c #393935",
"f  c #353A3B",
"g  c #3B3D3C",
"h  c #373932",
"j  c #41372A",
"k  c #433E31",
"l  c #473D3B",
"z  c #4C322F",
"x  c #3E403E",
"c  c #41403D",
"v  c #4A4538",
"b  c #584D39",
"n  c #5B523A",
"m  c #5E4224",
"M  c #674827",
"N  c #62563C",
"B  c #64593A",
"V  c #78532B",
"C  c #3C3E42",
"Z  c #3D4144",
"A  c #444443",
"S  c #46494B",
"D  c #4B4B49",
"F  c #4A4844",
"G  c #56534B",
"H  c #4A4D51",
"J  c #4E5254",
"K  c #565B5E",
"L  c #5B5D5B",
"P  c #515559",
"I  c #645B47",
"U  c #6C6146",
"Y  c #796947",
"T  c #786E55",
"R  c #7D7258",
"E  c #666354",
"W  c #595D62",
"Q  c #575D61",
"!  c #5D6265",
"~  c #5F6468",
"^  c #556562",
"/  c #636563",
"(  c #61666A",
")  c #646A6D",
"_  c #6B6E6D",
"`  c #787668",
"'  c #696D71",
"]  c #676D72",
"[  c #6E7276",
"{  c #6F7479",
"}  c #67737B",
"|  c #71767A",
" . c #757A7C",
".. c #767B7A",
"X. c #737068",
"o. c #815C28",
"O. c #876838",
"+. c #956C36",
"@. c #9B7739",
"#. c #A37837",
"$. c #AC772D",
"%. c #8C794D",
"&. c #877958",
"*. c #A37A43",
"=. c #857B66",
"-. c #7E827F",
";. c #B98A3A",
":. c #BB923D",
">. c #A9803B",
",. c #C8973E",
"<. c #988658",
"1. c #A68548",
"2. c #BD9849",
"3. c #A78D55",
"4. c #BD9C5C",
"5. c #B89854",
"6. c #AE8F54",
"7. c #978968",
"8. c #938D79",
"9. c #9A9279",
"0. c #8B8778",
"q. c #A48F66",
"w. c #AA9A6C",
"e. c #A69468",
"r. c #B49D68",
"t. c #A79979",
"y. c #B39F76",
"u. c #BCA56C",
"i. c #BCA367",
"p. c #BAA578",
"a. c #AEA17A",
"s. c #C39B4B",
"d. c #C79A46",
"f. c #C39E51",
"g. c #C0995A",
"h. c #CCA34C",
"j. c #C5A256",
"k. c #CAA453",
"l. c #C9A75C",
"z. c #D4A956",
"x. c #D0A54F",
"c. c #C69A68",
"v. c #C3A463",
"b. c #CEAD65",
"n. c #C4AA6D",
"m. c #C9AA6C",
"M. c #D5AE67",
"N. c #CEB16E",
"B. c #D3B26D",
"V. c #D9B269",
"C. c #C4AD74",
"Z. c #C5AD7A",
"A. c #CAB175",
"S. c #C9B47B",
"D. c #D5B473",
"F. c #DAB673",
"G. c #DCBB7A",
"H. c #D7B97A",
"J. c #E2BD77",
"K. c #ECC27C",
"L. c #757C82",
"P. c #7A7F82",
"I. c #7D8285",
"U. c #7E8489",
"Y. c #738286",
"T. c #81868A",
"R. c #848A8D",
"E. c #878987",
"W. c #888D92",
"Q. c #8D9397",
"!. c #93968E",
"~. c #A89C86",
"^. c #B7A886",
"/. c #B1AB90",
"(. c #A8ABAA",
"). c #BAB9A4",
"_. c #C6AD83",
"`. c #C5B483",
"'. c #C9B585",
"]. c #CBB985",
"[. c #CBBB8B",
"{. c #CAB38C",
"}. c #D5B782",
"|. c #D4BC84",
" X c #DBBC83",
".X c #D3BC8A",
"XX c #DCBE8B",
"oX c #C8BD95",
"OX c #D7BD91",
"+X c #E2BB8A",
"@X c #D4C28E",
"#X c #DCC389",
"$X c #CFC295",
"%X c #D2C394",
"&X c #D1C69B",
"*X c #DAC496",
"=X c #E1C284",
"-X c #E4C58C",
";X c #E5C895",
":X c #F3D597",
">X c #EDD093",
",X c #D2C8A2",
"<X c #D1CDB1",
"1X c #E3D4A7",
"2X c #EEDBAA",
"3X c #F6E6AC",
"4X c #EBE5BD",
"5X c #F4EAB8",
"6X c #EDE7C5",
"7X c #F5F1CC",
/* pixels */
"                                                                                                                  ",
"                                                                                                                  ",
"                                        s.D.                                                                      ",
"                                      *.#.v.J.                      :X                                            ",
"                                      *.#.6.m.                    F.F.                                            ",
"                                    v.*.+.#.6.M.                V.s.G.                                            ",
"                                    4.+.V O.#.1.B.K.          V.d.d.K.                                            ",
"                                    g.@.m V #.+.$.h.V.F.J.V.z.z.d.d.J.                                            ",
"                                    v.>.M M @.$.:.h.k.k.h.,.d.h.z.z.G.                                            ",
"                                    g.#.+.V >.h.j.k.j.j.j.h.:.h.V.J.J.                                            ",
"                                  V.;.>.:.2.k.l.k.f.5.i.v.l.2.h.H.-XJ.;X3X                                        ",
"                                  2.$.:.x.z.b.l.j.2.j.l.u.u.f.f.D.=XJ.J.-X2X                                      ",
"                                J.,.:.h.l.b.b.l.f.2.5.5.v.A.l.j.D.G.G.G. X>X                                      ",
"                                V.,.h.l.N.N.N.N.f.Y -.Y 1.i.A.b.B.m.%.Y p.-X3X                                    ",
"                              :Xb.x.b.S.@XS.@X@XN.Y B x M :.b.H.D.r.n v oX2X5X                                    ",
"                              #Xl.b.H.@X$X&X&X&X@Xi.<.Y -.5.B.J.G.D.w.r.1X6X3X                                    ",
"                            >XB.k.l.A.@X$X&X&X,X$X`.S.u.S.N.H.G.@XS.#X-X2X6X5X                                    ",
"                            G.l.h.5.n.`.].$X&X&X&X&X$X@X@XH.@X$Xa.R 7.~.,X4X7X                                    ",
"                          :Xb.s.2.5.n.S.`.].$X&X,X,X,X,X@X@X$X).T q , u 8.1X6X                                    ",
"                           Xk.2.:.2.A.].[.].`.[.[.oXoX&XS.@XoX/.E , # w !.<X7X                                    ",
"                        2Xb.d.:.:.2.n.S.@X@X`.`.p.@X^.p.u.p.^.~.X.u 1 x =./.;X                                    ",
"                        %X6.1.1.:.2.j.A.`.].[.[.$Xp.w.<.<.e.w.7.I h y n &.=.c.                                    ",
"                        /.=.X.R %.@.>.<.p.@X[.`.@Xu.<.B B B U n v u i U q.~.+X                                    ",
"                      (.E.I.) ! b x 3 B e.^.[.[.p.u.e.<.e.3.<.Y B n Y a.&X2X                                      ",
"                    Q.{ I.R.{ ! x u 1 2 B w.p.$X`.p.u.u.C.C.u.i.w.w.p.&X1X7X                                      ",
"                    P...T.W.I.! x , 1 1 3 B w.@X@Xp.A.u.u.u.u.S.A.@X#X*X1X7X                                      ",
"                  E.( / { R.I.^ x 1 1 1 1 2 n <.3.e.i.i.u.A.A.A.A.^.#X#X4X                                        ",
"                L.] ! W { T.{ S % % & & % % , 1 3 b U <.<.3.<.<.<.<.w.a.&X                                        ",
"                T.W ) L.I.| J t % O O O O % , O O 6 q w w y j y 9 9 8 l ` <X                                      ",
"                ' ( ( L.U.[ x q , % O O O , q O O % 4 7 9 r > $ X @ @ = D (.                                      ",
"              } H W ~ [ Q.{ t , , % % % % , 1 % O 6 5 7 w r 8 & X @ = = f W.                                      ",
"              I.W W ' P.W.( , , , , O O % 1 2 O O , q 5 9 w 8 > o X = 4 f ] (.                                    ",
"              I.| ] )  . .L q - - & ; X # & : > 4 8 a 7 7 8 7 > o o 4 7 C ] T.                                    ",
"            Y.R.U.I.[ ~ | { J t < $ o X $ $ 4 = 4 0 a 0 $ 7 > > o o 4 7 C ] P.U.                                  ",
"            I.W.W.R. .! ] R.T.L a + . o @ $ < 8 8 8 8 0 8 : $ X o o $ 7 f W [ Q.                                  ",
"            ( ( | | ) ~ ~ U.Q.I.( x 7 # . . . ; 7 8 7 $ $ 7 : * ; $ = 4 C W / W.                                  ",
"            Q C J P K ^ ~ } W.I.' ) L A : ; $ $ ; 4 e s a 8 7 0 < 4 - 7 H ( K  .                                  ",
"              Q Z C H Q ! ) T.T.I.U.U.P.L F F e 4 ; ; ; 7 0 e s < 7 7 8 C P J W.                                  ",
"                H C H Q ( ) { P.L.U.W.Q.-.t._.7.I e r > > > 7 0 e 7 - 7 r g D -.                                  ",
"                p C C J Q ! ) Q K { R.R.P.9.}.}.y.=.l z z z > $ 7 s l D C 0 s F /                                 ",
"                , 7 = 0 C P ( Q ! | T.R.E.t.}. X X'.7.G l z 8 4 * X $ e c g d a A L C                             ",
"                # # + # 5 C D ! { L.I.T.R.a. X X+X;Xy.b 8 8 8 7 4 0 7 $ q l D D A c g a 7                         ",
"                O # # O @ 5 p F L L _ -.E.p. X XXX;XXXq.j $ : : 4 8 8 @ * 7 e d A A c u 7 a 4 o .                 ",
"                + * % O X % - 7 e l G =.9.Z.G. XXXOX{._.I $ $ $ 0 a F s d a # # 7 0 a A A p q 8 #                 ",
"                # % % O o # - , 1 9 i N *.m.}.}.'.p.7.=.k $ < l T 0. ._ / P.C f / L D a 7 - * # q                 ",
"                % % = O o # - , - - - < i U q.y.p.<.n 1 & > b w..X^.!.P.| ' ] [         f D a 7 p                 ",
"                , * # O O O % , 5 , - % + % j N T T v & > b q.XX+X{.~.E.| ) P.W.              t q * .             ",
"                . * = 5 7 , = # % % - - % # $ > w y & . 1 T ^.OXXX}.^.8._ ( T.                                    ",
"                            . o X * 5 a 7 % % - , % # O + v R p..X}.A.t.0.-.Q.                                    ",
"                                              6 p S x a u h I e.Z.Z.3.^.).                                        ",
"                                                          ..!.R n E 8.<X                                          ",
"                                                              G & /                                               ",
"                                                              / : _                                               ",
"                                                                !                                                 ",
"                                                                                                                  ",
"                                                                                                                  ",
"                                                                                                                  ",
"                                                                                                                  ",
"                                                                                                                  ",
"                                                                                                                  ",
"                                                                                                                  ",
"                                                                                                                  ",
"                                                                                                                  ",
"                                                                                                                  "
};
